<?xml version="1.0" encoding="utf-8"?>
<!-- Generator: Adobe Illustrator 27.5.0, SVG Export Plug-In . SVG Version: 6.00 Build 0)  -->
<svg version="1.1" xmlns="http://www.w3.org/2000/svg" xmlns:xlink="http://www.w3.org/1999/xlink" x="0px" y="0px"
	 viewBox="0 0 3710 3710" style="enable-background:new 0 0 3710 3710;" xml:space="preserve">
<g id="Background">
	<g>
		<g>
			<rect style="fill:#FFFFFF;" width="3710" height="3710"/>
		</g>
	</g>
</g>
<g id="Illustration">
	<g>
		<linearGradient id="SVGID_1_" gradientUnits="userSpaceOnUse" x1="3564.8853" y1="4013.3179" x2="1120.1935" y2="977.1641">
			<stop  offset="0" style="stop-color:#B37CFF"/>
			<stop  offset="1" style="stop-color:#F895E7"/>
		</linearGradient>
		<path style="opacity:0.3;fill:url(#SVGID_1_);" d="M2892.335,2815.969c-56.154,59.116-109.285,97.24-151.264,127.359
			c-493.45,354.056-1077.332,250.85-1201.423,225.646c-183.244-37.218-537.451-109.159-793.536-410.31
			c-387.435-455.616-327.106-1173.427-26.585-1647.264c54.97-86.673,345.338-567.727,935.509-644.873
			c357.165-46.688,773.505,47.476,1075.006,300.075C3362.921,1296.83,3317.867,2367.982,2892.335,2815.969z"/>
		<g>
			
				<linearGradient id="SVGID_00000135692647073600430470000007208743709991650953_" gradientUnits="userSpaceOnUse" x1="615.9417" y1="825.4081" x2="5927.4326" y2="5069.6304">
				<stop  offset="0" style="stop-color:#FDF53F"/>
				<stop  offset="0.7786" style="stop-color:#E57A58"/>
				<stop  offset="1" style="stop-color:#D93C65"/>
			</linearGradient>
			<path style="fill:url(#SVGID_00000135692647073600430470000007208743709991650953_);" d="M3070.357,1835.526
				c-28.291,644.426-615.115,1142.081-1310.709,1111.544c-695.594-30.537-1236.551-577.701-1208.26-1222.127
				c28.29-644.426,615.114-1142.081,1310.708-1111.545C2557.691,643.935,3098.647,1191.1,3070.357,1835.526z"/>
			<ellipse style="opacity:0.26;fill:#FFFFFF;" cx="1742.64" cy="1695.968" rx="989.257" ry="934.532"/>
			<g style="opacity:0.68;">
				<path style="fill:#FFFFFF;" d="M2135.119,1785.876c-0.11,103.087-3.891,206.188-11.913,308.996
					c-8.243,102.781-20.88,205.263-39.169,306.818c-18.668,101.418-42.447,202.288-78.392,299.4
					c-18.232,48.368-39.38,96.052-68.085,139.686c-14.468,21.659-30.878,42.43-51.182,59.554
					c-10.15,8.506-21.309,16.062-33.607,21.603c-12.271,5.505-25.708,8.994-39.344,9.222c-13.617,0.389-27.26-2.249-39.777-7.281
					c-12.568-4.979-24.001-12.197-34.399-20.425c-20.793-16.596-37.566-37.143-52.292-58.633
					c-29.213-43.328-50.645-90.914-69.066-139.208c-18.305-48.413-33.219-97.96-46.131-147.947
					c-12.888-50.003-23.712-100.492-33.041-151.23c-18.618-101.497-31.35-203.964-39.98-306.719
					c-8.569-102.769-12.915-205.871-13.557-308.995c-0.301-51.552,1.279-103.094,3.163-154.602c2.01-51.508,4.928-102.98,8.8-154.38
					c7.785-102.792,19.333-205.347,36.423-307.058c8.575-50.844,18.56-101.472,30.555-151.654
					c12.025-50.166,25.987-99.933,43.291-148.628c17.483-48.549,37.851-96.505,66.199-140.131
					c14.263-21.649,30.658-42.325,51.098-58.891c10.218-8.211,21.483-15.359,33.835-20.199c12.301-4.906,25.657-7.373,38.931-6.858
					c13.281,0.383,26.379,3.657,38.454,8.96c12.092,5.322,23.195,12.561,33.383,20.763c20.377,16.51,37.227,36.68,52.175,57.85
					c29.719,42.639,52.126,89.638,71.545,137.455c38.347,96.031,64.341,196.345,84.813,297.381
					c20.122,101.182,34.188,203.496,43.493,306.193C2130.405,1579.648,2134.816,1682.76,2135.119,1785.876z M2115.511,1785.876
					c0.25-102.582-3.588-205.197-12.05-307.428c-8.298-102.23-20.873-204.177-39.709-304.997
					c-18.933-100.707-43.383-200.76-80.04-296.424c-18.559-47.626-40.098-94.414-68.681-136.662
					c-14.366-20.976-30.574-40.89-50.002-57.079c-19.242-16.06-42.62-28.395-67.731-29.17c-12.452-0.385-24.876,2.146-36.392,6.904
					c-11.557,4.715-22.174,11.645-31.861,19.655c-19.38,16.153-35.104,36.491-48.767,57.892
					c-27.181,43.128-46.696,90.829-63.323,139.151c-16.462,48.475-29.632,98.072-40.877,148.074
					c-11.216,50.021-20.437,100.496-28.254,151.184c-30.951,202.91-40.891,408.596-40.133,613.716
					c-0.392,102.576,2.926,205.188,10.436,307.497c7.571,102.29,19.228,204.328,36.73,305.359
					c8.769,50.503,19.024,100.749,31.317,150.472c12.314,49.705,26.611,98.94,44.215,146.927
					c17.699,47.855,38.407,94.929,66.364,137.271c14.066,20.992,30.07,40.882,49.407,56.613
					c19.129,15.655,42.566,26.777,66.985,25.945c24.4-0.664,47.276-12.766,66.006-28.969c18.924-16.277,34.587-36.422,48.405-57.597
					c27.467-42.68,47.875-89.861,65.372-137.798c34.529-96.289,57.14-196.695,74.648-297.63
					c17.409-101.044,28.914-203.093,36.583-305.38C2111.972,1991.11,2115.57,1888.486,2115.511,1785.876z"/>
				<path style="fill:#FFFFFF;" d="M2655.101,1785.876c-0.774,132.87-17.913,265.791-53.542,393.914
					c-36.311,127.815-91.061,250.719-165.261,361.043c-74.091,110.09-168.448,207.739-281.19,278.563
					c-56.331,35.252-117.173,63.467-180.86,82.6c-63.65,19.179-130.094,29.169-196.585,29.205
					c-66.491,0.041-132.959-9.872-196.653-28.982c-63.731-19.065-124.637-47.223-181.041-82.429
					c-112.898-70.722-207.471-168.311-281.775-278.402c-74.391-110.343-129.288-233.317-165.816-361.212
					c-17.95-64.072-31.334-129.409-40.172-195.34c-8.783-65.942-13.203-132.44-13.521-198.961
					c0.371-66.521,4.844-133.012,13.679-198.94c8.892-65.916,22.341-131.229,40.345-195.269
					c36.644-127.829,91.651-250.697,166.104-360.892c74.348-109.951,168.896-207.41,281.735-277.899
					c56.383-35.089,117.271-62.976,180.859-82.033c63.547-19.145,129.877-29.114,196.256-29.15
					c66.38,0.106,132.687,10.148,196.194,29.356c63.547,19.121,124.368,47.081,180.675,82.219
					c112.68,70.595,207.015,168.111,281.149,278.062c74.261,110.176,129.123,232.973,165.546,360.724
					C2636.957,1520.113,2654.211,1653.005,2655.101,1785.876z M2632.624,1785.876c-0.104-130.935-16.327-262.025-50.789-388.443
					c-34.593-126.237-86.677-248.175-158.538-357.866c-35.91-54.79-76.711-106.444-122.427-153.411
					c-45.739-46.889-96.255-89.355-151.56-124.621c-55.376-35.057-115.172-63.315-177.901-82.403
					c-62.698-19.091-128.159-29.134-193.746-29.367c-65.587,0.305-131.026,10.419-193.684,29.573
					c-62.688,19.152-122.417,47.482-177.716,82.587c-55.228,35.316-105.648,77.828-151.288,124.742
					c-45.616,46.995-86.312,98.663-122.113,153.453c-71.67,109.673-123.609,231.54-157.981,357.697
					c-17.155,63.145-29.524,127.528-37.935,192.378c-8.438,64.857-12.588,130.259-12.706,195.68
					c0.172,65.421,4.375,130.816,12.864,195.659c8.464,64.834,20.898,129.194,38.107,192.306
					c34.488,126.091,86.538,247.852,158.27,357.378c35.82,54.724,76.524,106.318,122.133,153.233
					c45.639,46.822,96.013,89.284,151.227,124.458c55.278,34.988,114.988,63.05,177.534,82.192
					c62.511,19.189,127.812,29.361,193.287,29.74c65.474-0.302,130.8-10.396,193.354-29.516
					c62.589-19.076,122.364-47.08,177.716-82.022c55.289-35.128,105.76-77.542,151.498-124.338
					c45.709-46.887,86.519-98.469,122.448-153.191c71.923-109.545,124.12-231.376,158.824-357.548
					C2616.067,2047.871,2632.404,1916.811,2632.624,1785.876z"/>
				<path style="fill:#FFFFFF;" d="M756.677,1332.794c87.585-1.267,175.171-1.809,262.756-2.729l262.756-1.547
					c87.585-0.659,175.171-0.588,262.756-0.792l262.756-0.457l525.511,1.374l262.756,1.689c87.585,1.003,175.17,1.589,262.756,2.947
					c0.547,0.009,0.985,0.459,0.976,1.008c-0.008,0.536-0.443,0.967-0.976,0.976c-87.585,1.357-175.17,1.944-262.756,2.947
					l-262.756,1.69l-525.511,1.373l-262.756-0.456c-87.585-0.203-175.17-0.133-262.756-0.792l-262.756-1.546
					c-87.585-0.919-175.17-1.462-262.756-2.729c-0.816-0.012-1.468-0.683-1.456-1.499
					C755.232,1333.449,755.881,1332.807,756.677,1332.794z"/>
				<path style="fill:#FFFFFF;" d="M1061.504,892.701c62.183-1.267,124.366-1.81,186.549-2.729l186.549-1.546
					c62.183-0.659,124.366-0.589,186.549-0.792l186.549-0.456l186.548,0.52c62.183,0.314,124.366,0.142,186.548,0.854l186.549,1.69
					c62.183,1.003,124.366,1.59,186.549,2.947c0.548,0.013,0.982,0.467,0.97,1.014c-0.011,0.533-0.443,0.958-0.97,0.97
					c-62.183,1.358-124.366,1.944-186.549,2.947l-186.549,1.689c-62.183,0.712-124.365,0.54-186.548,0.854l-186.548,0.52
					l-186.549-0.457c-62.183-0.203-124.366-0.133-186.549-0.792l-186.549-1.547c-62.183-0.92-124.366-1.462-186.549-2.729
					c-0.816-0.017-1.464-0.692-1.447-1.508C1060.073,893.354,1060.717,892.719,1061.504,892.701z"/>
				<path style="fill:#FFFFFF;" d="M665.366,1772.888l285.583-2.729l285.583-1.547c95.195-0.658,190.389-0.588,285.583-0.792
					l285.584-0.456l571.166,1.373l285.583,1.69c95.195,1.003,190.389,1.59,285.583,2.947c0.548,0.008,0.986,0.46,0.978,1.007
					c-0.007,0.537-0.443,0.97-0.978,0.977c-95.195,1.358-190.389,1.944-285.583,2.947l-285.583,1.69l-571.166,1.374l-285.584-0.457
					c-95.195-0.204-190.389-0.133-285.583-0.792l-285.583-1.547l-285.583-2.729c-0.816-0.007-1.471-0.675-1.463-1.492
					C663.911,1773.545,664.564,1772.896,665.366,1772.888z"/>
				<path style="fill:#FFFFFF;" d="M756.677,2212.981c87.585-1.267,175.171-1.809,262.756-2.729l262.756-1.547
					c87.585-0.659,175.171-0.588,262.756-0.792l262.756-0.457l525.511,1.374l262.756,1.689c87.585,1.003,175.17,1.589,262.756,2.947
					c0.547,0.009,0.985,0.459,0.976,1.008c-0.008,0.536-0.443,0.967-0.976,0.976c-87.585,1.357-175.17,1.944-262.756,2.947
					l-262.756,1.69l-525.511,1.373l-262.756-0.456c-87.585-0.204-175.17-0.133-262.756-0.792l-262.756-1.547
					c-87.585-0.919-175.17-1.462-262.756-2.729c-0.816-0.013-1.468-0.683-1.456-1.499
					C755.232,2213.636,755.881,2212.994,756.677,2212.981z"/>
				<path style="fill:#FFFFFF;" d="M2591.493,2659.731H1099.101c-2.861,0-5.18-2.317-5.18-5.18c0-2.863,2.32-5.18,5.18-5.18
					h1492.391c2.861,0,5.18,2.317,5.18,5.18C2596.673,2657.413,2594.354,2659.731,2591.493,2659.731z"/>
			</g>
		</g>
		<g>
			<g>
				
					<linearGradient id="SVGID_00000159444783134561907110000013956577353507383426_" gradientUnits="userSpaceOnUse" x1="3455.6335" y1="2602.4133" x2="847.1499" y2="1626.16">
					<stop  offset="0" style="stop-color:#53D8FF"/>
					<stop  offset="1" style="stop-color:#3840F7"/>
				</linearGradient>
				<path style="fill:url(#SVGID_00000159444783134561907110000013956577353507383426_);" d="M1874.069,1872.272
					c-229.657-217.815-618.24-406.229-959.114-406.704l-29.32,357.113c9.135-0.27,18.298-0.422,27.497-0.422
					c283.815,0,559.272,160.05,727.058,362.839c46.479-97.738,142.772-162.035,188.07-261.38L1874.069,1872.272z"/>
				
					<linearGradient id="SVGID_00000013191762140615647000000012766787676562556044_" gradientUnits="userSpaceOnUse" x1="3494.7639" y1="2497.8501" x2="886.2812" y2="1521.5973">
					<stop  offset="0" style="stop-color:#53D8FF"/>
					<stop  offset="1" style="stop-color:#3840F7"/>
				</linearGradient>
				<polygon style="fill:url(#SVGID_00000013191762140615647000000012766787676562556044_);" points="1047.455,1331.62 
					495.66,1599.745 574.125,1658.416 1072.359,1658.416 1095.966,1346.428 				"/>
				<g>
					
						<linearGradient id="SVGID_00000181082735011208951480000002550669067628097711_" gradientUnits="userSpaceOnUse" x1="2047.7383" y1="2315.6106" x2="-334.4882" y2="842.134">
						<stop  offset="0" style="stop-color:#53D8FF"/>
						<stop  offset="1" style="stop-color:#3840F7"/>
					</linearGradient>
					<path style="fill:url(#SVGID_00000181082735011208951480000002550669067628097711_);" d="M1047.455,1331.62l-52.921,697.839
						L452.345,1628.46c-3.657-2.704-3.128-8.327,0.968-10.302L1047.455,1331.62z"/>
					
						<linearGradient id="SVGID_00000119087410808841026820000012671992070651723144_" gradientUnits="userSpaceOnUse" x1="2090.7058" y1="2344.47" x2="-381.3136" y2="815.4537">
						<stop  offset="0" style="stop-color:#53D8FF"/>
						<stop  offset="1" style="stop-color:#3840F7"/>
					</linearGradient>
					<path style="fill:url(#SVGID_00000119087410808841026820000012671992070651723144_);" d="M1607.069,2365.704
						c51.331-116.46,146.635-351.464,228.629-446.825c-233.359-247.955-604.79-431.396-972.108-431.908l-29.32,357.113
						c9.134-0.27,18.298-0.422,27.497-0.422C1161.166,1843.662,1554.853,2057.792,1607.069,2365.704z"/>
				</g>
			</g>
			<g>
				<path style="fill:#FFFFFF;" d="M1763.67,1942.524c-0.908,0-1.808-0.39-2.432-1.144
					c-64.62-78.304-162.25-155.711-282.334-223.854c-1.512-0.86-2.044-2.782-1.185-4.295c0.86-1.512,2.777-2.042,4.295-1.185
					c120.745,68.519,218.979,146.435,284.084,225.323c1.108,1.342,0.916,3.328-0.424,4.436
					C1765.086,1942.288,1764.376,1942.524,1763.67,1942.524z"/>
				<path style="fill:#FFFFFF;" d="M1441.115,1696.381c-0.497,0-1-0.119-1.469-0.367c-73.632-38.951-150.395-72.13-228.156-98.615
					c-1.647-0.56-2.527-2.351-1.966-3.997c0.561-1.648,2.349-2.532,3.997-1.966c78.076,26.592,155.146,59.904,229.07,99.008
					c1.539,0.814,2.126,2.721,1.312,4.257C1443.337,1695.77,1442.246,1696.381,1441.115,1696.381z"/>
				<path style="fill:#FFFFFF;" d="M1166.388,1582.717c-0.304,0-0.611-0.045-0.916-0.137
					c-46.935-14.235-92.525-25.325-135.508-32.964c-1.714-0.305-2.854-1.94-2.551-3.653c0.307-1.714,1.95-2.854,3.653-2.551
					c43.225,7.681,89.062,18.831,136.234,33.139c1.664,0.505,2.605,2.263,2.1,3.929
					C1168.988,1581.84,1167.739,1582.717,1166.388,1582.717z"/>
			</g>
		</g>
		<g>
			<g>
				
					<linearGradient id="SVGID_00000150807720945536345180000014508433018558507152_" gradientUnits="userSpaceOnUse" x1="1950.7762" y1="3857.4875" x2="1890.1223" y2="208.5343">
					<stop  offset="0" style="stop-color:#53D8FF"/>
					<stop  offset="1" style="stop-color:#3840F7"/>
				</linearGradient>
				<polygon style="fill:url(#SVGID_00000150807720945536345180000014508433018558507152_);" points="1899.644,464.86 
					1835.486,458.435 1850.656,489.75 1554.853,1000.507 2085.025,1000.507 2201.192,1034.618 2251.817,1006.355 				"/>
				
					<linearGradient id="SVGID_00000058565789613331221690000006270000886893825952_" gradientUnits="userSpaceOnUse" x1="1957.5951" y1="4302.0752" x2="1886.8704" y2="47.2703">
					<stop  offset="0" style="stop-color:#53D8FF"/>
					<stop  offset="1" style="stop-color:#3840F7"/>
				</linearGradient>
				<path style="fill:url(#SVGID_00000058565789613331221690000006270000886893825952_);" d="M1727.011,954.203v656.893
					c57.881,47.285,65.014,232.743,117.691,290.411c58.468-56.963,169.783-177.307,243.099-220.967V954.203H1727.011z"/>
				<g>
					
						<linearGradient id="SVGID_00000092457511428050937300000003828964948294985092_" gradientUnits="userSpaceOnUse" x1="1824.8619" y1="2138.6797" x2="1911.3922" y2="-1184.1729">
						<stop  offset="0" style="stop-color:#53D8FF"/>
						<stop  offset="1" style="stop-color:#3840F7"/>
					</linearGradient>
					<path style="fill:url(#SVGID_00000092457511428050937300000003828964948294985092_);" d="M1512.766,1035.235h688.425
						l-362.558-576.857c-0.736-1.171-2.454-1.14-3.148,0.057l-328.415,566.92C1504.53,1029.743,1507.696,1035.235,1512.766,1035.235
						z"/>
					
						<linearGradient id="SVGID_00000042726573202341702870000011207640687635622052_" gradientUnits="userSpaceOnUse" x1="1824.1548" y1="2142.717" x2="1910.9819" y2="-1191.5367">
						<stop  offset="0" style="stop-color:#53D8FF"/>
						<stop  offset="1" style="stop-color:#3840F7"/>
					</linearGradient>
					<path style="fill:url(#SVGID_00000042726573202341702870000011207640687635622052_);" d="M1661.413,988.931v775.757
						c65.598,47.285,115.405,114.967,168.082,172.636c58.468-56.963,127.109-173.772,198.495-218.836V988.931H1661.413z"/>
				</g>
			</g>
			<path style="fill:#FFFFFF;" d="M1665.271,1021.022h-115.5c-2.654,0-5.04-1.367-6.382-3.658c-1.342-2.291-1.367-5.042-0.068-7.358
				l280.85-500.623c0.852-1.515,2.767-2.06,4.289-1.205c1.517,0.85,2.057,2.77,1.205,4.289l-280.85,500.623
				c-0.267,0.477-0.109,0.888,0.01,1.091c0.119,0.201,0.4,0.542,0.946,0.542h115.5c1.74,0,3.15,1.41,3.15,3.15
				C1668.421,1019.612,1667.011,1021.022,1665.271,1021.022z"/>
		</g>
		<g>
			
				<linearGradient id="SVGID_00000034083993483364056520000003412126527470804153_" gradientUnits="userSpaceOnUse" x1="452.8527" y1="4439.354" x2="2789.3342" y2="1627.3562">
				<stop  offset="0" style="stop-color:#53D8FF"/>
				<stop  offset="1" style="stop-color:#3840F7"/>
			</linearGradient>
			<path style="fill:url(#SVGID_00000034083993483364056520000003412126527470804153_);" d="M2901.805,1476.886
				c-529.053,0.723-982.044,297.292-1177.919,766.124h-0.005c-0.002,0-0.004,0.129-0.007,0.138
				c-0.178,0.411-0.361,0.875-0.538,1.285l0.239,0.038c-102.79,225.795-41.153,607.985-33.055,999.857l352.349,0.016h15.045
				c16.148,0,28.985-13.552,28.115-29.677c-16.011-297.054-29.798-595.904,12.266-845.449
				c13.311-78.966,47.661-153.105,99.559-214.833c167.784-199.567,421.649-326.788,705.773-326.788c9.199,0,18.363-0.1,27.497,0.165
				L2901.805,1476.886z"/>
			
				<linearGradient id="SVGID_00000114784781640232271430000011443895082666555293_" gradientUnits="userSpaceOnUse" x1="1510.9553" y1="2986.2065" x2="4131.564" y2="342.5638">
				<stop  offset="0" style="stop-color:#53D8FF"/>
				<stop  offset="1" style="stop-color:#3840F7"/>
			</linearGradient>
			<path style="fill:url(#SVGID_00000114784781640232271430000011443895082666555293_);" d="M2826.923,1452.142
				c-0.37-4.515-4.162-8.002-8.691-7.969c-525.602,3.751-975.002,303.521-1169.884,780.459h-0.005c0,0-0.004,0.012-0.007,0.021
				c-0.178,0.418-0.36,0.831-0.538,1.25l0.239,0.009c-101.198,226.433-43.023,607.265-33.469,999.907
				c0.251,10.305,8.649,18.539,18.957,18.539h372.244c4.96,0,8.907-4.173,8.649-9.126c-16.88-324.648-36.315-610.156,7.961-879.984
				c13.442-81.92,48.353-158.939,101.352-222.835c167.795-202.295,421.031-331.156,704.357-331.156
				c6.016,0,12.016-0.019,18.003,0.044c5.094,0.053,9.128-4.282,8.712-9.36L2826.923,1452.142z"/>
			
				<linearGradient id="SVGID_00000093159873893188335200000009128697555371825291_" gradientUnits="userSpaceOnUse" x1="896.0139" y1="4224.9312" x2="3432.5273" y2="902.9973">
				<stop  offset="0" style="stop-color:#53D8FF"/>
				<stop  offset="1" style="stop-color:#3840F7"/>
			</linearGradient>
			<polygon style="fill:url(#SVGID_00000093159873893188335200000009128697555371825291_);" points="3258.742,1654.849 
				3260.105,1653.84 3247.029,1581.626 3245.793,1581.029 3245.56,1579.703 3244.271,1580.295 2710.887,1323.059 2747.677,1808.181 
				2738.38,1812.447 2695.322,1986.655 2750.151,2030.746 2763.791,2020.666 2763.808,2020.898 3258.262,1655.204 
				3258.742,1654.849 			"/>
			
				<linearGradient id="SVGID_00000004515073864726559510000011245195741560464784_" gradientUnits="userSpaceOnUse" x1="1452.8341" y1="2938.5127" x2="4086.6646" y2="281.5318">
				<stop  offset="0" style="stop-color:#53D8FF"/>
				<stop  offset="1" style="stop-color:#3840F7"/>
			</linearGradient>
			<polygon style="fill:url(#SVGID_00000004515073864726559510000011245195741560464784_);" points="2642.401,1288.816 
				2695.322,1986.655 3245.56,1579.703 			"/>
		</g>
		<g>
			<g>
				<g style="opacity:0.3;">
					
						<linearGradient id="SVGID_00000092456199125848116240000017913103770809578626_" gradientUnits="userSpaceOnUse" x1="1080.5527" y1="803.1041" x2="1710.1831" y2="803.1041">
						<stop  offset="0" style="stop-color:#B37CFF"/>
						<stop  offset="1" style="stop-color:#F895E7"/>
					</linearGradient>
					<path style="fill:url(#SVGID_00000092456199125848116240000017913103770809578626_);" d="M1093.838,1051.681
						c-5.579,0-10.372-4.217-10.965-9.887c-1.3-12.401-2.079-25.044-2.318-37.574c-0.116-6.097,4.73-11.133,10.825-11.25
						c0.073,0,0.144,0,0.215,0c5.998,0,10.918,4.803,11.032,10.827c0.226,11.905,0.968,23.914,2.201,35.694
						c0.636,6.062-3.764,11.495-9.829,12.13C1094.61,1051.663,1094.222,1051.681,1093.838,1051.681z M1094.549,955.517
						c-0.431,0-0.869-0.026-1.309-0.077c-6.054-0.716-10.383-6.205-9.667-12.259c1.472-12.435,3.491-24.931,6-37.138
						c1.227-5.972,7.037-9.805,13.035-8.594c5.972,1.229,9.816,7.067,8.589,13.035c-2.384,11.604-4.301,23.474-5.698,35.293
						C1104.835,951.391,1100.066,955.517,1094.549,955.517z M1116.417,861.901c-1.229,0-2.479-0.207-3.704-0.643
						c-5.741-2.048-8.74-8.361-6.695-14.104c4.192-11.772,8.949-23.509,14.141-34.883c2.535-5.545,9.083-7.982,14.626-5.459
						c5.545,2.531,7.99,9.081,5.459,14.626c-4.931,10.801-9.447,21.943-13.429,33.124
						C1125.207,859.081,1120.953,861.901,1116.417,861.901z M1158.678,775.508c-2.031,0-4.086-0.561-5.925-1.733
						c-5.14-3.277-6.649-10.103-3.372-15.242c6.727-10.543,13.988-20.921,21.583-30.848c3.706-4.833,10.631-5.756,15.475-2.057
						c4.84,3.704,5.761,10.633,2.057,15.475c-7.214,9.426-14.113,19.283-20.501,29.304
						C1165.89,773.706,1162.324,775.508,1158.678,775.508z M1219.142,700.71c-2.848,0-5.694-1.096-7.852-3.281
						c-4.286-4.338-4.243-11.327,0.095-15.609c8.874-8.766,18.25-17.277,27.866-25.289c4.68-3.907,11.642-3.277,15.547,1.41
						c3.902,4.683,3.27,11.642-1.412,15.549c-9.141,7.615-18.052,15.704-26.486,24.035
						C1224.747,699.649,1221.944,700.71,1219.142,700.71z M1294.641,641.154c-3.689,0-7.294-1.846-9.385-5.209
						c-3.219-5.179-1.632-11.983,3.544-15.204c10.61-6.597,21.637-12.824,32.773-18.498c5.435-2.768,12.08-0.608,14.848,4.825
						c2.768,5.428,0.608,12.077-4.823,14.846c-10.581,5.394-21.057,11.306-31.139,17.575
						C1298.644,640.619,1296.631,641.154,1294.641,641.154z M1699.135,614.873c-1.529,0-3.078-0.319-4.56-0.992
						c-10.797-4.907-21.954-9.408-33.16-13.376c-5.746-2.035-8.756-8.343-6.72-14.087c2.033-5.748,8.341-8.758,14.089-6.722
						c11.802,4.178,23.554,8.917,34.924,14.083c5.552,2.523,8.005,9.068,5.483,14.617
						C1707.343,612.467,1703.331,614.873,1699.135,614.873z M1381.405,599.837c-4.579,0-8.859-2.872-10.435-7.443
						c-1.988-5.765,1.074-12.047,6.836-14.035c11.813-4.075,23.946-7.684,36.065-10.728c5.918-1.458,11.911,2.1,13.397,8.016
						c1.485,5.912-2.104,11.91-8.018,13.397c-11.509,2.889-23.03,6.317-34.247,10.185
						C1383.811,599.639,1382.597,599.837,1381.405,599.837z M1607.663,585.215c-0.729,0-1.468-0.069-2.21-0.22
						c-11.629-2.367-23.515-4.26-35.325-5.635c-6.056-0.707-10.394-6.188-9.689-12.242c0.707-6.054,6.183-10.422,12.242-9.689
						c12.427,1.449,24.934,3.441,37.17,5.928c5.974,1.216,9.833,7.046,8.618,13.018
						C1617.406,581.607,1612.803,585.215,1607.663,585.215z M1475.223,578.938c-5.571,0-10.359-4.204-10.963-9.866
						c-0.647-6.063,3.743-11.5,9.805-12.151c12.412-1.324,25.048-2.13,37.557-2.389c0.077-0.004,0.157-0.004,0.235-0.004
						c5.989,0,10.905,4.791,11.032,10.806c0.127,6.097-4.709,11.142-10.805,11.267c-11.882,0.25-23.884,1.017-35.677,2.277
						C1476.01,578.916,1475.613,578.938,1475.223,578.938z"/>
					
						<linearGradient id="SVGID_00000047050947240933857220000002502576129551346828_" gradientUnits="userSpaceOnUse" x1="1740.7909" y1="637.2616" x2="1777.5635" y2="637.2616">
						<stop  offset="0" style="stop-color:#B37CFF"/>
						<stop  offset="1" style="stop-color:#F895E7"/>
					</linearGradient>
					<path style="fill:url(#SVGID_00000047050947240933857220000002502576129551346828_);" d="M1766.513,653.192
						c-2.173,0-4.37-0.638-6.291-1.975c-4.672-3.251-9.49-6.455-14.32-9.534c-5.142-3.273-6.657-10.099-3.383-15.238
						c3.273-5.144,10.101-6.666,15.241-3.38c5.082,3.234,10.148,6.606,15.066,10.025c5.004,3.48,6.242,10.362,2.762,15.363
						C1773.442,651.541,1770.006,653.192,1766.513,653.192z"/>
				</g>
				<g style="opacity:0.3;">
					
						<linearGradient id="SVGID_00000065777223148285844510000003063245767946805898_" gradientUnits="userSpaceOnUse" x1="1931.6606" y1="918.2495" x2="1956.8945" y2="918.2495">
						<stop  offset="0" style="stop-color:#B37CFF"/>
						<stop  offset="1" style="stop-color:#F895E7"/>
					</linearGradient>
					<path style="fill:url(#SVGID_00000065777223148285844510000003063245767946805898_);" d="M1945.841,937.976
						c-5.328,0-10.017-3.863-10.888-9.292c-0.899-5.619-1.932-11.314-3.07-16.924c-1.212-5.976,2.65-11.802,8.624-13.013
						c6-1.216,11.802,2.652,13.013,8.624c1.197,5.907,2.285,11.905,3.234,17.821c0.964,6.019-3.135,11.681-9.154,12.646
						C1947.009,937.933,1946.421,937.976,1945.841,937.976z"/>
					
						<linearGradient id="SVGID_00000180362031197858282970000010404150850593355666_" gradientUnits="userSpaceOnUse" x1="1313.7539" y1="1205.2769" x2="1962.2882" y2="1205.2769">
						<stop  offset="0" style="stop-color:#B37CFF"/>
						<stop  offset="1" style="stop-color:#F895E7"/>
					</linearGradient>
					<path style="fill:url(#SVGID_00000180362031197858282970000010404150850593355666_);" d="M1521.817,1436.238
						c-5.079,0-10.178-0.086-15.294-0.259c-6.093-0.207-10.866-5.312-10.661-11.405c0.205-6.093,5.34-10.888,11.403-10.664
						c11.808,0.397,23.605,0.315,35.198-0.254c6.095-0.289,11.267,4.394,11.567,10.482c0.299,6.093-4.396,11.272-10.485,11.569
						C1536.374,1436.061,1529.064,1436.238,1521.817,1436.238z M1448.547,1430.042c-0.616,0-1.244-0.052-1.873-0.16
						c-12.14-2.074-24.328-4.687-36.222-7.766c-5.901-1.526-9.448-7.55-7.921-13.449c1.529-5.903,7.563-9.464,13.453-7.921
						c11.297,2.923,22.875,5.403,34.411,7.378c6.009,1.026,10.047,6.731,9.02,12.737
						C1458.495,1426.243,1453.827,1430.042,1448.547,1430.042z M1601.227,1428.843c-5.204,0-9.838-3.695-10.836-8.995
						c-1.128-5.994,2.816-11.763,8.807-12.893c11.461-2.156,22.985-4.833,34.256-7.964c5.877-1.621,11.959,1.811,13.589,7.684
						c1.63,5.877-1.811,11.961-7.686,13.591c-11.868,3.294-24.007,6.114-36.076,8.387
						C1602.592,1428.782,1601.904,1428.843,1601.227,1428.843z M1357.568,1403.916c-1.401,0-2.824-0.272-4.199-0.837
						c-11.377-4.687-22.692-9.917-33.627-15.544c-5.42-2.79-7.552-9.443-4.762-14.863c2.79-5.424,9.441-7.559,14.865-4.765
						c10.383,5.342,21.126,10.31,31.932,14.76c5.637,2.319,8.324,8.775,6.002,14.41
						C1366.024,1401.337,1361.908,1403.916,1357.568,1403.916z M1691.661,1401.16c-4.269,0-8.335-2.492-10.137-6.662
						c-2.419-5.596,0.157-12.095,5.754-14.514c10.7-4.622,21.352-9.771,31.664-15.298c5.373-2.881,12.065-0.862,14.945,4.515
						c2.878,5.373,0.858,12.06-4.514,14.94c-10.855,5.821-22.071,11.241-33.338,16.11
						C1694.61,1400.867,1693.123,1401.16,1691.661,1401.16z M1773.833,1354.303c-3.413,0-6.778-1.578-8.939-4.549
						c-3.583-4.933-2.49-11.836,2.443-15.419c9.458-6.873,18.738-14.225,27.579-21.849c4.611-3.988,11.58-3.475,15.568,1.147
						c3.982,4.618,3.467,11.586-1.149,15.57c-9.305,8.024-19.069,15.76-29.023,22.991
						C1778.354,1353.617,1776.084,1354.303,1773.833,1354.303z M1843.834,1290.646c-2.596,0-5.2-0.91-7.3-2.764
						c-4.571-4.032-5.006-11.008-0.972-15.579c7.744-8.775,15.201-17.968,22.165-27.333c3.637-4.89,10.547-5.912,15.445-2.268
						c4.89,3.64,5.907,10.551,2.268,15.445c-7.33,9.853-15.178,19.533-23.325,28.765
						C1849.933,1289.383,1846.891,1290.646,1843.834,1290.646z M1898.283,1213.244c-1.798,0-3.62-0.44-5.308-1.367
						c-5.343-2.936-7.292-9.646-4.355-14.988c5.635-10.249,10.894-20.853,15.633-31.52c2.475-5.571,9.006-8.081,14.568-5.61
						c5.573,2.475,8.083,8.999,5.608,14.57c-4.991,11.237-10.529,22.405-16.461,33.193
						C1905.955,1211.178,1902.178,1213.244,1898.283,1213.244z M1934.425,1125.742c-1.011,0-2.04-0.142-3.06-0.436
						c-5.857-1.686-9.24-7.804-7.552-13.66c3.227-11.211,6.02-22.707,8.296-34.176c1.188-5.981,7.016-9.857,12.977-8.676
						c5.98,1.186,9.865,6.998,8.677,12.979c-2.398,12.073-5.336,24.177-8.736,35.978
						C1943.635,1122.59,1939.22,1125.742,1934.425,1125.742z M1950.45,1032.502c-0.226,0-0.455-0.009-0.683-0.022
						c-6.084-0.371-10.717-5.605-10.344-11.689c0.524-8.59,0.789-17.295,0.789-25.885c0-3.109-0.037-6.213-0.103-9.305
						c-0.132-6.097,4.702-11.146,10.797-11.276c6.168-0.254,11.142,4.7,11.276,10.793c0.071,3.256,0.108,6.515,0.108,9.788
						c0,9.033-0.28,18.196-0.832,27.23C1961.1,1027.991,1956.239,1032.502,1950.45,1032.502z"/>
					
						<linearGradient id="SVGID_00000078017207217883462430000011995291790993432967_" gradientUnits="userSpaceOnUse" x1="1249.1084" y1="1341.9784" x2="1285.4119" y2="1341.9784">
						<stop  offset="0" style="stop-color:#B37CFF"/>
						<stop  offset="1" style="stop-color:#F895E7"/>
					</linearGradient>
					<path style="fill:url(#SVGID_00000078017207217883462430000011995291790993432967_);" d="M1274.364,1358.239
						c-2.195,0-4.409-0.651-6.339-2.005c-4.89-3.437-9.799-7.041-14.591-10.715c-4.84-3.708-5.757-10.638-2.048-15.476
						c3.71-4.838,10.633-5.761,15.475-2.048c4.553,3.489,9.217,6.912,13.858,10.176c4.987,3.501,6.19,10.387,2.684,15.376
						C1281.254,1356.605,1277.835,1358.239,1274.364,1358.239z"/>
				</g>
				<g>
					
						<linearGradient id="SVGID_00000152228493239158103080000005941151191844148391_" gradientUnits="userSpaceOnUse" x1="4822.1655" y1="2696.4761" x2="5836.3213" y2="4485.6807" gradientTransform="matrix(-0.4937 0.8696 -0.8696 -0.4937 6622.9307 -1869.9039)">
						<stop  offset="0" style="stop-color:#CB236D"/>
						<stop  offset="1" style="stop-color:#4C246D"/>
					</linearGradient>
					<path style="fill:url(#SVGID_00000152228493239158103080000005941151191844148391_);" d="M1289.259,1230.204
						c1.391,1.705,3.712,2.34,5.777,1.58l58.934-21.672c23.233,17.892,49.486,32.21,78.025,42.019l14.374,61.083
						c0.504,2.143,2.312,3.729,4.502,3.951l74.936,7.591c2.191,0.221,4.279-0.971,5.203-2.968l26.331-56.961
						c29.927-3.887,58.518-12.648,84.866-25.519l53.391,33.051c1.871,1.158,4.271,1.002,5.977-0.39l58.355-47.62
						c1.706-1.393,2.341-3.713,1.58-5.778l-21.672-58.933c17.893-23.232,32.21-49.487,42.019-78.026l61.085-14.374
						c2.142-0.504,3.729-2.312,3.951-4.501l7.591-74.937c0.222-2.19-0.97-4.279-2.968-5.202l-56.961-26.331
						c-3.886-29.927-12.646-58.518-25.518-84.866l33.051-53.392c1.157-1.87,1.001-4.272-0.39-5.976l-47.62-58.354
						c-1.391-1.707-3.712-2.34-5.778-1.581l-58.934,21.673c-23.232-17.894-49.486-32.211-78.025-42.019l-14.374-61.085
						c-0.504-2.142-2.312-3.729-4.501-3.951l-74.937-7.59c-2.19-0.223-4.279,0.97-5.203,2.968l-26.331,56.961
						c-29.927,3.886-58.518,12.647-84.867,25.519l-53.39-33.051c-1.871-1.159-4.273-1.002-5.978,0.389l-58.355,47.62
						c-1.705,1.391-2.34,3.712-1.581,5.778l21.672,58.934c-17.893,23.232-32.21,49.487-42.019,78.025l-61.085,14.374
						c-2.141,0.503-3.729,2.312-3.95,4.502l-7.591,74.935c-0.222,2.19,0.97,4.279,2.967,5.203l56.961,26.331
						c3.887,29.926,12.648,58.517,25.518,84.866l-33.05,53.391c-1.159,1.872-1.002,4.271,0.389,5.977L1289.259,1230.204z"/>
					<path style="opacity:0.56;fill:#FFFFFF;" d="M1521.619,1067.656c-36.906,0-69.311-27.1-74.85-64.674
						c-6.086-41.303,22.562-79.852,63.861-85.94c20.009-2.954,39.967,2.07,56.195,14.13c16.232,12.06,26.797,29.722,29.743,49.729
						c6.087,41.304-22.562,79.852-63.861,85.94C1528.984,1067.389,1525.277,1067.656,1521.619,1067.656z M1521.792,933.884
						c-2.85,0-5.715,0.207-8.587,0.63c-31.664,4.666-53.629,34.228-48.964,65.89c4.667,31.666,34.219,53.644,65.892,48.966
						c31.665-4.665,53.629-34.228,48.964-65.89c-2.262-15.342-10.359-28.881-22.805-38.13
						C1546.176,937.834,1534.169,933.884,1521.792,933.884z"/>
					<path style="opacity:0.56;fill:#FFFFFF;" d="M1523.167,1177.006c-6.338,0-12.714-0.319-19.106-0.966l0,0
						c-2.012-0.203-4.021-0.44-6.026-0.707c-9.885-1.324-19.649-3.432-29.142-6.291c-0.129-0.039-0.259-0.078-0.388-0.116
						c-0.366-0.112-0.733-0.224-1.099-0.341c-0.714-0.22-1.425-0.449-2.134-0.677c-1.867-0.604-3.055-2.333-3.057-4.196
						c0-0.453,0.071-0.914,0.218-1.367c0.751-2.32,3.243-3.583,5.56-2.837c11.937,3.868,24.371,6.473,36.957,7.744
						c62.516,6.343,120.845-20.77,157.171-66.769c20.208-25.583,33.605-57.012,37.125-91.783c0.619-6.097,0.925-12.181,0.923-18.227
						c-0.004-40.687-13.886-79.809-39.958-111.756c-29.946-36.698-72.392-59.539-119.515-64.312
						c-97.324-9.849-184.443,61.276-194.296,158.552c-0.608,5.998-0.91,12.005-0.907,17.994
						c0.005,25.954,5.688,51.618,16.732,75.131c0.285,0.608,0.42,1.246,0.419,1.876c0,1.656-0.938,3.247-2.538,3.997
						c-2.212,1.031-4.838,0.095-5.875-2.121c-11.595-24.686-17.564-51.631-17.569-78.878c-0.002-6.287,0.315-12.591,0.951-18.886
						c10.344-102.132,101.878-176.792,203.972-166.453c49.473,5.011,94.03,28.989,125.468,67.516
						c27.372,33.538,41.944,74.609,41.95,117.322c0,6.347-0.321,12.733-0.968,19.132c-5.013,49.475-28.989,94.034-67.514,125.472
						C1606.973,1162.436,1565.889,1177.006,1523.167,1177.006z"/>
				</g>
			</g>
			<g>
				<g style="opacity:0.3;">
					
						<linearGradient id="SVGID_00000037683111748109582380000011591036835788391858_" gradientUnits="userSpaceOnUse" x1="706.0201" y1="1327.5154" x2="723.967" y2="1327.5154">
						<stop  offset="0" style="stop-color:#B37CFF"/>
						<stop  offset="1" style="stop-color:#F895E7"/>
					</linearGradient>
					<path style="fill:url(#SVGID_00000037683111748109582380000011591036835788391858_);" d="M717.144,1342.579
						c-2.949,0-5.666-1.924-6.538-4.9c-1.631-5.553-3.116-11.232-4.411-16.878c-0.842-3.669,1.448-7.324,5.12-8.17
						c3.672-0.858,7.327,1.452,8.17,5.12c1.235,5.38,2.649,10.793,4.205,16.093c1.062,3.609-1.009,7.397-4.621,8.462
						C718.425,1342.492,717.78,1342.579,717.144,1342.579z"/>
					
						<linearGradient id="SVGID_00000042711550602180558960000016638863923524574889_" gradientUnits="userSpaceOnUse" x1="698.7541" y1="1125.8969" x2="1050.4933" y2="1125.8969">
						<stop  offset="0" style="stop-color:#B37CFF"/>
						<stop  offset="1" style="stop-color:#F895E7"/>
					</linearGradient>
					<path style="fill:url(#SVGID_00000042711550602180558960000016638863923524574889_);" d="M707.053,1291.113
						c-3.455,0-6.418-2.617-6.774-6.125c-1.013-9.914-1.525-19.995-1.525-29.955c0-2.097,0.024-4.201,0.067-6.312
						c0.083-3.768,3.399-6.611,6.961-6.678c3.765,0.08,6.751,3.196,6.675,6.958c-0.043,2.017-0.067,4.029-0.067,6.032
						c0,9.501,0.49,19.115,1.451,28.569c0.383,3.749-2.343,7.091-6.088,7.477C707.516,1291.099,707.283,1291.113,707.053,1291.113z
						 M708.551,1220.338c-0.322,0-0.652-0.02-0.978-0.066c-3.729-0.539-6.315-3.995-5.779-7.723
						c1.718-11.958,4.195-23.916,7.36-35.534c0.989-3.635,4.754-5.766,8.37-4.787c3.635,0.992,5.775,4.734,4.787,8.369
						c-3.02,11.086-5.38,22.491-7.021,33.896C714.8,1217.888,711.887,1220.338,708.551,1220.338z M727.167,1152.041
						c-0.865,0-1.744-0.167-2.594-0.513c-3.482-1.432-5.14-5.42-3.708-8.902c4.594-11.153,9.933-22.145,15.879-32.657
						c1.855-3.283,6.002-4.434,9.291-2.577c3.276,1.851,4.431,6.013,2.58,9.288c-5.669,10.027-10.763,20.5-15.14,31.14
						C732.39,1150.449,729.847,1152.041,727.167,1152.041z M762.006,1090.407c-1.412,0-2.833-0.439-4.055-1.338
						c-3.023-2.244-3.659-6.518-1.415-9.541c7.201-9.707,15.064-19.048,23.38-27.77c2.6-2.723,6.918-2.817,9.638-0.226
						c2.726,2.596,2.829,6.91,0.23,9.64c-7.926,8.309-15.43,17.224-22.294,26.479
						C766.15,1089.455,764.093,1090.407,762.006,1090.407z M810.839,1039.153c-1.971,0-3.928-0.852-5.277-2.497
						c-2.386-2.909-1.96-7.204,0.949-9.594c9.335-7.65,19.228-14.801,29.409-21.246c3.183-2.024,7.394-1.072,9.408,2.111
						c2.014,3.183,1.068,7.397-2.111,9.407c-9.714,6.152-19.152,12.97-28.057,20.274
						C813.891,1038.648,812.36,1039.153,810.839,1039.153z M870.624,1001.31c-2.553,0-5.004-1.445-6.169-3.909
						c-1.608-3.402-0.149-7.463,3.253-9.075c10.913-5.154,22.251-9.674,33.696-13.43c3.592-1.165,7.43,0.779,8.605,4.355
						c1.175,3.575-0.776,7.43-4.351,8.602c-10.916,3.582-21.722,7.89-32.125,12.803C872.592,1001.103,871.6,1001.31,870.624,1001.31
						z M937.83,979.238c-3.195,0-6.049-2.257-6.684-5.506c-0.723-3.695,1.687-7.277,5.383-8.003
						c11.805-2.311,23.909-3.908,35.98-4.754c3.768-0.2,7.018,2.577,7.277,6.332c0.263,3.755-2.57,7.011-6.325,7.277
						c-11.515,0.799-23.06,2.324-34.315,4.528C938.702,979.198,938.263,979.238,937.83,979.238z M1043.682,978.373
						c-0.393,0-0.796-0.034-1.199-0.106c-9.787-1.738-19.841-2.97-29.885-3.662c-1.521-0.113-3.016-0.207-4.507-0.28
						c-3.762-0.2-6.651-3.402-6.455-7.163c0.19-3.769,3.426-6.765,7.161-6.458c1.591,0.087,3.179,0.18,4.774,0.299
						c10.493,0.726,21.033,2.017,31.296,3.842c3.709,0.659,6.179,4.195,5.52,7.903
						C1049.801,976.049,1046.928,978.373,1043.682,978.373z"/>
				</g>
				<g style="opacity:0.3;">
					
						<linearGradient id="SVGID_00000153696101759626258890000008210033468121684670_" gradientUnits="userSpaceOnUse" x1="855.7322" y1="1463.0887" x2="1257.1895" y2="1463.0887">
						<stop  offset="0" style="stop-color:#B37CFF"/>
						<stop  offset="1" style="stop-color:#F895E7"/>
					</linearGradient>
					<path style="fill:url(#SVGID_00000153696101759626258890000008210033468121684670_);" d="M997.232,1549.197
						c-3.722,0-6.765-2.996-6.814-6.731c-0.05-3.762,2.963-6.858,6.728-6.904c11.335-0.147,22.757-0.986,33.949-2.497
						c3.712-0.466,7.167,2.11,7.67,5.846c0.503,3.735-2.117,7.164-5.846,7.67c-11.738,1.578-23.712,2.463-35.594,2.617
						C997.296,1549.197,997.263,1549.197,997.232,1549.197z M962.391,1547.553c-0.247,0-0.49-0.014-0.739-0.04
						c-11.802-1.265-23.646-3.262-35.204-5.932c-3.669-0.852-5.955-4.507-5.107-8.176c0.845-3.676,4.527-5.946,8.176-5.113
						c11.029,2.55,22.331,4.454,33.593,5.666c3.742,0.399,6.452,3.762,6.049,7.504
						C968.783,1544.963,965.827,1547.553,962.391,1547.553z M1066.22,1539.876c-3.023,0-5.786-2.024-6.592-5.087
						c-0.956-3.635,1.218-7.364,4.86-8.322c10.969-2.889,21.852-6.465,32.351-10.64c3.512-1.378,7.464,0.32,8.852,3.822
						c1.391,3.495-0.319,7.463-3.818,8.855c-11.006,4.374-22.418,8.123-33.916,11.146
						C1067.375,1539.803,1066.792,1539.876,1066.22,1539.876z M894.536,1531.826c-0.775,0-1.564-0.133-2.336-0.412
						c-11.159-4.068-22.178-8.869-32.748-14.268c-3.355-1.711-4.684-5.819-2.973-9.175c1.711-3.342,5.819-4.674,9.171-2.969
						c10.08,5.146,20.584,9.72,31.223,13.602c3.536,1.291,5.359,5.206,4.068,8.742
						C899.932,1530.109,897.319,1531.826,894.536,1531.826z M1130.902,1514.156c-2.414,0-4.754-1.285-5.989-3.549
						c-1.808-3.309-0.59-7.45,2.713-9.255c9.931-5.419,19.631-11.505,28.836-18.096c3.066-2.197,7.324-1.485,9.514,1.578
						c2.191,3.063,1.485,7.324-1.578,9.514c-9.654,6.904-19.824,13.289-30.234,18.975
						C1133.126,1513.89,1132.004,1514.156,1130.902,1514.156z M1187.529,1473.669c-1.848,0-3.686-0.746-5.03-2.211
						c-2.544-2.776-2.357-7.09,0.419-9.634c8.362-7.664,16.332-15.9,23.686-24.475c2.454-2.863,6.761-3.189,9.614-0.739
						c2.859,2.45,3.189,6.751,0.739,9.608c-7.71,8.995-16.063,17.63-24.825,25.66
						C1190.824,1473.076,1189.173,1473.669,1187.529,1473.669z M1232.83,1420.777c-1.298,0-2.61-0.366-3.772-1.145
						c-3.136-2.084-3.985-6.319-1.898-9.454c6.289-9.434,12.048-19.342,17.118-29.442c1.691-3.356,5.789-4.721,9.151-3.029
						c3.365,1.691,4.723,5.786,3.033,9.154c-5.32,10.587-11.358,20.98-17.95,30.88
						C1237.197,1419.712,1235.033,1420.777,1232.83,1420.777z"/>
					
						<linearGradient id="SVGID_00000174594749624476343610000011382754978841157763_" gradientUnits="userSpaceOnUse" x1="811.6" y1="1488.2021" x2="839.056" y2="1488.2021">
						<stop  offset="0" style="stop-color:#B37CFF"/>
						<stop  offset="1" style="stop-color:#F895E7"/>
					</linearGradient>
					<path style="fill:url(#SVGID_00000174594749624476343610000011382754978841157763_);" d="M832.231,1499.994
						c-1.315,0-2.643-0.38-3.815-1.172c-4.834-3.269-9.591-6.698-14.145-10.187c-2.986-2.291-3.556-6.572-1.265-9.561
						c2.294-2.976,6.568-3.549,9.561-1.265c4.341,3.329,8.881,6.598,13.492,9.721c3.119,2.11,3.935,6.352,1.825,9.467
						C836.565,1498.942,834.418,1499.994,832.231,1499.994z"/>
				</g>
				<g>
					
						<linearGradient id="SVGID_00000099640698403410667450000011454975903088446351_" gradientUnits="userSpaceOnUse" x1="1244.1351" y1="833.911" x2="868.9955" y2="1460.2028">
						<stop  offset="0" style="stop-color:#CB236D"/>
						<stop  offset="0.0721" style="stop-color:#C2236D"/>
						<stop  offset="1" style="stop-color:#4C246D"/>
					</linearGradient>
					<path style="fill:url(#SVGID_00000099640698403410667450000011454975903088446351_);" d="M837.899,1411.919
						c0.931,1.141,2.484,1.566,3.866,1.057l39.436-14.502c15.546,11.973,33.113,21.554,52.211,28.117l9.619,40.874
						c0.337,1.434,1.547,2.495,3.012,2.644l50.143,5.08c1.466,0.148,2.864-0.65,3.482-1.986l17.619-38.116
						c20.026-2.601,39.157-8.463,56.789-17.076l35.727,22.116c1.253,0.774,2.859,0.67,4-0.261l39.048-31.865
						c1.141-0.932,1.566-2.484,1.057-3.866l-14.502-39.435c11.973-15.546,21.554-33.114,28.117-52.211l40.875-9.618
						c1.434-0.338,2.495-1.547,2.644-3.012l5.079-50.144c0.149-1.466-0.649-2.864-1.986-3.481l-38.116-17.62
						c-2.6-20.026-8.463-39.157-17.076-56.788l22.116-35.728c0.774-1.252,0.67-2.858-0.26-3.999l-31.866-39.049
						c-0.931-1.141-2.484-1.565-3.866-1.057l-39.436,14.503c-15.545-11.974-33.113-21.554-52.211-28.117l-9.618-40.875
						c-0.338-1.433-1.546-2.495-3.012-2.644l-50.144-5.079c-1.465-0.149-2.863,0.649-3.481,1.986l-17.619,38.115
						c-20.026,2.6-39.158,8.463-56.789,17.076l-35.726-22.116c-1.252-0.776-2.859-0.671-4,0.26l-39.048,31.865
						c-1.141,0.931-1.566,2.484-1.057,3.866l14.501,39.436c-11.973,15.546-21.553,33.114-28.117,52.211l-40.875,9.618
						c-1.432,0.337-2.495,1.547-2.643,3.013l-5.08,50.143c-0.148,1.466,0.649,2.864,1.986,3.482l38.116,17.62
						c2.601,20.025,8.463,39.157,17.075,56.788l-22.116,35.727c-0.775,1.252-0.67,2.858,0.26,4L837.899,1411.919z"/>
					<path style="opacity:0.56;fill:#FFFFFF;" d="M993.307,1304.062c-10.998,0-21.665-3.508-30.653-10.186
						c-11.056-8.216-18.25-20.247-20.257-33.876c-4.148-28.123,15.363-54.383,43.496-58.537
						c28.177-4.102,54.396,15.373,58.541,43.503c2.01,13.629-1.409,27.225-9.625,38.277c-8.215,11.059-20.247,18.256-33.879,20.26
						C998.385,1303.876,995.835,1304.062,993.307,1304.062z M993.438,1214.545c-1.835,0-3.688,0.134-5.556,0.406
						c-20.693,3.056-35.044,22.37-31.995,43.064c1.478,10.02,6.768,18.876,14.9,24.914c8.136,6.045,18.133,8.549,28.16,7.084l0,0
						c10.023-1.478,18.876-6.771,24.918-14.901c6.045-8.136,8.559-18.136,7.081-28.164
						C1028.172,1228.128,1011.93,1214.545,993.438,1214.545z"/>
					<path style="opacity:0.56;fill:#FFFFFF;" d="M994.286,1380.177c-4.314,0-8.662-0.22-13.043-0.659
						c-8.699-0.879-17.317-2.643-25.636-5.253c-0.373-0.12-0.746-0.24-1.119-0.36c-2.883-0.932-4.717-3.602-4.721-6.478
						c0-0.699,0.11-1.411,0.336-2.11c1.159-3.582,5.007-5.527,8.586-4.381c7.744,2.51,15.793,4.194,23.922,5.014h0.003
						c0.446,0.046,0.895,0.086,1.338,0.126c19.258,1.764,38.227-1.338,55.528-8.795c9.391-4.048,18.293-9.388,26.479-15.946
						c0.067-0.053,0.133-0.106,0.2-0.16c0.203-0.167,0.406-0.327,0.606-0.493c23.755-19.388,38.543-46.865,41.632-77.372
						c0.403-3.948,0.599-7.883,0.599-11.798c-0.003-26.339-8.992-51.666-25.869-72.353c-19.389-23.756-46.866-38.537-77.37-41.626
						c-30.487-3.076-60.391,5.886-84.151,25.267c-23.755,19.388-38.543,46.866-41.632,77.373c-0.396,3.881-0.589,7.77-0.589,11.645
						c0.003,16.805,3.682,33.417,10.832,48.637c0.44,0.939,0.65,1.924,0.646,2.896c0,2.557-1.448,5.014-3.918,6.172
						c-3.412,1.591-7.468,0.14-9.072-3.276c-7.999-17.031-12.117-35.62-12.124-54.416c0-4.341,0.216-8.689,0.656-13.03
						c3.459-34.135,20.001-64.875,46.583-86.567c26.579-21.685,59.995-31.753,94.141-28.27
						c34.132,3.455,64.872,19.994,86.561,46.579c18.885,23.137,28.939,51.473,28.942,80.942c0,4.374-0.219,8.782-0.666,13.196
						C1115.269,1330.761,1059.328,1380.177,994.286,1380.177z"/>
				</g>
			</g>
		</g>
		<g>
			
				<linearGradient id="SVGID_00000104691200579429201740000017090524402679270532_" gradientUnits="userSpaceOnUse" x1="1400.2377" y1="2513.8008" x2="1283.0332" y2="3214.7737">
				<stop  offset="0" style="stop-color:#53D8FF"/>
				<stop  offset="1" style="stop-color:#3840F7"/>
			</linearGradient>
			<path style="fill:url(#SVGID_00000104691200579429201740000017090524402679270532_);" d="M1371.94,3182.417
				c-30.732,2.656-84.068,6.972-126.116,8.822c-25.276,1.113-39.828-1.363-48.208-4.718c0.014,0.945,0.041,1.838,0.078,2.667
				c0.199,4.424,3.794,7.964,8.263,8.214c79.452,4.435,142.64,1.535,165.135,0.166c4.651-0.284,7.424-5.338,5.045-9.304
				C1374.947,3186.281,1373.505,3184.338,1371.94,3182.417z"/>
			
				<linearGradient id="SVGID_00000005972406624428186670000013536822535856254385_" gradientUnits="userSpaceOnUse" x1="1197.6055" y1="3155.9358" x2="1371.9402" y2="3155.9358">
				<stop  offset="0" style="stop-color:#2B3582"/>
				<stop  offset="1" style="stop-color:#150E42"/>
			</linearGradient>
			<path style="fill:url(#SVGID_00000005972406624428186670000013536822535856254385_);" d="M1245.824,3191.24
				c42.048-1.851,95.385-6.166,126.116-8.822c-30.214-37.07-126.116-62.055-126.116-62.055h-27.085
				c-18.629,26.854-21.327,52.42-21.123,66.159C1205.996,3189.877,1220.548,3192.352,1245.824,3191.24z"/>
			
				<linearGradient id="SVGID_00000084495626499932647700000002663158391825107644_" gradientUnits="userSpaceOnUse" x1="1214.1777" y1="3106.8503" x2="1264.7081" y2="3106.8503">
				<stop  offset="0" style="stop-color:#F9B776"/>
				<stop  offset="1" style="stop-color:#F47960"/>
			</linearGradient>
			<path style="fill:url(#SVGID_00000084495626499932647700000002663158391825107644_);" d="M1214.178,3076.144l2.535,50.158
				c0.275,5.431,4.34,9.996,9.78,10.773c5.412,0.774,12.66,0.873,20.347-1.686c4.728-1.574,8.239-5.558,9.111-10.418l8.758-48.827
				H1214.178z"/>
			<g>
				
					<linearGradient id="SVGID_00000142161131028061546980000010536185977849690526_" gradientUnits="userSpaceOnUse" x1="1041.5267" y1="2453.825" x2="924.3225" y2="3154.7959">
					<stop  offset="0" style="stop-color:#53D8FF"/>
					<stop  offset="1" style="stop-color:#3840F7"/>
				</linearGradient>
				<path style="fill:url(#SVGID_00000142161131028061546980000010536185977849690526_);" d="M899.814,3240.279
					c-13.327-2.402-19.357-11.35-21.885-20.916c-0.017,0.086-0.033,0.172-0.05,0.257c-1.96,10.091,2.585,20.548,11.672,25.522
					c10.984,6.011,22.993,7.036,32.316,6.539c10.003-0.533,19.184-5.883,24.231-14.444l0.076-0.129
					C936.133,3243.529,922.039,3244.285,899.814,3240.279z"/>
				
					<linearGradient id="SVGID_00000098217541598136552040000017904217547776631449_" gradientUnits="userSpaceOnUse" x1="877.9283" y1="3167.1672" x2="978.8329" y2="3167.1672">
					<stop  offset="0" style="stop-color:#2B3582"/>
					<stop  offset="1" style="stop-color:#150E42"/>
				</linearGradient>
				<path style="fill:url(#SVGID_00000098217541598136552040000017904217547776631449_);" d="M962.648,3091.598h-22.337
					c-34.024-0.898-55.39,91.848-62.383,127.765c2.528,9.566,8.558,18.513,21.885,20.916c22.225,4.006,36.319,3.25,46.36-3.17
					c18.381-31.262,27.494-77.048,31.875-103.769C983.031,3102.95,962.648,3091.598,962.648,3091.598z"/>
			</g>
			
				<linearGradient id="SVGID_00000157271740244825722340000009605944723968095916_" gradientUnits="userSpaceOnUse" x1="930.3769" y1="3080.5007" x2="990.766" y2="3080.5007">
				<stop  offset="0" style="stop-color:#F9B776"/>
				<stop  offset="1" style="stop-color:#F47960"/>
			</linearGradient>
			<path style="fill:url(#SVGID_00000157271740244825722340000009605944723968095916_);" d="M943.183,3045.042l-12.404,49.332
				c-1.521,6.049,1.374,12.305,6.966,15.175c6.939,3.561,16.708,7.302,25.686,6.219c4.222-0.509,7.73-3.483,9.125-7.459
				l18.21-51.903L943.183,3045.042z"/>
			
				<linearGradient id="SVGID_00000076590115534971454880000002686758024344011437_" gradientUnits="userSpaceOnUse" x1="1418.8383" y1="2428.8264" x2="903.253" y2="3273.4045">
				<stop  offset="0" style="stop-color:#2B3582"/>
				<stop  offset="1" style="stop-color:#150E42"/>
			</linearGradient>
			<path style="fill:url(#SVGID_00000076590115534971454880000002686758024344011437_);" d="M1379.506,2395.305
				c0,0-110.843,692.864-109.017,696.672c0,0-30.614,13.914-63.988,1.773c0,0,10.023-370.385,33.51-512.4
				c0,0-189.172,331.052-249.245,496.008c0,0-31.332-3.736-57.268-20.805c0,0,203.685-595.878,258.026-675.246L1379.506,2395.305z"
				/>
			
				<linearGradient id="SVGID_00000030452647607437207750000016748924147297936769_" gradientUnits="userSpaceOnUse" x1="1750.8993" y1="2173.854" x2="1241.5118" y2="2559.2754">
				<stop  offset="0" style="stop-color:#53D8FF"/>
				<stop  offset="1" style="stop-color:#3840F7"/>
			</linearGradient>
			<path style="fill:url(#SVGID_00000030452647607437207750000016748924147297936769_);" d="M1244.437,2577.743
				c-0.594,0-1.195-0.159-1.733-0.498c-1.534-0.961-1.997-2.98-1.039-4.511l41.422-66.162c0.479-0.762,1.248-1.297,2.128-1.475
				l30.483-6.135c1.783-0.352,3.5,0.797,3.858,2.564c0.355,1.773-0.793,3.5-2.564,3.858l-29.102,5.855l-40.675,64.967
				C1246.593,2577.199,1245.526,2577.743,1244.437,2577.743z"/>
			
				<linearGradient id="SVGID_00000117678289730665529700000008965458993802770058_" gradientUnits="userSpaceOnUse" x1="1761.0012" y1="1808.4688" x2="1521.8267" y2="2119.6282">
				<stop  offset="0" style="stop-color:#F9B776"/>
				<stop  offset="1" style="stop-color:#F47960"/>
			</linearGradient>
			<path style="fill:url(#SVGID_00000117678289730665529700000008965458993802770058_);" d="M1888.16,1716.841
				c0,0-74.795,16.496-120.287,37.501c-9.035,4.172-16.242,11.466-20.347,20.456c-13.606,29.804-54.312,104.541-133.256,140.207
				c11.368,15.09,29.674,46.477,37.648,99.233c47.415-35.29,88.348-94.226,108-190.882c0,0,14.965,8.135,33.633-0.931
				c9.863-4.79,21.251-11.585,29.8-16.928c8.518-5.324,14.862-13.601,17.326-23.267c3.254-12.764,1.337-23.988,1.337-36.029
				l38.446-11.911C1880.46,1734.289,1892.017,1729.927,1888.16,1716.841z"/>
			
				<linearGradient id="SVGID_00000168817101438516979160000010912518168917120398_" gradientUnits="userSpaceOnUse" x1="1477.271" y1="1881.3574" x2="678.7573" y2="2827.7441">
				<stop  offset="0" style="stop-color:#CB236D"/>
				<stop  offset="1" style="stop-color:#4C246D"/>
			</linearGradient>
			<path style="fill:url(#SVGID_00000168817101438516979160000010912518168917120398_);" d="M1651.918,2014.238
				c-7.974-52.756-26.28-84.143-37.648-99.233c-49.042,22.157-112.834,29.24-194.069,1.091c-7.488-2.594-15.299-4.114-23.219-4.579
				c-43.245-2.536-185.752-7.162-303.672,31.797c-24.817,8.199-44.918,26.545-55.277,50.318
				c-31.899,73.203-83.543,239.914,59.826,324.079c11.015-27.347,23.729-49.329,34.6-65.479
				c-23.089-38.944-29.927-92.135,11.045-161.4c29.875,80.669,43.891,198.376,46.819,250.467
				c0.964,17.151-2.044,34.268-8.774,50.103l-0.734,1.727c-1.44,3.388,0.542,7.282,4.164,8.096
				c80.711,18.13,164.657,13.204,189.737,11.133c4.477-0.37,8.197-3.573,9.224-7.901c39.247-165.373,39.337-278.18,29.728-349.49
				C1450.381,2063.172,1562.648,2080.679,1651.918,2014.238z"/>
			
				<linearGradient id="SVGID_00000160891365091711550880000003432577752166014883_" gradientUnits="userSpaceOnUse" x1="1866.5697" y1="1443.5349" x2="1141.4042" y2="2315.7615">
				<stop  offset="0" style="stop-color:#CB236D"/>
				<stop  offset="1" style="stop-color:#4C246D"/>
			</linearGradient>
			<path style="fill:url(#SVGID_00000160891365091711550880000003432577752166014883_);" d="M1413.827,2059.41
				c-1.618,0-3.024-1.198-3.242-2.844c-9.219-69.628-27.988-100.015-28.175-100.313c-0.964-1.528-0.51-3.55,1.017-4.517
				c1.521-0.958,3.544-0.513,4.511,1.011c0.803,1.26,19.703,31.687,29.136,102.961c0.236,1.792-1.024,3.438-2.816,3.674
				C1414.114,2059.401,1413.97,2059.41,1413.827,2059.41z"/>
			
				<linearGradient id="SVGID_00000072245291394383544400000012461229132335599240_" gradientUnits="userSpaceOnUse" x1="1227.8867" y1="2009.5756" x2="1254.0527" y2="1872.2039">
				<stop  offset="0" style="stop-color:#F9B776"/>
				<stop  offset="1" style="stop-color:#F47960"/>
			</linearGradient>
			<path style="fill:url(#SVGID_00000072245291394383544400000012461229132335599240_);" d="M1214.646,1815.181
				c0,0-8.165,86.331-15.354,111.868c-1.091,3.874,0.592,7.959,4.112,9.971c12.201,6.972,41.466,18.343,81.495-1.275
				c6.485-3.178,10.384-9.938,10.081-17.092l-3.527-83.424L1214.646,1815.181z"/>
			<g>
				
					<linearGradient id="SVGID_00000016064100371429491230000013407698211130228100_" gradientUnits="userSpaceOnUse" x1="1298.6882" y1="1757.5419" x2="1149.3948" y2="1871.7742">
					<stop  offset="0" style="stop-color:#F9B776"/>
					<stop  offset="1" style="stop-color:#F47960"/>
				</linearGradient>
				<path style="fill:url(#SVGID_00000016064100371429491230000013407698211130228100_);" d="M1293.214,1704.736
					c0,0,26.115,59.991,27.869,91.479c1.754,31.488,8.539,51.919-27.869,58.26c-36.408,6.341-67.078-11.796-83.694-43.161
					c0,0-26.034-48.33-20.194-68.123S1293.214,1704.736,1293.214,1704.736z"/>
				
					<linearGradient id="SVGID_00000120558716248597585850000014681543069063231887_" gradientUnits="userSpaceOnUse" x1="1193.5923" y1="1667.095" x2="1332.6356" y2="1846.1129">
					<stop  offset="0" style="stop-color:#2B3582"/>
					<stop  offset="1" style="stop-color:#150E42"/>
				</linearGradient>
				<path style="fill:url(#SVGID_00000120558716248597585850000014681543069063231887_);" d="M1221.961,1788.762l2.073-0.914
					c2.639-1.163,3.767-4.304,2.442-6.865c-5.134-9.92-15.143-32.651-2.213-37.954c16.663-6.834,82.667-20.294,96.908-43.714
					c13.687-22.509,1.56-51.565-16.666-59.829c-1.22-0.553-2.658-0.114-3.283,1.07l-1.519,2.874
					c-1.04,1.967-3.945,1.669-4.564-0.468c-0.594-2.052-3.323-2.45-4.455-0.638c-4.378,7.007-16.195,18.366-47.8,24.199
					c-44.915,8.29-74.611,26.466-75.35,57.503c-0.047,1.972-2.145,3.068-3.829,2.042c-3.316-2.021-8.624-2.969-15.716,2.995
					c-12.335,10.372-7.287,37.278,19.754,59.409c1.284,1.051,1.274,3.057-0.117,3.962c-4.902,3.191-12.21,10.784,6.725,20.906
					c19.586,10.47,34.212,9.611,39.843,8.681c1.401-0.231,2.304-1.588,1.998-2.974l-6.011-27.279
					c-0.34-1.544,0.835-3.006,2.416-3.006H1221.961z"/>
				
					<linearGradient id="SVGID_00000054250592177079250120000016034233281993118884_" gradientUnits="userSpaceOnUse" x1="1280.1703" y1="1733.3398" x2="1130.8766" y2="1847.5723">
					<stop  offset="0" style="stop-color:#F9B776"/>
					<stop  offset="1" style="stop-color:#F47960"/>
				</linearGradient>
				<path style="fill:url(#SVGID_00000054250592177079250120000016034233281993118884_);" d="M1223.092,1794.519
					c0,0-9.963-38.322-27.144-27.577c-17.181,10.745,8.916,42.938,22.729,44.372L1223.092,1794.519z"/>
			</g>
			<path style="fill:#F8A570;" d="M1779.865,1814.441c-0.725,0-1.456-0.24-2.063-0.734c-1.403-1.139-1.615-3.201-0.473-4.604
				c2.828-3.481,27.929-34.17,37.599-39.63c3.519-1.988,5.616-4.041,6.061-5.936c0.215-0.905,0.072-1.923-0.439-3.08l-29.491,5.911
				l-16.71,14.336c-1.366,1.179-3.438,1.024-4.614-0.352c-1.179-1.372-1.021-3.438,0.351-4.617l17.357-14.896
				c0.426-0.364,0.937-0.613,1.487-0.725l32.649-6.543c1.31-0.264,2.623,0.286,3.36,1.381c2.392,3.55,3.186,6.851,2.421,10.086
				c-0.902,3.824-3.914,7.14-9.212,10.133c-7.274,4.11-28.265,28.869-35.741,38.062
				C1781.763,1814.03,1780.817,1814.441,1779.865,1814.441z"/>
			
				<linearGradient id="SVGID_00000142164005224675100610000013887666550142137231_" gradientUnits="userSpaceOnUse" x1="1367.7008" y1="2107.1641" x2="1263.2068" y2="2263.905">
				<stop  offset="0" style="stop-color:#F9B776"/>
				<stop  offset="1" style="stop-color:#F47960"/>
			</linearGradient>
			<path style="fill:url(#SVGID_00000142164005224675100610000013887666550142137231_);" d="M1221.824,2359.2l115.435,1.428
				l-40.401-38.029c-10.042-9.452-25.369-10.983-36.961-3.465c-6.787,4.402-14.147,10.378-20.524,18.29
				c0,0-72.008-26.316-106.915-85.194c-10.871,16.15-23.585,38.132-34.6,65.479C1129.151,2336.08,1169.716,2350.526,1221.824,2359.2
				z"/>
			<g>
				
					<linearGradient id="SVGID_00000060017298786303110980000015087763343581368707_" gradientUnits="userSpaceOnUse" x1="-3677.5579" y1="2172.3469" x2="-3913.6248" y2="2237.0469" gradientTransform="matrix(-0.9988 -0.0494 -0.0494 0.9988 -2381.2668 -55.0328)">
					<stop  offset="0" style="stop-color:#2B3582"/>
					<stop  offset="1" style="stop-color:#150E42"/>
				</linearGradient>
				<path style="fill:url(#SVGID_00000060017298786303110980000015087763343581368707_);" d="M1234.261,2374.088
					c0.224,0.011,0.448,0.017,0.674,0.015l293.019-0.316c7.244-0.006,13.109-5.823,13.102-12.99
					c-0.007-7.17-5.907-13.092-13.131-12.964l-293.019,0.316c-7.244,0.006-13.109,5.822-13.102,12.99
					C1221.813,2368.083,1227.331,2373.749,1234.261,2374.088z"/>
				
					<linearGradient id="SVGID_00000079461410791016603610000016561176186783173765_" gradientUnits="userSpaceOnUse" x1="-3927.4287" y1="2145.7405" x2="-4093.9441" y2="2321.7371" gradientTransform="matrix(-1 0 0 1 -2422.7358 0)">
					<stop  offset="0" style="stop-color:#2B3582"/>
					<stop  offset="1" style="stop-color:#150E42"/>
				</linearGradient>
				<path style="fill:url(#SVGID_00000079461410791016603610000016561176186783173765_);" d="M1791.366,2110.855h-244.028
					c-18.002,0-34.387,10.279-42.066,26.389l-112.814,236.689h303.262c11.601,0,22.024-7.013,26.288-17.688l87.482-219.021
					C1814.544,2124.569,1805.118,2110.855,1791.366,2110.855z"/>
				
					<linearGradient id="SVGID_00000101797409425477203770000007300012831706474383_" gradientUnits="userSpaceOnUse" x1="-4028.4001" y1="2189.7292" x2="-4103.6699" y2="2303.0774" gradientTransform="matrix(-1 0 0 1 -2422.7358 0)">
					<stop  offset="0" style="stop-color:#53D8FF"/>
					<stop  offset="1" style="stop-color:#3840F7"/>
				</linearGradient>
				<path style="fill:url(#SVGID_00000101797409425477203770000007300012831706474383_);" d="M1619.445,2232.212
					c-5.288,16.256-1.381,32.043,8.726,35.262c10.107,3.219,22.588-7.35,27.876-23.606c5.288-16.256,1.382-32.043-8.726-35.262
					C1637.214,2205.388,1624.733,2215.957,1619.445,2232.212z"/>
			</g>
		</g>
		<g>
			
				<linearGradient id="SVGID_00000031916825758517034300000011418550736635479728_" gradientUnits="userSpaceOnUse" x1="2447.2646" y1="3724.7454" x2="2435.0413" y2="2596.0989">
				<stop  offset="0" style="stop-color:#CB236D"/>
				<stop  offset="1" style="stop-color:#4C246D"/>
			</linearGradient>
			<path style="fill:url(#SVGID_00000031916825758517034300000011418550736635479728_);" d="M1968.848,2844.734l9.931,308.868
				c1.732,53.858,45.931,96.718,100.069,97.037l739.637,4.36c36.183,0.213,67.009-26.078,72.292-61.707
				c11.565-78,26.302-217.563,9.708-348.558H1968.848z"/>
			<path style="fill:#FFFFFF;" d="M2803.179,3237.33c-1.181,0-2.16-0.935-2.203-2.125c-0.045-1.216,0.903-2.241,2.123-2.289
				c4.278-0.159,8.548-0.728,12.689-1.694c1.179-0.276,2.373,0.466,2.649,1.651c0.278,1.185-0.461,2.375-1.649,2.651
				c-4.414,1.026-8.964,1.634-13.525,1.806C2803.236,3237.33,2803.207,3237.33,2803.179,3237.33z M2772.283,3237.214
				c-0.004,0-0.009,0-0.013,0l-13.243-0.078c-1.22-0.009-2.2-1-2.194-2.22c0.007-1.216,0.994-2.194,2.207-2.194
				c0.004,0,0.009,0,0.013,0l13.243,0.078c1.22,0.008,2.201,1,2.194,2.22C2774.484,3236.235,2773.497,3237.214,2772.283,3237.214z
				 M2728.141,3236.955c-0.004,0-0.008,0-0.013,0l-13.241-0.078c-1.22-0.009-2.2-1-2.194-2.22c0.007-1.216,0.994-2.194,2.207-2.194
				c0.004,0,0.009,0,0.013,0l13.24,0.078c1.22,0.008,2.201,1,2.194,2.22C2730.342,3235.976,2729.354,3236.955,2728.141,3236.955z
				 M2684,3236.692c-0.004,0-0.009,0-0.013,0l-13.243-0.078c-1.22-0.008-2.2-1-2.194-2.22c0.007-1.216,0.994-2.194,2.207-2.194
				c0.004,0,0.009,0,0.013,0l13.243,0.078c1.22,0.009,2.2,1,2.194,2.22C2686.201,3235.713,2685.214,3236.692,2684,3236.692z
				 M2639.857,3236.433c-0.004,0-0.008,0-0.013,0l-13.243-0.078c-1.22-0.008-2.2-1-2.194-2.22c0.007-1.22,1.183-2.207,2.22-2.194
				l13.243,0.078c1.22,0.009,2.201,1,2.194,2.22C2642.058,3235.455,2641.071,3236.433,2639.857,3236.433z M2595.715,3236.175
				c-0.004,0-0.008,0-0.013,0l-13.241-0.078c-1.22-0.008-2.2-1-2.194-2.22c0.007-1.216,0.994-2.194,2.207-2.194
				c0.004,0,0.009,0,0.013,0l13.241,0.078c1.22,0.009,2.201,1,2.194,2.22C2597.916,3235.196,2596.928,3236.175,2595.715,3236.175z
				 M2551.574,3235.911c-0.004,0-0.008,0-0.013,0l-13.243-0.077c-1.22-0.009-2.201-1-2.194-2.22
				c0.007-1.216,0.994-2.194,2.207-2.194c0.004,0,0.009,0,0.013,0l13.243,0.077c1.22,0.009,2.201,1,2.194,2.22
				C2553.775,3234.933,2552.788,3235.911,2551.574,3235.911z M2507.431,3235.653c-0.004,0-0.008,0-0.013,0l-13.243-0.078
				c-1.22-0.009-2.2-1-2.194-2.22c0.007-1.215,0.994-2.194,2.207-2.194c0.004,0,0.009,0,0.013,0l13.243,0.078
				c1.22,0.008,2.201,1,2.195,2.22C2509.632,3234.675,2508.645,3235.653,2507.431,3235.653z M2463.291,3235.395
				c-0.004,0-0.009,0-0.013,0l-13.243-0.078c-1.22-0.009-2.201-1-2.195-2.22c0.007-1.215,0.994-2.194,2.207-2.194
				c0.004,0,0.009,0,0.013,0l13.243,0.078c1.22,0.008,2.201,1,2.194,2.22C2465.491,3234.416,2464.504,3235.395,2463.291,3235.395z
				 M2419.148,3235.131c-0.004,0-0.008,0-0.013,0l-13.243-0.078c-1.22-0.008-2.201-1-2.194-2.22
				c0.007-1.216,0.994-2.194,2.207-2.194c0.005,0,0.009,0,0.013,0l13.243,0.078c1.22,0.009,2.201,1,2.194,2.22
				C2421.349,3234.153,2420.362,3235.131,2419.148,3235.131z M2375.005,3234.873c-0.004,0-0.008,0-0.013,0l-13.243-0.078
				c-1.22-0.008-2.201-1-2.194-2.22c0.007-1.216,0.994-2.195,2.207-2.195c0.004,0,0.009,0,0.013,0l13.243,0.078
				c1.22,0.008,2.201,1,2.194,2.22C2377.206,3233.894,2376.219,3234.873,2375.005,3234.873z M2330.865,3234.614
				c-0.004,0-0.009,0-0.013,0l-13.243-0.078c-1.22-0.008-2.201-1-2.195-2.22c0.007-1.216,0.994-2.194,2.207-2.194
				c0.004,0,0.009,0,0.013,0l13.243,0.078c1.22,0.009,2.201,1,2.194,2.22C2333.065,3233.635,2332.078,3234.614,2330.865,3234.614z
				 M2286.722,3234.351c-0.004,0-0.009,0-0.013,0l-13.243-0.077c-1.22-0.009-2.201-1-2.194-2.22
				c0.007-1.216,0.994-2.194,2.207-2.194c0.005,0,0.009,0,0.013,0l13.243,0.077c1.22,0.009,2.201,1,2.194,2.22
				C2288.923,3233.372,2287.936,3234.351,2286.722,3234.351z M2242.579,3234.092c-0.004,0-0.009,0-0.013,0l-13.243-0.077
				c-1.22-0.009-2.201-1-2.194-2.22c0.007-1.216,0.994-2.194,2.207-2.194c0.004,0,0.008,0,0.013,0l13.243,0.077
				c1.22,0.009,2.201,1,2.194,2.22C2244.78,3233.114,2243.793,3234.092,2242.579,3234.092z M2198.439,3233.833
				c-0.004,0-0.009,0-0.013,0l-13.243-0.077c-1.22-0.009-2.201-1-2.194-2.22c0.006-1.219,1.151-2.043,2.22-2.194l13.243,0.077
				c1.22,0.009,2.2,1,2.194,2.22C2200.639,3232.855,2199.652,3233.833,2198.439,3233.833z M2154.296,3233.571
				c-0.004,0-0.009,0-0.013,0l-13.243-0.077c-1.22-0.009-2.201-1-2.194-2.22c0.006-1.216,0.994-2.194,2.207-2.194
				c0.004,0,0.008,0,0.013,0l13.243,0.078c1.22,0.008,2.2,1,2.194,2.22C2156.497,3232.592,2155.51,3233.571,2154.296,3233.571z
				 M2110.153,3233.312c-0.004,0-0.009,0-0.013,0l-13.243-0.078c-1.22-0.009-2.201-1-2.194-2.22
				c0.006-1.216,0.993-2.194,2.207-2.194c0.004,0,0.008,0,0.013,0l13.243,0.078c1.22,0.009,2.2,1,2.194,2.22
				C2112.354,3232.333,2111.367,3233.312,2110.153,3233.312z M2066.536,3228.381c-0.228,0-0.463-0.034-0.692-0.112
				c-4.257-1.406-8.471-3.13-12.525-5.13c-1.093-0.539-1.543-1.862-1.005-2.953c0.541-1.09,1.86-1.539,2.958-1.004
				c3.869,1.905,7.893,3.552,11.956,4.897c1.157,0.384,1.787,1.629,1.403,2.789
				C2068.325,3227.794,2067.463,3228.381,2066.536,3228.381z M2843.856,3222.208c-0.649,0-1.289-0.285-1.724-0.828
				c-0.763-0.953-0.608-2.341,0.343-3.104c3.341-2.672,6.43-5.673,9.184-8.91c0.787-0.931,2.175-1.048,3.11-0.254
				c0.929,0.789,1.043,2.181,0.252,3.112c-2.936,3.453-6.229,6.652-9.788,9.501
				C2844.826,3222.048,2844.339,3222.208,2843.856,3222.208z M2029.25,3205.529c-0.56,0-1.123-0.211-1.552-0.638
				c-3.212-3.177-6.223-6.595-8.949-10.161c-0.741-0.965-0.556-2.354,0.412-3.095c0.968-0.737,2.358-0.556,3.093,0.414
				c2.606,3.401,5.481,6.669,8.548,9.704c0.866,0.858,0.875,2.254,0.017,3.121
				C2030.388,3205.309,2029.819,3205.529,2029.25,3205.529z M2867.464,3185.82c-0.183,0-0.371-0.022-0.556-0.069
				c-1.179-0.306-1.888-1.513-1.582-2.69c0.588-2.276,1.063-4.608,1.405-6.936l0.86-5.858c0.174-1.207,1.271-2.056,2.5-1.871
				c1.207,0.177,2.043,1.298,1.866,2.5l-0.86,5.876c-0.366,2.479-0.871,4.966-1.5,7.393
				C2869.341,3185.16,2868.445,3185.82,2867.464,3185.82z M2005.996,3168.464c-0.918,0-1.776-0.577-2.089-1.496
				c-1.451-4.246-2.612-8.652-3.455-13.088c-0.228-1.198,0.558-2.354,1.757-2.582c1.19-0.22,2.354,0.56,2.58,1.754
				c0.804,4.238,1.914,8.441,3.296,12.493c0.395,1.151-0.222,2.405-1.375,2.802
				C2006.472,3168.426,2006.233,3168.464,2005.996,3168.464z M2873.885,3142.156c-0.091,0-0.181-0.004-0.274-0.017
				c-1.209-0.151-2.069-1.25-1.918-2.461c0.528-4.272,1.054-8.647,1.573-13.131c0.14-1.212,1.248-2.078,2.446-1.94
				c1.211,0.142,2.078,1.237,1.938,2.448c-0.52,4.492-1.045,8.885-1.578,13.165
				C2875.935,3141.336,2874.985,3142.156,2873.885,3142.156z M2000.475,3124.899c-1.186,0-2.166-0.94-2.203-2.138l-0.427-13.239
				c-0.041-1.216,0.916-2.237,2.134-2.276c1.116-0.056,2.237,0.914,2.276,2.138l0.427,13.239c0.041,1.216-0.916,2.237-2.134,2.276
				C2000.525,3124.899,2000.502,3124.899,2000.475,3124.899z M2878.709,3098.272c-0.069,0-0.14-0.004-0.211-0.009
				c-1.213-0.116-2.104-1.194-1.987-2.41c0.412-4.324,0.814-8.716,1.203-13.169c0.106-1.216,1.16-2.047,2.39-2.009
				c1.213,0.103,2.113,1.177,2.007,2.388c-0.388,4.47-0.791,8.871-1.207,13.212
				C2880.795,3097.418,2879.834,3098.272,2878.709,3098.272z M1999.055,3080.778c-1.185,0-2.166-0.944-2.203-2.138l-0.425-13.234
				c-0.041-1.216,0.916-2.238,2.134-2.276c1.194-0.017,2.237,0.919,2.276,2.138l0.425,13.235c0.041,1.216-0.916,2.237-2.134,2.276
				C1999.104,3080.778,1999.081,3080.778,1999.055,3080.778z M2882.274,3054.267c-0.049,0-0.099,0-0.149-0.004
				c-1.215-0.082-2.135-1.134-2.056-2.35c0.289-4.354,0.561-8.755,0.81-13.2c0.067-1.216,1.115-2.181,2.326-2.078
				c1.218,0.069,2.149,1.108,2.08,2.328c-0.25,4.453-0.522,8.872-0.811,13.243
				C2884.397,3053.37,2883.427,3054.267,2882.274,3054.267z M1997.637,3036.657c-1.185,0-2.166-0.944-2.203-2.138l-0.425-13.234
				c-0.041-1.216,0.916-2.238,2.134-2.276c1.183-0.086,2.239,0.923,2.276,2.138l0.425,13.234c0.041,1.216-0.916,2.238-2.134,2.276
				C1997.687,3036.657,1997.661,3036.657,1997.637,3036.657z M2884.492,3010.176c-0.026,0-0.052,0-0.078,0
				c-1.218-0.043-2.173-1.065-2.129-2.28c0.146-4.379,0.276-8.785,0.381-13.217c0.03-1.224,1.201-2.112,2.259-2.156
				c1.22,0.031,2.183,1.039,2.156,2.259c-0.105,4.449-0.235,8.872-0.386,13.26
				C2886.656,3009.236,2885.675,3010.176,2884.492,3010.176z M1996.218,2992.54c-1.185,0-2.166-0.944-2.203-2.138l-0.425-13.239
				c-0.041-1.216,0.916-2.237,2.134-2.276c1.172,0.065,2.239,0.923,2.276,2.138l0.425,13.239c0.041,1.216-0.916,2.237-2.134,2.276
				C1996.268,2992.54,1996.242,2992.54,1996.218,2992.54z M2885.231,2966.033c-1.218,0-2.205-0.987-2.207-2.203
				c-0.007-4.388-0.037-8.794-0.093-13.221c-0.015-1.216,0.961-2.216,2.179-2.233c1.082,0.013,2.218,0.957,2.235,2.182
				c0.056,4.436,0.086,8.859,0.093,13.264c0.001,1.22-0.985,2.211-2.206,2.211H2885.231z M1994.8,2948.419
				c-1.185,0-2.166-0.94-2.203-2.138l-0.427-13.239c-0.041-1.216,0.916-2.237,2.134-2.276c1.037-0.026,2.24,0.909,2.276,2.138
				l0.426,13.239c0.041,1.216-0.916,2.237-2.134,2.276C1994.85,2948.419,1994.826,2948.419,1994.8,2948.419z M2884.3,2921.908
				c-1.177,0-2.153-0.927-2.203-2.117c-0.183-4.393-0.395-8.794-0.636-13.196c-0.069-1.216,0.865-2.259,2.082-2.323
				c1.207-0.103,2.255,0.863,2.324,2.082c0.246,4.419,0.457,8.837,0.64,13.256c0.052,1.216-0.894,2.246-2.112,2.298
				C2884.363,2921.908,2884.332,2921.908,2884.3,2921.908z M1993.382,2904.298c-1.186,0-2.167-0.94-2.203-2.138l-0.427-13.234
				c-0.041-1.216,0.916-2.238,2.134-2.276c1.041-0.125,2.239,0.914,2.276,2.138l0.427,13.23c0.041,1.22-0.916,2.241-2.134,2.28
				C1993.432,2904.298,1993.408,2904.298,1993.382,2904.298z M2881.463,2877.855c-1.131,0-2.095-0.862-2.196-2.013
				c-0.39-4.384-0.811-8.773-1.265-13.148c-0.127-1.211,0.752-2.298,1.966-2.423c1.213-0.121,2.297,0.754,2.425,1.966
				c0.457,4.401,0.882,8.807,1.272,13.217c0.108,1.211-0.789,2.285-2.002,2.393
				C2881.595,2877.851,2881.528,2877.855,2881.463,2877.855z M1991.962,2860.177c-1.186,0-2.166-0.944-2.203-2.138l-0.425-13.234
				c-0.041-1.216,0.916-2.238,2.134-2.276c1.047-0.013,2.237,0.914,2.276,2.138l0.425,13.234c0.041,1.215-0.916,2.237-2.134,2.276
				C1992.011,2860.177,1991.987,2860.177,1991.962,2860.177z M2865.102,2846.942h-13.243c-1.22,0-2.207-0.987-2.207-2.207
				c0-1.219,0.987-2.207,2.207-2.207h13.243c1.22,0,2.207,0.988,2.207,2.207C2867.309,2845.955,2866.322,2846.942,2865.102,2846.942
				z M2820.959,2846.942h-13.243c-1.22,0-2.207-0.987-2.207-2.207c0-1.219,0.987-2.207,2.207-2.207h13.243
				c1.22,0,2.207,0.988,2.207,2.207C2823.166,2845.955,2822.179,2846.942,2820.959,2846.942z M2776.816,2846.942h-13.243
				c-1.22,0-2.207-0.987-2.207-2.207c0-1.219,0.987-2.207,2.207-2.207h13.243c1.22,0,2.207,0.988,2.207,2.207
				C2779.024,2845.955,2778.037,2846.942,2776.816,2846.942z M2732.674,2846.942h-13.243c-1.22,0-2.207-0.987-2.207-2.207
				c0-1.219,0.987-2.207,2.207-2.207h13.243c1.22,0,2.207,0.988,2.207,2.207C2734.881,2845.955,2733.894,2846.942,2732.674,2846.942
				z M2688.531,2846.942h-13.243c-1.22,0-2.207-0.987-2.207-2.207c0-1.219,0.987-2.207,2.207-2.207h13.243
				c1.22,0,2.207,0.988,2.207,2.207C2690.738,2845.955,2689.751,2846.942,2688.531,2846.942z M2644.388,2846.942h-13.243
				c-1.22,0-2.207-0.987-2.207-2.207c0-1.219,0.987-2.207,2.207-2.207h13.243c1.22,0,2.207,0.988,2.207,2.207
				C2646.595,2845.955,2645.608,2846.942,2644.388,2846.942z M2600.246,2846.942h-13.243c-1.22,0-2.207-0.987-2.207-2.207
				c0-1.219,0.987-2.207,2.207-2.207h13.243c1.22,0,2.207,0.988,2.207,2.207C2602.453,2845.955,2601.466,2846.942,2600.246,2846.942
				z M2556.103,2846.942h-13.243c-1.22,0-2.207-0.987-2.207-2.207c0-1.219,0.987-2.207,2.207-2.207h13.243
				c1.22,0,2.207,0.988,2.207,2.207C2558.31,2845.955,2557.323,2846.942,2556.103,2846.942z M2511.96,2846.942h-13.243
				c-1.22,0-2.207-0.987-2.207-2.207c0-1.219,0.987-2.207,2.207-2.207h13.243c1.22,0,2.207,0.988,2.207,2.207
				C2514.167,2845.955,2513.18,2846.942,2511.96,2846.942z M2467.817,2846.942h-13.243c-1.22,0-2.207-0.987-2.207-2.207
				c0-1.219,0.987-2.207,2.207-2.207h13.243c1.22,0,2.207,0.988,2.207,2.207C2470.024,2845.955,2469.037,2846.942,2467.817,2846.942
				z M2423.675,2846.942h-13.243c-1.22,0-2.207-0.987-2.207-2.207c0-1.219,0.987-2.207,2.207-2.207h13.243
				c1.22,0,2.207,0.988,2.207,2.207C2425.882,2845.955,2424.895,2846.942,2423.675,2846.942z M2379.532,2846.942h-13.243
				c-1.22,0-2.207-0.987-2.207-2.207c0-1.219,0.987-2.207,2.207-2.207h13.243c1.22,0,2.207,0.988,2.207,2.207
				C2381.739,2845.955,2380.752,2846.942,2379.532,2846.942z M2335.389,2846.942h-13.243c-1.22,0-2.207-0.987-2.207-2.207
				c0-1.219,0.987-2.207,2.207-2.207h13.243c1.22,0,2.207,0.988,2.207,2.207C2337.596,2845.955,2336.609,2846.942,2335.389,2846.942
				z M2291.246,2846.942h-13.243c-1.22,0-2.207-0.987-2.207-2.207c0-1.219,0.987-2.207,2.207-2.207h13.243
				c1.22,0,2.207,0.988,2.207,2.207C2293.454,2845.955,2292.467,2846.942,2291.246,2846.942z M2247.104,2846.942h-13.243
				c-1.22,0-2.207-0.987-2.207-2.207c0-1.219,0.987-2.207,2.207-2.207h13.243c1.22,0,2.207,0.988,2.207,2.207
				C2249.311,2845.955,2248.324,2846.942,2247.104,2846.942z M2202.961,2846.942h-13.243c-1.22,0-2.207-0.987-2.207-2.207
				c0-1.219,0.987-2.207,2.207-2.207h13.243c1.22,0,2.207,0.988,2.207,2.207C2205.168,2845.955,2204.181,2846.942,2202.961,2846.942
				z M2158.818,2846.942h-13.243c-1.22,0-2.207-0.987-2.207-2.207c0-1.219,0.987-2.207,2.207-2.207h13.243
				c1.22,0,2.207,0.988,2.207,2.207C2161.025,2845.955,2160.038,2846.942,2158.818,2846.942z M2114.675,2846.942h-13.243
				c-1.22,0-2.207-0.987-2.207-2.207c0-1.219,0.987-2.207,2.207-2.207h13.243c1.22,0,2.207,0.988,2.207,2.207
				C2116.883,2845.955,2115.896,2846.942,2114.675,2846.942z M2070.533,2846.942h-13.243c-1.22,0-2.207-0.987-2.207-2.207
				c0-1.219,0.987-2.207,2.207-2.207h13.243c1.22,0,2.207,0.988,2.207,2.207C2072.74,2845.955,2071.753,2846.942,2070.533,2846.942z
				 M2026.39,2846.942h-13.243c-1.22,0-2.207-0.987-2.207-2.207c0-1.219,0.987-2.207,2.207-2.207h13.243
				c1.22,0,2.207,0.988,2.207,2.207C2028.597,2845.955,2027.61,2846.942,2026.39,2846.942z"/>
			
				<linearGradient id="SVGID_00000172436671141428115450000014587934773746340491_" gradientUnits="userSpaceOnUse" x1="2252.0498" y1="2682.2783" x2="2246.6169" y2="2550.5356">
				<stop  offset="0" style="stop-color:#CB236D"/>
				<stop  offset="1" style="stop-color:#4C246D"/>
			</linearGradient>
			<path style="fill:url(#SVGID_00000172436671141428115450000014587934773746340491_);" d="M2185.611,2620.511l2.225-23.821
				c2.512-5.687,7.727-9.713,13.891-10.694c23.043-3.668,80.19-10.116,107.707,10.448l4.111,27.681L2185.611,2620.511z"/>
			
				<linearGradient id="SVGID_00000135673459371819936950000017108322094352796554_" gradientUnits="userSpaceOnUse" x1="2245.1719" y1="2484.4829" x2="2272.3352" y2="2862.0557">
				<stop  offset="0" style="stop-color:#CB236D"/>
				<stop  offset="1" style="stop-color:#4C246D"/>
			</linearGradient>
			<path style="fill:url(#SVGID_00000135673459371819936950000017108322094352796554_);" d="M2257.592,2597.591
				c-5.305,1.293-10.62,1.29-15.945-0.019c-6.442-1.583-10.987-7.347-10.987-13.952l0-74.59h37.959l0.001,74.534
				C2268.62,2590.199,2264.066,2596.012,2257.592,2597.591z"/>
			
				<linearGradient id="SVGID_00000062879223901086341480000004942080462438017940_" gradientUnits="userSpaceOnUse" x1="2619.0876" y1="2667.1426" x2="2613.6548" y2="2535.3999">
				<stop  offset="0" style="stop-color:#CB236D"/>
				<stop  offset="1" style="stop-color:#4C246D"/>
			</linearGradient>
			<path style="fill:url(#SVGID_00000062879223901086341480000004942080462438017940_);" d="M2553.272,2620.511l2.226-23.821
				c2.512-5.687,7.727-9.713,13.89-10.694c23.043-3.668,80.191-10.116,107.708,10.448l4.111,27.681L2553.272,2620.511z"/>
			
				<linearGradient id="SVGID_00000058566378584893668040000010286064933586468001_" gradientUnits="userSpaceOnUse" x1="2611.2222" y1="2458.1487" x2="2638.3855" y2="2835.7207">
				<stop  offset="0" style="stop-color:#CB236D"/>
				<stop  offset="1" style="stop-color:#4C246D"/>
			</linearGradient>
			<path style="fill:url(#SVGID_00000058566378584893668040000010286064933586468001_);" d="M2625.254,2597.591
				c-5.305,1.293-10.62,1.29-15.945-0.019c-6.443-1.583-10.987-7.347-10.987-13.952l0-82.448h37.959l0,82.393
				C2636.282,2590.199,2631.728,2596.012,2625.254,2597.591z"/>
			
				<linearGradient id="SVGID_00000010998203640553246090000004506854790875696289_" gradientUnits="userSpaceOnUse" x1="2460.4512" y1="2274.2825" x2="2423.78" y2="2543.2026">
				<stop  offset="0" style="stop-color:#CB236D"/>
				<stop  offset="1" style="stop-color:#4C246D"/>
			</linearGradient>
			<path style="fill:url(#SVGID_00000010998203640553246090000004506854790875696289_);" d="M2226.805,2527.314l408.225-13.513
				c9.307-0.308,17.204-7.022,18.802-16.154c2.236-12.779,4.208-31.912,1.268-51.744c-3.343-22.553-22.742-39.307-45.64-39.852
				c-76.155-1.813-270.026-1.757-376.877,40.51c-11.301,4.47-19.683,14.128-22.545,25.893c-2.729,11.22-4.542,26.203-0.977,41.453
				C2210.954,2522.009,2218.452,2527.591,2226.805,2527.314z"/>
			<path style="fill:#FFFFFF;" d="M2219.734,2508.716c-2.239,0-4.158-1.694-4.388-3.97c-0.067-0.668-1.599-16.48,2.522-31.71
				c3.276-12.101,12.844-21.826,24.972-25.386c22.86-6.708,66.559-18.11,102.369-19.119c2.453-0.06,4.468,1.858,4.535,4.289
				c0.069,2.44-1.852,4.47-4.289,4.539c-34.816,0.974-77.679,12.174-100.129,18.765c-9.202,2.698-16.457,10.062-18.936,19.218
				c-3.701,13.674-2.274,28.37-2.259,28.516c0.244,2.427-1.524,4.591-3.949,4.837
				C2220.032,2508.708,2219.881,2508.716,2219.734,2508.716z"/>
			
				<linearGradient id="SVGID_00000093168195644530257040000018178162879660205756_" gradientUnits="userSpaceOnUse" x1="2471.5115" y1="2483.7141" x2="2337.0522" y2="3738.6685">
				<stop  offset="0" style="stop-color:#CB236D"/>
				<stop  offset="1" style="stop-color:#4C246D"/>
			</linearGradient>
			<path style="fill:url(#SVGID_00000093168195644530257040000018178162879660205756_);" d="M1996.208,2611.231
				c131.885-1.686,702.409-7.681,868.134,12.314c14.269,1.721,25.913,12.16,29.003,26.132
				c9.793,44.27,29.494,147.114,27.158,249.056c-0.318,13.873-10.49,25.579-24.187,28.17l-378.295,71.567h-134.377l-403.078-80.122
				c-14.208-2.824-24.681-14.858-25.416-29.259c-2.62-51.287-6.715-171.627,7.155-249.087
				C1965.253,2623.543,1979.412,2611.446,1996.208,2611.231z"/>
			<path style="fill:#FFFFFF;" d="M2386.856,2968.081c-0.142,0-0.287-0.013-0.433-0.043l-12.988-2.582
				c-1.194-0.237-1.972-1.397-1.733-2.595c0.239-1.19,1.385-1.996,2.595-1.733l12.872,2.561c0.097-0.013,0.196-0.021,0.295-0.021
				h13.243c1.219,0,2.207,0.987,2.207,2.207c0,1.22-0.988,2.207-2.207,2.207h-13.243c-0.104,0-0.205-0.008-0.304-0.021
				C2387.061,2968.072,2386.959,2968.081,2386.856,2968.081z M2488.992,2968.081h-13.243c-1.22,0-2.207-0.987-2.207-2.207
				c0-1.22,0.987-2.207,2.207-2.207h13.243c1.22,0,2.207,0.987,2.207,2.207C2491.199,2967.094,2490.212,2968.081,2488.992,2968.081z
				 M2444.85,2968.081h-13.243c-1.22,0-2.207-0.987-2.207-2.207c0-1.22,0.987-2.207,2.207-2.207h13.243
				c1.219,0,2.207,0.987,2.207,2.207C2447.057,2967.094,2446.069,2968.081,2444.85,2968.081z M2519.804,2967.167
				c-1.041,0-1.966-0.737-2.167-1.798c-0.226-1.198,0.561-2.354,1.759-2.578l13.012-2.461c1.209-0.216,2.354,0.56,2.578,1.759
				c0.227,1.198-0.56,2.354-1.758,2.578l-13.013,2.461C2520.077,2967.154,2519.939,2967.167,2519.804,2967.167z M2343.56,2959.476
				c-0.143,0-0.287-0.013-0.433-0.043l-12.989-2.582c-1.194-0.237-1.972-1.401-1.732-2.595c0.237-1.19,1.377-1.97,2.595-1.733
				l12.988,2.582c1.194,0.237,1.972,1.397,1.733,2.595C2345.513,2958.748,2344.593,2959.476,2343.56,2959.476z M2563.177,2958.959
				c-1.041,0-1.966-0.737-2.166-1.797c-0.226-1.199,0.561-2.354,1.759-2.578l13.012-2.461c1.194-0.229,2.352,0.56,2.578,1.759
				c0.226,1.198-0.561,2.354-1.759,2.578l-13.012,2.461C2563.45,2958.946,2563.313,2958.959,2563.177,2958.959z M2300.265,2950.868
				c-0.143,0-0.287-0.013-0.433-0.043l-12.989-2.582c-1.194-0.237-1.972-1.397-1.733-2.595c0.237-1.189,1.388-1.979,2.595-1.733
				l12.988,2.582c1.194,0.237,1.972,1.397,1.733,2.595C2302.217,2950.139,2301.297,2950.868,2300.265,2950.868z M2606.55,2950.756
				c-1.041,0-1.966-0.737-2.166-1.798c-0.226-1.198,0.561-2.354,1.759-2.578l13.012-2.461c1.197-0.207,2.352,0.56,2.578,1.759
				c0.226,1.198-0.561,2.354-1.759,2.578l-13.012,2.461C2606.824,2950.743,2606.686,2950.756,2606.55,2950.756z M2649.923,2942.548
				c-1.041,0-1.966-0.737-2.166-1.798c-0.226-1.198,0.56-2.354,1.759-2.578l13.012-2.461c1.198-0.215,2.351,0.561,2.578,1.759
				c0.226,1.198-0.561,2.354-1.759,2.578l-13.012,2.461C2650.197,2942.535,2650.059,2942.548,2649.923,2942.548z M2256.969,2942.263
				c-0.143,0-0.287-0.013-0.434-0.043l-12.989-2.582c-1.194-0.238-1.972-1.397-1.733-2.595c0.239-1.194,1.379-1.987,2.595-1.733
				l12.989,2.582c1.194,0.238,1.972,1.401,1.733,2.595C2258.921,2941.534,2258.001,2942.263,2256.969,2942.263z M2693.297,2934.344
				c-1.041,0-1.966-0.737-2.166-1.797c-0.227-1.198,0.56-2.354,1.759-2.578l13.012-2.461c1.2-0.233,2.352,0.565,2.577,1.759
				c0.227,1.198-0.56,2.354-1.759,2.578l-13.012,2.461C2693.57,2934.331,2693.432,2934.344,2693.297,2934.344z M2213.673,2933.655
				c-0.142,0-0.287-0.013-0.431-0.043l-12.989-2.578c-1.196-0.237-1.972-1.397-1.735-2.595c0.235-1.19,1.407-1.996,2.593-1.732
				l12.988,2.578c1.196,0.237,1.975,1.397,1.735,2.595C2215.628,2932.926,2214.706,2933.655,2213.673,2933.655z M2736.67,2926.137
				c-1.041,0-1.966-0.737-2.167-1.798c-0.226-1.198,0.561-2.354,1.759-2.577l13.012-2.462c1.203-0.207,2.352,0.561,2.578,1.759
				c0.227,1.198-0.56,2.354-1.759,2.578l-13.012,2.461C2736.944,2926.123,2736.805,2926.137,2736.67,2926.137z M2170.378,2925.05
				c-0.143,0-0.287-0.013-0.433-0.043l-12.989-2.582c-1.194-0.237-1.972-1.397-1.733-2.595c0.239-1.19,1.382-1.97,2.595-1.733
				l12.989,2.582c1.194,0.237,1.972,1.397,1.733,2.595C2172.33,2924.322,2171.41,2925.05,2170.378,2925.05z M2780.043,2917.933
				c-1.041,0-1.966-0.737-2.167-1.798c-0.226-1.198,0.561-2.354,1.759-2.578l13.012-2.462c1.205-0.224,2.352,0.561,2.578,1.759
				c0.227,1.198-0.56,2.354-1.759,2.578l-13.012,2.461C2780.317,2917.92,2780.179,2917.933,2780.043,2917.933z M2127.082,2916.446
				c-0.142,0-0.287-0.013-0.433-0.043l-12.989-2.582c-1.194-0.237-1.972-1.397-1.733-2.595c0.238-1.194,1.393-1.978,2.595-1.732
				l12.989,2.582c1.194,0.237,1.972,1.401,1.733,2.595C2129.035,2915.717,2128.114,2916.446,2127.082,2916.446z M2823.416,2909.725
				c-1.041,0-1.966-0.737-2.166-1.798c-0.227-1.198,0.561-2.354,1.759-2.578l13.012-2.461c1.207-0.199,2.354,0.564,2.578,1.759
				c0.226,1.198-0.561,2.354-1.759,2.578l-13.012,2.461C2823.69,2909.712,2823.552,2909.725,2823.416,2909.725z M2083.786,2907.837
				c-0.142,0-0.287-0.013-0.433-0.043l-12.989-2.582c-1.194-0.237-1.972-1.397-1.733-2.595c0.239-1.194,1.384-1.983,2.595-1.733
				l12.989,2.582c1.194,0.237,1.972,1.397,1.733,2.595C2085.739,2907.108,2084.819,2907.837,2083.786,2907.837z M2866.79,2901.522
				c-1.041,0-1.966-0.737-2.166-1.797c-0.226-1.198,0.561-2.354,1.759-2.578l13.012-2.461c1.209-0.212,2.354,0.56,2.578,1.759
				c0.226,1.198-0.561,2.354-1.759,2.578l-13.012,2.461C2867.063,2901.509,2866.926,2901.522,2866.79,2901.522z M2040.49,2899.232
				c-0.142,0-0.286-0.013-0.433-0.043l-12.989-2.582c-1.194-0.237-1.972-1.397-1.733-2.595c0.237-1.19,1.395-1.996,2.595-1.733
				l12.989,2.582c1.194,0.237,1.972,1.397,1.733,2.595C2042.443,2898.504,2041.523,2899.232,2040.49,2899.232z M1997.195,2890.628
				c-0.142,0-0.286-0.013-0.433-0.043l-11.219-2.233l-0.263-5.246c-0.058-1.216,0.881-2.25,2.099-2.306
				c1.188-0.246,2.252,0.875,2.311,2.099l0.089,1.798l7.845,1.56c1.194,0.237,1.972,1.401,1.733,2.595
				C1999.148,2889.904,1998.227,2890.628,1997.195,2890.628z M2888.042,2874.924c-1.207,0-2.192-0.97-2.207-2.181
				c-0.056-4.41-0.149-8.811-0.278-13.2c-0.035-1.22,0.925-2.233,2.142-2.272c1.151,0.035,2.235,0.918,2.272,2.142
				c0.129,4.414,0.222,8.842,0.278,13.277c0.015,1.216-0.961,2.216-2.179,2.233
				C2888.061,2874.924,2888.05,2874.924,2888.042,2874.924z M1986.213,2854.331c-1.183,0-2.164-0.94-2.203-2.134
				c-0.144-4.25-0.28-8.678-0.405-13.252c-0.032-1.22,0.929-2.233,2.147-2.268c1.192,0.104,2.233,0.927,2.267,2.147
				c0.125,4.565,0.259,8.983,0.401,13.226c0.041,1.216-0.914,2.237-2.132,2.28
				C1986.265,2854.331,1986.239,2854.331,1986.213,2854.331z M2886.302,2830.829c-1.153,0-2.125-0.897-2.2-2.065
				c-0.287-4.427-0.601-8.82-0.944-13.187c-0.095-1.216,0.813-2.276,2.028-2.371c1.198-0.146,2.278,0.814,2.373,2.026
				c0.343,4.384,0.662,8.803,0.948,13.247c0.078,1.216-0.845,2.268-2.061,2.345
				C2886.399,2830.829,2886.35,2830.829,2886.302,2830.829z M1985.204,2810.193c-1.207,0-2.194-0.97-2.207-2.181
				c-0.05-4.354-0.086-8.781-0.106-13.26c-0.004-1.22,0.979-2.211,2.198-2.216h0.007c1.218,0,2.205,0.983,2.209,2.199
				c0.019,4.47,0.056,8.88,0.105,13.226c0.013,1.22-0.963,2.22-2.181,2.233C1985.222,2810.193,1985.213,2810.193,1985.204,2810.193z
				 M2882.477,2786.828c-1.112,0-2.069-0.836-2.192-1.97c-0.481-4.436-0.981-8.816-1.503-13.135
				c-0.145-1.207,0.718-2.306,1.927-2.453c1.233-0.168,2.311,0.716,2.458,1.927c0.521,4.336,1.026,8.734,1.507,13.187
				c0.132,1.211-0.746,2.302-1.957,2.431C2882.636,2786.824,2882.556,2786.828,2882.477,2786.828z M1985.26,2766.046
				c-0.011,0-0.022,0-0.034,0c-1.218-0.017-2.19-1.022-2.173-2.242c0.067-4.406,0.155-8.833,0.267-13.264
				c0.03-1.22,1.047-2.112,2.263-2.151c1.217,0.03,2.181,1.043,2.151,2.263c-0.112,4.414-0.2,8.829-0.267,13.221
				C1987.448,2765.08,1986.465,2766.046,1985.26,2766.046z M2876.877,2743.031c-1.078,0-2.02-0.789-2.181-1.888
				c-0.657-4.462-1.323-8.824-1.994-13.075c-0.192-1.202,0.631-2.337,1.834-2.526c1.194-0.181,2.334,0.633,2.524,1.836
				c0.674,4.268,1.345,8.648,2.002,13.126c0.177,1.203-0.657,2.324-1.862,2.505
				C2877.092,2743.021,2876.982,2743.031,2876.877,2743.031z M1986.703,2721.916c-0.039,0-0.078,0-0.116-0.004
				c-1.218-0.061-2.153-1.099-2.091-2.319c0.233-4.444,0.494-8.867,0.784-13.251c0.082-1.22,1.132-2.181,2.349-2.056
				c1.216,0.082,2.136,1.134,2.057,2.349c-0.291,4.366-0.552,8.764-0.78,13.191
				C1988.843,2721.002,1987.868,2721.916,1986.703,2721.916z M2869.68,2699.452c-1.045,0-1.974-0.745-2.168-1.81
				c-0.836-4.557-1.658-8.893-2.455-12.993c-0.233-1.198,0.548-2.358,1.744-2.591c1.194-0.237,2.356,0.552,2.589,1.746
				c0.802,4.117,1.627,8.47,2.464,13.044c0.22,1.198-0.573,2.349-1.772,2.569C2869.945,2699.439,2869.812,2699.452,2869.68,2699.452
				z M1990.162,2677.907c-0.08,0-0.162-0.004-0.244-0.013c-1.211-0.133-2.087-1.224-1.953-2.435
				c0.496-4.492,1.035-8.902,1.617-13.204c0.166-1.207,1.276-2.112,2.483-1.888c1.209,0.164,2.056,1.272,1.892,2.483
				c-0.577,4.268-1.112,8.635-1.604,13.092C1992.229,2677.071,1991.272,2677.907,1990.162,2677.907z M2859.06,2657.944
				c-0.084,0-0.17-0.004-0.258-0.013c-4.087-0.479-8.465-0.953-13.127-1.41c-1.213-0.12-2.102-1.202-1.98-2.414
				c0.118-1.216,1.164-2.031,2.412-1.983c4.692,0.466,9.095,0.94,13.208,1.418c1.209,0.143,2.078,1.237,1.935,2.448
				C2861.119,2657.116,2860.166,2657.944,2859.06,2657.944z M2815.097,2653.969c-0.054,0-0.108,0-0.162-0.004
				c-4.244-0.306-8.644-0.604-13.193-0.892c-1.216-0.078-2.14-1.125-2.063-2.341c0.075-1.224,1.134-2.147,2.343-2.065
				c4.563,0.289,8.975,0.587,13.232,0.893c1.216,0.09,2.13,1.147,2.041,2.362
				C2817.213,2653.081,2816.243,2653.969,2815.097,2653.969z M2771.029,2651.335c-0.039,0-0.075,0-0.114-0.004
				c-4.304-0.22-8.71-0.431-13.217-0.638c-1.218-0.056-2.16-1.086-2.104-2.302c0.056-1.215,1.112-2.186,2.306-2.104
				c4.516,0.207,8.928,0.418,13.239,0.638c1.217,0.061,2.155,1.099,2.093,2.315
				C2773.172,2650.421,2772.195,2651.335,2771.029,2651.335z M2726.927,2649.404c-0.028,0-0.056,0-0.086,0l-13.228-0.479
				c-1.219-0.043-2.173-1.065-2.129-2.284c0.043-1.212,1.13-2.113,2.281-2.13l13.245,0.479c1.218,0.048,2.168,1.073,2.121,2.289
				C2729.085,2648.468,2728.106,2649.404,2726.927,2649.404z M2682.804,2647.934c-0.023,0-0.045,0-0.067,0l-13.234-0.375
				c-1.218-0.034-2.179-1.047-2.147-2.268c0.032-1.22,0.879-2.117,2.268-2.147l13.243,0.375c1.22,0.039,2.177,1.056,2.142,2.272
				C2684.972,2646.99,2683.992,2647.934,2682.804,2647.934z M2638.674,2646.791c-0.017,0-0.034,0-0.052,0l-13.239-0.293
				c-1.218-0.026-2.185-1.034-2.159-2.254c0.026-1.203,1.009-2.16,2.207-2.16c0.015,0,0.03,0,0.047,0l13.243,0.293
				c1.22,0.031,2.185,1.039,2.158,2.259C2640.851,2645.834,2639.868,2646.791,2638.674,2646.791z M2594.536,2645.904
				c-0.013,0-0.028,0-0.041,0l-13.239-0.229c-1.217-0.021-2.19-1.026-2.17-2.241c0.02-1.207,1.005-2.173,2.207-2.173
				c0.011,0,0.024,0,0.037,0l13.247,0.229c1.22,0.021,2.188,1.03,2.166,2.25C2596.719,2644.942,2595.736,2645.904,2594.536,2645.904
				z M2007.332,2645.899c-1.207,0-2.192-0.97-2.207-2.177c-0.015-1.219,0.961-2.22,2.179-2.237l13.253-0.159
				c0.009,0,0.017,0,0.026,0c1.207,0,2.192,0.97,2.207,2.181c0.015,1.22-0.961,2.22-2.182,2.233l-13.249,0.159
				C2007.351,2645.899,2007.341,2645.899,2007.332,2645.899z M2051.496,2645.395c-1.209,0-2.194-0.974-2.207-2.186
				c-0.013-1.22,0.965-2.215,2.186-2.229l13.249-0.133c0.009,0,0.015,0,0.022,0c1.209,0,2.196,0.974,2.207,2.186
				c0.011,1.22-0.968,2.216-2.186,2.229l-13.249,0.133C2051.511,2645.395,2051.503,2645.395,2051.496,2645.395z M2550.393,2645.209
				c-0.008,0-0.019,0-0.03,0l-13.238-0.172c-1.218-0.017-2.194-1.018-2.179-2.233c0.015-1.211,1-2.181,2.207-2.181
				c0.009,0,0.017,0,0.028,0l13.243,0.172c1.22,0.017,2.194,1.018,2.177,2.238
				C2552.583,2644.24,2551.598,2645.209,2550.393,2645.209z M2095.658,2644.968c-1.209,0-2.197-0.975-2.207-2.186
				c-0.01-1.22,0.968-2.216,2.188-2.228l13.249-0.116c0.006,0,0.013,0,0.02,0c1.211,0,2.196,0.974,2.207,2.19
				c0.01,1.216-0.97,2.216-2.188,2.224l-13.25,0.117C2095.671,2644.968,2095.665,2644.968,2095.658,2644.968z M2506.252,2644.688
				c-0.006,0-0.015,0-0.022,0l-13.241-0.125c-1.217-0.009-2.198-1.009-2.188-2.225c0.011-1.215,0.996-2.189,2.207-2.189
				c0.007,0,0.013,0,0.02,0l13.245,0.125c1.22,0.013,2.199,1.009,2.185,2.229
				C2508.447,2643.714,2507.462,2644.688,2506.252,2644.688z M2139.816,2644.61c-1.211,0-2.198-0.979-2.207-2.19
				c-0.008-1.22,0.972-2.216,2.192-2.225l13.243-0.095c0.007,0,0.01,0,0.017,0c1.211,0,2.198,0.979,2.207,2.19
				c0.009,1.22-0.972,2.216-2.19,2.224l-13.247,0.095C2139.827,2644.61,2139.82,2644.61,2139.816,2644.61z M2462.11,2644.313
				c-0.004,0-0.01,0-0.015,0l-13.24-0.086c-1.218-0.009-2.2-1-2.194-2.22c0.007-1.216,0.994-2.194,2.207-2.194
				c0.004,0,0.009,0,0.013,0l13.245,0.086c1.22,0.009,2.201,1.005,2.192,2.224
				C2464.308,2643.334,2463.321,2644.313,2462.11,2644.313z M2183.974,2644.313c-1.214,0-2.201-0.979-2.207-2.194
				c-0.006-1.22,0.974-2.211,2.194-2.22l13.25-0.073c0.004,0,0.006,0,0.01,0c1.214,0,2.2,0.983,2.207,2.198
				c0.007,1.215-0.979,2.211-2.196,2.216l-13.245,0.073C2183.983,2644.313,2183.978,2644.313,2183.974,2644.313z M2228.132,2644.093
				c-1.215,0-2.203-0.983-2.207-2.198c-0.004-1.22,0.979-2.211,2.199-2.216l13.247-0.052c0.002,0,0.006,0,0.006,0
				c1.218,0,2.205,0.983,2.209,2.198c0.004,1.22-0.979,2.212-2.198,2.216l-13.247,0.052H2228.132z M2417.965,2644.058
				c-0.002,0-0.006,0-0.006,0l-13.245-0.052c-1.22-0.004-2.203-0.996-2.199-2.216c0.005-1.216,0.992-2.198,2.207-2.198h0.009
				l13.243,0.052c1.22,0.004,2.203,0.996,2.198,2.216C2420.168,2643.075,2419.18,2644.058,2417.965,2644.058z M2272.285,2643.942
				c-1.216,0-2.203-0.983-2.207-2.198c-0.004-1.22,0.981-2.211,2.201-2.216l13.247-0.03c1.131-0.091,2.209,0.987,2.212,2.203
				c0.002,1.22-0.983,2.207-2.203,2.212l-13.243,0.03H2272.285z M2373.818,2643.916c-0.002,0-0.002,0-0.002,0l-13.243-0.022
				c-1.22,0-2.207-0.991-2.205-2.211c0.002-1.216,0.99-2.203,2.207-2.203h0.002l13.245,0.022c1.22,0.004,2.205,0.991,2.203,2.211
				C2376.023,2642.929,2375.035,2643.916,2373.818,2643.916z M2316.432,2643.873c-1.218,0-2.205-0.987-2.207-2.203
				c-0.002-1.22,0.985-2.212,2.205-2.212h13.202c1.218,0,2.229,0.991,2.227,2.207c0,1.22-0.966,2.207-2.183,2.207h-13.241H2316.432z
				"/>
			
				<linearGradient id="SVGID_00000150796733332483840180000007525752024195159706_" gradientUnits="userSpaceOnUse" x1="2481.2686" y1="2638.592" x2="2428.2993" y2="3058.2693">
				<stop  offset="0" style="stop-color:#A737D5"/>
				<stop  offset="1" style="stop-color:#EF497A"/>
			</linearGradient>
			<path style="fill:url(#SVGID_00000150796733332483840180000007525752024195159706_);" d="M2505.37,3054.888h-117.725
				c-15.427,0-28.419-11.478-30.25-26.725l-13.602-113.282c-2.167-18.045,11.991-33.921,30.25-33.921h141.426
				c17.889,0,31.927,15.268,30.346,33.003l-10.1,113.282C2534.321,3042.892,2521.152,3054.888,2505.37,3054.888z"/>
			<defs>
				
					<filter id="Adobe_OpacityMaskFilter" filterUnits="userSpaceOnUse" x="2367.746" y="2901.675" width="154.021" height="132.378">
					<feFlood  style="flood-color:white;flood-opacity:1" result="back"/>
					<feBlend  in="SourceGraphic" in2="back" mode="normal"/>
				</filter>
			</defs>
			
				<mask maskUnits="userSpaceOnUse" x="2367.746" y="2901.675" width="154.021" height="132.378" id="SVGID_00000150094639778560738200000008191402799784030119_">
				<g style="filter:url(#Adobe_OpacityMaskFilter);">
					<defs>
						
							<filter id="Adobe_OpacityMaskFilter_00000083074715647736445270000006061291310166253724_" filterUnits="userSpaceOnUse" x="2367.746" y="2901.675" width="154.021" height="132.378">
							<feFlood  style="flood-color:white;flood-opacity:1" result="back"/>
							<feBlend  in="SourceGraphic" in2="back" mode="normal"/>
						</filter>
					</defs>
					
						<mask maskUnits="userSpaceOnUse" x="2367.746" y="2901.675" width="154.021" height="132.378" id="SVGID_00000150094639778560738200000008191402799784030119_">
						<g style="filter:url(#Adobe_OpacityMaskFilter_00000083074715647736445270000006061291310166253724_);">
						</g>
					</mask>
					
						<linearGradient id="SVGID_00000060024054559728098900000006726367806915061147_" gradientUnits="userSpaceOnUse" x1="2367.7461" y1="2967.864" x2="2521.7671" y2="2967.864">
						<stop  offset="0" style="stop-color:#FFFFFF"/>
						<stop  offset="1" style="stop-color:#000000"/>
					</linearGradient>
					
						<path style="mask:url(#SVGID_00000150094639778560738200000008191402799784030119_);fill:url(#SVGID_00000060024054559728098900000006726367806915061147_);" d="
						M2490.89,3034.053h-89.602c-11.742,0-21.63-8.736-23.024-20.34l-10.352-86.221c-1.649-13.734,9.127-25.817,23.023-25.817
						h107.641c13.615,0,24.3,11.62,23.097,25.119l-7.688,86.219C2512.925,3024.923,2502.902,3034.053,2490.89,3034.053z"/>
				</g>
			</mask>
			
				<linearGradient id="SVGID_00000131350321821125488990000006851303704320679085_" gradientUnits="userSpaceOnUse" x1="2367.7461" y1="2967.864" x2="2521.7671" y2="2967.864">
				<stop  offset="0" style="stop-color:#FFFFFF"/>
				<stop  offset="1" style="stop-color:#FFFFFF"/>
			</linearGradient>
			<path style="opacity:0.32;fill:url(#SVGID_00000131350321821125488990000006851303704320679085_);" d="M2490.89,3034.053h-89.602
				c-11.742,0-21.63-8.736-23.024-20.34l-10.352-86.221c-1.649-13.734,9.127-25.817,23.023-25.817h107.641
				c13.615,0,24.3,11.62,23.097,25.119l-7.688,86.219C2512.925,3024.923,2502.902,3034.053,2490.89,3034.053z"/>
		</g>
	</g>
</g>
</svg>
