<?xml version="1.0" encoding="utf-8"?>
<!-- Generator: Adobe Illustrator 27.5.0, SVG Export Plug-In . SVG Version: 6.00 Build 0)  -->
<svg version="1.1" xmlns="http://www.w3.org/2000/svg" xmlns:xlink="http://www.w3.org/1999/xlink" x="0px" y="0px"
	 viewBox="0 0 3710 3710" style="enable-background:new 0 0 3710 3710;" xml:space="preserve">
<g id="Background">
	<g>
		<g>
			<rect style="fill:#FFFFFF;" width="3710" height="3710"/>
		</g>
	</g>
</g>
<g id="Illustration">
	<g>
		<path style="fill:#F4F7FA;" d="M2361.424,514.718c-211.6-47.207-431.599-69.833-646.704-55.41
			c-190.651,12.783-406.759,47.673-560.179,172.648c-73.114,59.558-160.306,166.577-184.221,260.989
			c-0.003,0.011-125.886,496.951-377.648,603.44c-251.766,106.489-426.603,1923.907,1482.619,1746.425
			c0,0,1121.373-46.507,1188.893-1386.112c16.311-323.606,7.198-679.362-188.2-949.951
			c-149.734-207.354-359.526-299.551-600.6-364.062C2437.723,532.607,2399.711,523.26,2361.424,514.718z"/>
		<g>
			<g>
				<g>
					
						<linearGradient id="SVGID_1_" gradientUnits="userSpaceOnUse" x1="-4810.8267" y1="-4452.79" x2="-4301.5903" y2="-1197.3059" gradientTransform="matrix(-0.7776 -0.6288 -0.6288 0.7776 -3663.4414 2027.9053)">
						<stop  offset="0" style="stop-color:#FFC444"/>
						<stop  offset="0.9964" style="stop-color:#F36F56"/>
					</linearGradient>
					<path style="fill:url(#SVGID_1_);" d="M1800.063,2868.841c-18.361-3.21-55.475-26.379-62.66-36.408
						c-47.813-66.74-145.451-185.879-136.495-272.206c1.53-14.743,68.204-25.522,78.066-38.678
						c40.841-17.191,56.076-20.621,86.874-56.037c90.926-104.559-96.357-316.842,135.286-378.206
						c169.675-44.948,308.446,18.998,302.019-241.585c-6.427-260.583,220.665-724.789,486.903-531.355
						c152.796,111.013-16.861,324.805,56.883,491.36c70.075,158.271-1.245,282.821-169.879,368.418s-83.945,160.95-42.695,310.228
						c49.55,179.314-223.75,198.519-350.681,196.622C2081.471,2679.466,1820.166,2744.536,1800.063,2868.841z"/>
					<g>
						<defs>
							<path id="SVGID_00000098209448687955196510000011412841609020584878_" d="M1560.079,2535.999
								c34.113,123.501,63.738,250.579,97.419,375.134c72.536,9.145,158.083,18.135,178.179-70.653
								c27.94-123.441,246.113-161.777,348.235-159.707c126.396,2.562,400.113-17.29,350.467-196.435
								c-41.33-149.137-125.931-224.642,42.693-310.205c168.625-85.563,239.911-210.13,169.867-368.418
								c-73.71-166.574,95.897-380.257-56.883-491.354c-266.212-193.581-493.412,271.043-486.859,531.258
								s-132.8,197.796-301.946,241.406c-230.922,59.538-46.314,278.497-134.633,376.155
								C1697.382,2539.739,1646.247,2522.916,1560.079,2535.999z"/>
						</defs>
						<clipPath id="SVGID_00000006709110119809032800000010088414338294077317_">
							<use xlink:href="#SVGID_00000098209448687955196510000011412841609020584878_"  style="overflow:visible;"/>
						</clipPath>
						<g style="opacity:0.8;clip-path:url(#SVGID_00000006709110119809032800000010088414338294077317_);">
							<g>
								<path style="fill:#FCFDFE;" d="M1671.034,2703.662c144.115-62.455,276.482-146.148,393.421-248.756
									c112.365-98.595,210.676-214.756,292.203-345.258c158.26-253.335,250.728-556.681,267.405-877.245l-3.46-0.18
									c-35.198,676.582-390.691,1225.463-950.948,1468.259L1671.034,2703.662z"/>
							</g>
							<g>
								<path style="fill:#FCFDFE;" d="M2563.597,2556.305l1.229-3.24c-156.786-59.294-422.833-72.582-593.068-29.619l0.847,3.361
									C2142.256,2483.99,2407.375,2497.223,2563.597,2556.305z"/>
							</g>
							<g>
								<path style="fill:#FCFDFE;" d="M1780.39,2654.785c70.99-58.559,109.637-150.568,114.873-273.467
									c3.818-89.685-9.924-193.496-40.848-308.55l-3.346,0.899c30.833,114.712,44.538,218.17,40.732,307.504
									c-5.191,121.875-43.416,213.034-113.613,270.942L1780.39,2654.785z"/>
							</g>
							<g>
								<path style="fill:#FCFDFE;" d="M2377.77,2072.761c125.722-115.063,303.548-139.426,430.585-139.606l-0.005-3.466
									c-127.649,0.178-306.38,24.705-432.918,140.514L2377.77,2072.761z"/>
							</g>
							<g>
								<path style="fill:#FCFDFE;" d="M2538.494,1714.482c22.699-193.275-81.096-368.891-144.986-456.374l-2.8,2.044
									c63.591,87.072,166.906,261.825,144.347,453.924L2538.494,1714.482z"/>
							</g>
						</g>
					</g>
				</g>
			</g>
			<g>
				<g>
					<defs>
						<path id="SVGID_00000179616393033762037400000014148092121912119740_" d="M2129.776,2914.138
							c-117.382,17.414-235.244,32.635-353.491,45.646c-1.463,1.886-94.892-192.214-7.094-331.629
							c174.803-271.379-32.642-414.739-107.562-512.886c-114.126-136.068-129.618-335.338,87.299-356.874
							c210.227-24.987,146.257-377.317,38.554-632.677c-65.196-120.772,38.772-317.659,175.632-393.76
							c138.858-80.801,310.604-40.817,427.094,203.617c151.182,278.532-61.867,530.169-118,706.099
							c-55.325,172.767,199.682,230.106,56.356,409.121c-118.863,156.729-285.844,291.821-176.582,417.578
							C2262.698,2591.967,2277.823,2713.747,2129.776,2914.138z"/>
					</defs>
					<clipPath id="SVGID_00000171679646436990909780000014736860380966261641_">
						<use xlink:href="#SVGID_00000179616393033762037400000014148092121912119740_"  style="overflow:visible;"/>
					</clipPath>
				</g>
				<g>
					<defs>
						<path id="SVGID_00000041278643434023091940000002733155951654735001_" d="M2129.776,2914.138
							c-117.382,17.414-235.244,32.635-353.491,45.646c-1.463,1.886-94.892-192.214-7.094-331.629
							c174.803-271.379-32.642-414.739-107.562-512.886c-114.126-136.068-129.618-335.338,87.299-356.874
							c210.227-24.987,146.257-377.317,38.554-632.677c-65.196-120.772,38.772-317.659,175.632-393.76
							c138.858-80.801,310.604-40.817,427.094,203.617c151.182,278.532-61.867,530.169-118,706.099
							c-55.325,172.767,199.682,230.106,56.356,409.121c-118.863,156.729-285.844,291.821-176.582,417.578
							C2262.698,2591.967,2277.823,2713.747,2129.776,2914.138z"/>
					</defs>
					<clipPath id="SVGID_00000142878252760664403380000007452045655051139469_">
						<use xlink:href="#SVGID_00000041278643434023091940000002733155951654735001_"  style="overflow:visible;"/>
					</clipPath>
					
						<linearGradient id="SVGID_00000005945226967242278670000010895558582111374468_" gradientUnits="userSpaceOnUse" x1="-809.2673" y1="-1815.6394" x2="-1518.0382" y2="198.7637" gradientTransform="matrix(-0.9683 -0.2498 -0.2498 0.9683 710.067 2329.2092)">
						<stop  offset="0" style="stop-color:#FF9085"/>
						<stop  offset="1" style="stop-color:#FB6FBB"/>
					</linearGradient>
					
						<path style="clip-path:url(#SVGID_00000142878252760664403380000007452045655051139469_);fill:url(#SVGID_00000005945226967242278670000010895558582111374468_);" d="
						M2129.776,2914.138c-117.382,17.414-235.244,32.635-353.491,45.646c-1.463,1.886-94.892-192.214-7.094-331.629
						c174.803-271.379-32.642-414.739-107.562-512.886c-113.378-136.15-122.58-314.818,68.035-369.922
						c210.469-64.554,168.995-365.799,57.819-619.629c-65.196-120.772,38.772-317.659,175.632-393.76
						c138.858-80.801,310.604-40.817,427.094,203.617c151.182,278.532-61.867,530.169-118,706.099
						c-55.325,172.767,199.682,230.106,56.356,409.121c-118.863,156.729-285.844,291.821-176.582,417.578
						C2262.698,2591.967,2277.823,2713.747,2129.776,2914.138z"/>
					<g style="opacity:0.8;clip-path:url(#SVGID_00000142878252760664403380000007452045655051139469_);">
						<g>
							<path style="fill:#FCFDFE;" d="M1981.009,2968.089c-2.241-13.616-7.201-479.551,61.925-930.106
								c7.23-75.002,16.518-151.032,25.499-224.558c24.068-197.088,48.962-400.89,34.539-593.194
								c-16.136-215.221-81.007-395.252-198.322-550.383l-3.685,2.185c260.508,344.492,213.235,731.565,163.184,1141.367
								c-8.984,73.545-18.272,149.595-25.493,224.548c-72.115,470.004-62.388,929.447-61.853,931.248l4.182-1.212l-2.091,0.606
								L1981.009,2968.089z"/>
						</g>
						<g>
							<path style="fill:#FCFDFE;" d="M2105.509,1434.037c94.68-151.405,201.999-358.997,259.653-470.523
								c24.641-47.671,44.106-85.323,46.888-88.046l-1.214-0.87l-0.187-2.268c-2.899,0.441-4.852,3.81-49.405,89.992
								c-57.627,111.477-164.896,318.979-259.498,470.251L2105.509,1434.037z"/>
						</g>
						<g>
							<path style="fill:#FCFDFE;" d="M2102.661,1268.14l1.566-6.04c-48.113-96.573-120.475-175.183-209.261-227.339
								c-70.48-41.404-130.274-54.101-145.663-55.287c-3.292-0.25-4.634-0.048-5.56,0.849l3.131,2.245
								c-0.439,0.425-0.876,0.504-0.888,0.507c5.366-0.979,63.602,8.635,135.672,48.683
								C1946.618,1067.858,2039.697,1141.761,2102.661,1268.14z"/>
						</g>
						<g>
							<path style="fill:#FCFDFE;" d="M2006.744,2340.943c-16.383-129.836-88.422-254.438-214.107-370.345
								c-65.456-60.363-143.002-115.799-230.475-164.77c-4.581-2.563-8.198-4.588-8.741-5.039l-3.153,2.739
								c0.766,0.638,3.249,2.035,9.29,5.417c121.542,68.042,408.004,256.162,442.909,532.733L2006.744,2340.943z"/>
						</g>
						<g>
							<path style="fill:#FCFDFE;" d="M2021.984,2196.07c85.012-216.781,363.448-306.992,368.253-308.314
								c0.021-0.006,0.033-0.009,0.045-0.012l-0.293-1.772l1.122,1.467l0.974-2.104l-2.014-1.198
								c-2.583,0.117-286.075,91.569-372.156,311.084L2021.984,2196.07z"/>
						</g>
						<g>
							<path style="fill:#FCFDFE;" d="M1980.685,2892.761c-12.607-55.33-61.687-141.92-223.908-240.225
								c-3.809-2.306-7.1-4.3-7.591-4.74l-1.354,1.104l-2.548,0.387c0.102,1.043,0.102,1.043,8.779,6.3
								c161.21,97.692,209.917,183.456,222.39,238.199L1980.685,2892.761z"/>
						</g>
						<g>
							<path style="fill:#FCFDFE;" d="M1981.514,2782.959c7.089-103.427,148.474-217.102,232.125-275.657
								c2.854-1.998,4.683-3.284,5.324-3.791l-2.769-2.563c-0.612,0.486-2.369,1.712-5.094,3.62
								c-84.26,58.984-226.695,173.604-233.887,278.534L1981.514,2782.959z"/>
						</g>
					</g>
				</g>
				<g>
					<defs>
						<path id="SVGID_00000164491313119991018050000013395217529156050621_" d="M2129.776,2914.138
							c-117.382,17.414-235.244,32.635-353.491,45.646c-1.463,1.886-94.892-192.214-7.094-331.629
							c174.803-271.379-32.642-414.739-107.562-512.886c-114.126-136.068-129.618-335.338,87.299-356.874
							c210.227-24.987,146.257-377.317,38.554-632.677c-65.196-120.772,38.772-317.659,175.632-393.76
							c138.858-80.801,310.604-40.817,427.094,203.617c151.182,278.532-61.867,530.169-118,706.099
							c-55.325,172.767,199.682,230.106,56.356,409.121c-118.863,156.729-285.844,291.821-176.582,417.578
							C2262.698,2591.967,2277.823,2713.747,2129.776,2914.138z"/>
					</defs>
					<clipPath id="SVGID_00000120527189482926461530000012128705366331550646_">
						<use xlink:href="#SVGID_00000164491313119991018050000013395217529156050621_"  style="overflow:visible;"/>
					</clipPath>
				</g>
			</g>
		</g>
		<g>
			<g>
				<path style="fill:#BFC8D6;" d="M3211.579,2868.331l-2598.204-22.458v66.451c0,18.036,11.332,33.372,26.68,36.105
					l734.694,130.854c8.719,1.553,17.561,1.965,26.359,1.228l1782.235-149.194c15.911-1.332,28.235-16.716,28.235-35.247V2868.331z"
					/>
				<g>
					<path style="fill:#BFC8D6;" d="M2255.437,2761.841L604.069,2883.405c-29.55,2.175-53.577-20.939-53.577-51.633V1602.045
						c0-30.694,24.027-55.577,53.577-55.577l58.421,33.672l1592.947-33.672c24.345,0,44.029,22.493,44.029,50.24v1111.65
						C2299.465,2736.106,2279.781,2760.048,2255.437,2761.841z"/>
					<path style="fill:#FFFFFF;" d="M2281.768,2761.841L630.4,2883.405c-29.551,2.175-53.577-20.939-53.577-51.633V1602.045
						c0-30.694,24.026-55.577,53.577-55.577h1651.368c24.345,0,44.028,22.493,44.028,50.24v1111.65
						C2325.796,2736.106,2306.113,2760.048,2281.768,2761.841z"/>
					<path style="fill:#D8DEE8;" d="M2230.323,2683.468L692.246,2789.062c-24.047,1.651-43.589-17.321-43.589-42.378V1670.056
						c0-25.058,19.542-45.456,43.589-45.559l1538.077-6.631c20.083-0.087,36.327,18.345,36.327,41.168v980.615
						C2266.65,2662.471,2250.406,2682.089,2230.323,2683.468z"/>
					<g>
						<polygon style="fill:#FFFFFF;" points="1237.749,1725.538 822.659,1726.619 822.597,1687.043 1237.69,1687.177 						"/>
						<polygon style="fill:#FFFFFF;" points="1433.212,1714.08 1337.323,1714.248 1337.281,1687.21 1433.171,1687.241 						"/>
						<polygon style="fill:#FFFFFF;" points="1433.27,1751.37 1337.381,1751.816 1337.339,1724.777 1433.228,1724.531 						"/>
						<polygon style="fill:#FFFFFF;" points="1911.127,1749.149 1539.119,1750.878 1539.077,1724.26 1911.087,1723.305 						"/>
						<polygon style="fill:#FFFFFF;" points="1972.184,1784.598 1603.877,1787.375 1603.836,1760.891 1972.145,1758.88 						"/>
						<polygon style="fill:#FFFFFF;" points="1972.24,1820.331 1603.933,1824.172 1603.892,1797.688 1972.2,1794.613 						"/>
						<polygon style="fill:#FFFFFF;" points="1972.295,1856.063 1603.99,1860.969 1603.949,1834.485 1972.255,1830.345 						"/>
						<polygon style="fill:#FFFFFF;" points="1433.327,1788.661 1337.439,1789.384 1337.397,1762.345 1433.286,1761.821 						"/>
						<polygon style="fill:#FFFFFF;" points="1433.385,1825.951 1337.497,1826.951 1337.455,1799.912 1433.344,1799.112 						"/>
						<polygon style="fill:#FFFFFF;" points="1433.443,1863.241 1337.555,1864.519 1337.513,1837.48 1433.401,1836.402 						"/>
						<polygon style="fill:#FFFFFF;" points="1433.5,1900.532 1337.613,1902.086 1337.571,1875.047 1433.459,1873.692 						"/>
						<polygon style="fill:#FFFFFF;" points="1690.447,1896.366 1454.425,1900.192 1454.384,1873.397 1690.406,1870.061 						"/>
						<polygon style="fill:#FFFFFF;" points="1433.558,1937.822 1337.671,1939.654 1337.629,1912.615 1433.516,1910.983 						"/>
						<polygon style="fill:#FFFFFF;" points="1433.615,1975.112 1337.729,1977.221 1337.687,1950.183 1433.574,1948.273 						"/>
						<polygon style="fill:#FFFFFF;" points="1433.673,2012.403 1337.787,2014.789 1337.745,1987.75 1433.632,1985.563 						"/>
						<polygon style="fill:#FFFFFF;" points="1801.084,1930.801 1539.404,1935.8 1539.363,1909.181 1801.044,1904.726 						"/>
						<polygon style="fill:#FFFFFF;" points="1937.088,1964.038 1604.161,1971.361 1604.12,1944.877 1937.048,1938.247 						"/>
						<polygon style="fill:#FFFFFF;" points="1937.143,1999.873 1604.218,2008.158 1604.177,1981.674 1937.103,1974.082 						"/>
						<polygon style="fill:#FFFFFF;" points="1433.731,2049.693 1337.845,2052.356 1337.803,2025.318 1433.689,2022.854 						"/>
						<polygon style="fill:#FFFFFF;" points="1433.788,2086.983 1337.903,2089.924 1337.861,2062.885 1433.747,2060.144 						"/>
						<polygon style="fill:#FFFFFF;" points="1433.846,2124.274 1337.961,2127.491 1337.919,2100.453 1433.805,2097.434 						"/>
						<polygon style="fill:#FFFFFF;" points="1433.904,2161.564 1338.019,2165.059 1337.978,2138.02 1433.862,2134.725 						"/>
						<polygon style="fill:#FFFFFF;" points="1433.961,2198.854 1338.077,2202.626 1338.036,2175.588 1433.92,2172.015 						"/>
						<polygon style="fill:#FFFFFF;" points="1434.019,2236.145 1338.135,2240.194 1338.094,2213.156 1433.978,2209.305 						"/>
						<polygon style="fill:#FFFFFF;" points="1434.077,2273.435 1338.193,2277.762 1338.152,2250.723 1434.035,2246.596 						"/>
						<polygon style="fill:#FFFFFF;" points="1434.134,2310.725 1338.251,2315.329 1338.21,2288.291 1434.093,2283.886 						"/>
						<polygon style="fill:#FFFFFF;" points="1434.192,2348.015 1338.31,2352.897 1338.268,2325.858 1434.15,2321.176 						"/>
						<polygon style="fill:#FFFFFF;" points="1434.25,2385.306 1338.368,2390.464 1338.326,2363.426 1434.208,2358.467 						"/>
						<polygon style="fill:#FFFFFF;" points="1434.307,2422.596 1338.426,2428.032 1338.384,2400.993 1434.266,2395.757 						"/>
						<polygon style="fill:#FFFFFF;" points="1434.365,2459.886 1338.484,2465.599 1338.442,2438.561 1434.323,2433.047 						"/>
						<polygon style="fill:#FFFFFF;" points="1434.422,2497.177 1338.542,2503.167 1338.5,2476.128 1434.381,2470.337 						"/>
						<polygon style="fill:#FFFFFF;" points="1434.48,2534.467 1338.6,2540.735 1338.558,2513.696 1434.439,2507.628 						"/>
						<polygon style="fill:#FFFFFF;" points="1434.538,2571.757 1338.658,2578.302 1338.616,2551.263 1434.496,2544.918 						"/>
						<polygon style="fill:#FFFFFF;" points="1434.595,2609.048 1338.716,2615.87 1338.674,2588.831 1434.554,2582.208 						"/>
						<polygon style="fill:#FFFFFF;" points="1434.653,2646.338 1338.774,2653.437 1338.732,2626.398 1434.611,2619.499 						"/>
						<polygon style="fill:#FFFFFF;" points="1434.711,2683.628 1338.832,2691.005 1338.79,2663.966 1434.669,2656.789 						"/>
						<polygon style="fill:#FFFFFF;" points="1715.002,1713.585 1453.486,1714.044 1453.444,1687.247 1714.962,1687.332 						"/>
						<polygon style="fill:#FFFFFF;" points="1912.237,2467.325 1540.262,2490.564 1540.22,2463.945 1912.197,2441.48 						"/>
						<polygon style="fill:#FFFFFF;" points="1973.289,2499.247 1605.014,2523.32 1604.973,2496.835 1973.249,2473.529 						"/>
						<polygon style="fill:#FFFFFF;" points="1973.344,2534.979 1605.071,2560.117 1605.03,2533.633 1973.304,2509.261 						"/>
						<polygon style="fill:#FFFFFF;" points="2132.097,2559.42 1773.361,2584.944 1773.32,2558.81 2132.058,2534.032 						"/>
						<polygon style="fill:#FFFFFF;" points="2132.152,2594.694 1773.417,2621.255 1773.376,2595.121 2132.113,2569.306 						"/>
						<polygon style="fill:#FFFFFF;" points="2132.206,2629.967 1773.473,2657.566 1773.433,2631.432 2132.167,2604.58 						"/>
						<polygon style="fill:#FFFFFF;" points="1716.13,2443.098 1454.636,2458.679 1454.595,2431.882 1716.089,2416.845 						"/>
						<polygon style="fill:#FFFFFF;" points="1911.627,2072.328 1539.633,2083.737 1539.592,2057.118 1911.587,2046.484 						"/>
						<polygon style="fill:#FFFFFF;" points="1972.681,2106.19 1604.388,2118.55 1604.348,2092.066 1972.641,2080.472 						"/>
						<polygon style="fill:#FFFFFF;" points="1972.736,2141.922 1604.445,2155.347 1604.404,2128.863 1972.697,2116.205 						"/>
						<polygon style="fill:#FFFFFF;" points="1972.792,2177.655 1604.502,2192.145 1604.461,2165.66 1972.752,2151.937 						"/>
						<polygon style="fill:#FFFFFF;" points="1690.955,2225.293 1454.943,2235.261 1454.901,2208.465 1690.915,2198.988 						"/>
						<polygon style="fill:#FFFFFF;" points="1801.588,2256.85 1539.919,2268.659 1539.878,2242.04 1801.548,2230.776 						"/>
						<polygon style="fill:#FFFFFF;" points="1937.586,2286.551 1604.673,2302.536 1604.632,2276.052 1937.546,2260.759 						"/>
						<polygon style="fill:#FFFFFF;" points="1937.641,2322.385 1604.73,2339.333 1604.689,2312.849 1937.601,2296.594 						"/>
						<polygon style="fill:#FFFFFF;" points="2011.499,2354.249 1682.595,2371.945 1682.554,2345.622 2011.459,2328.612 						"/>
						<polygon style="fill:#FFFFFF;" points="2011.554,2389.871 1682.651,2408.517 1682.61,2382.195 2011.515,2364.233 						"/>
						<polygon style="fill:#FFFFFF;" points="1715.51,2041.866 1454.004,2049.13 1453.962,2022.333 1715.469,2015.613 						"/>
						<polygon style="fill:#FFFFFF;" points="1237.842,1785.475 1000.254,1787.182 1000.194,1748.126 1237.782,1747.115 						"/>
						<polygon style="fill:#FFFFFF;" points="938.803,1787.624 983.551,1787.302 983.49,1748.197 938.742,1748.387 						"/>
						<polygon style="fill:#FFFFFF;" points="1237.927,1840.618 1000.341,1843.325 1000.281,1804.269 1237.868,1802.258 						"/>
						<polygon style="fill:#FFFFFF;" points="938.89,1844.026 983.638,1843.516 983.577,1804.411 938.829,1804.789 						"/>
						<polygon style="fill:#FFFFFF;" points="1238.012,1895.761 1000.428,1899.469 1000.367,1860.412 1237.953,1857.401 						"/>
						<polygon style="fill:#FFFFFF;" points="938.977,1900.428 983.725,1899.729 983.664,1860.624 938.916,1861.192 						"/>
						<polygon style="fill:#FFFFFF;" points="1238.617,2287.178 823.554,2306.065 823.493,2266.489 1238.558,2248.818 						"/>
						<polygon style="fill:#FFFFFF;" points="1238.71,2347.116 1001.138,2359.014 1001.078,2319.958 1238.65,2308.756 						"/>
						<polygon style="fill:#FFFFFF;" points="939.69,2362.091 984.436,2359.85 984.375,2320.745 939.63,2322.855 						"/>
						<polygon style="fill:#FFFFFF;" points="1238.795,2402.259 1001.225,2415.157 1001.164,2376.101 1238.736,2363.899 						"/>
						<polygon style="fill:#FFFFFF;" points="939.778,2418.493 984.523,2416.064 984.462,2376.959 939.717,2379.257 						"/>
						<polygon style="fill:#FFFFFF;" points="1238.88,2457.402 1001.312,2471.301 1001.251,2432.244 1238.821,2419.042 						"/>
						<polygon style="fill:#FFFFFF;" points="939.865,2474.896 984.609,2472.278 984.549,2433.173 939.804,2435.659 						"/>
						<polygon style="fill:#FFFFFF;" points="1238.098,1951.277 823.019,1959.515 822.957,1919.939 1238.039,1912.917 						"/>
						<polygon style="fill:#FFFFFF;" points="1238.191,2011.215 1000.609,2017.018 1000.549,1977.962 1238.131,1972.855 						"/>
						<polygon style="fill:#FFFFFF;" points="939.159,2018.519 983.906,2017.426 983.846,1978.321 939.099,1979.282 						"/>
						<polygon style="fill:#FFFFFF;" points="1238.276,2066.358 1000.696,2073.162 1000.636,2034.105 1238.217,2027.998 						"/>
						<polygon style="fill:#FFFFFF;" points="939.247,2074.921 983.993,2073.64 983.933,2034.534 939.186,2035.685 						"/>
						<polygon style="fill:#FFFFFF;" points="1238.447,2177.36 1000.871,2186.177 1000.811,2147.121 1238.388,2139 						"/>
						<polygon style="fill:#FFFFFF;" points="939.422,2188.458 984.168,2186.797 984.108,2147.692 939.362,2149.222 						"/>
						<polygon style="fill:#FFFFFF;" points="1238.533,2232.503 1000.958,2242.321 1000.897,2203.264 1238.473,2194.143 						"/>
						<polygon style="fill:#FFFFFF;" points="939.509,2244.86 984.255,2243.011 984.195,2203.906 939.449,2205.624 						"/>
						<polygon style="fill:#FFFFFF;" points="1238.361,2121.501 1000.783,2129.305 1000.723,2090.249 1238.302,2083.141 						"/>
						<polygon style="fill:#FFFFFF;" points="939.334,2131.323 984.08,2129.854 984.02,2090.748 939.273,2092.087 						"/>
						<polygon style="fill:#FFFFFF;" points="1238.965,2512.526 823.913,2538.556 823.852,2498.98 1238.906,2474.166 						"/>
						<polygon style="fill:#FFFFFF;" points="1239.058,2572.464 1001.493,2588.451 1001.432,2549.394 1238.999,2534.104 						"/>
						<polygon style="fill:#FFFFFF;" points="940.047,2592.585 984.791,2589.574 984.73,2550.469 939.986,2553.349 						"/>
						<polygon style="fill:#FFFFFF;" points="1239.143,2627.607 1001.579,2644.594 1001.519,2605.538 1239.084,2589.247 						"/>
						<polygon style="fill:#FFFFFF;" points="940.134,2648.988 984.878,2645.788 984.817,2606.683 940.073,2609.751 						"/>
						<polygon style="fill:#FFFFFF;" points="1239.229,2682.75 1001.666,2700.737 1001.606,2661.681 1239.169,2644.389 						"/>
						<polygon style="fill:#FFFFFF;" points="940.221,2705.39 984.964,2702.002 984.904,2662.897 940.16,2666.154 						"/>
						<polygon style="fill:#FFFFFF;" points="1289.665,2679.121 1280.524,2679.814 1278.99,1687.191 1288.132,1687.194 						"/>
					</g>
					<path style="fill:#FFFFFF;" d="M1514.405,1580.104c0,11.426-8.5,20.716-18.995,20.749
						c-10.509,0.034-19.037-9.223-19.037-20.675c0-11.452,8.528-20.742,19.037-20.75
						C1505.906,1559.42,1514.405,1568.677,1514.405,1580.104z"/>
					<path style="opacity:0.48;fill:#FFFFFF;" d="M630.394,2883.405l1643.013-120.949l8.361-0.615
						c11.17-0.822,21.327-6.344,29.085-14.72c-118.233-6.47-191.67-48.428-239.042-91.782
						c-95.133-87.065-78.632-172.924-181.222-230.167c-127.957-71.4-228.57,19.072-325.669-70.192
						c-58.866-54.119-29.966-94.475-102.401-175.348c-80.227-89.574-132.459-59.464-213.087-140.081
						c-101.946-101.935-50.959-181.243-138.774-254.428c-106.532-88.786-221.421-6.609-322.831-91.757
						c-43.739-36.724-67.74-90.115-80.271-146.898H630.4c-29.55,0-53.577,24.883-53.577,55.577v1229.727
						C576.823,2862.463,600.845,2885.576,630.394,2883.405z"/>
				</g>
				
					<linearGradient id="SVGID_00000024713743802408480540000006821425530603801999_" gradientUnits="userSpaceOnUse" x1="613.3758" y1="2887.4927" x2="3211.5793" y2="2887.4927">
					<stop  offset="0.494" style="stop-color:#EBEFF2"/>
					<stop  offset="1" style="stop-color:#FFFFFF"/>
				</linearGradient>
				<path style="fill:url(#SVGID_00000024713743802408480540000006821425530603801999_);" d="M2359.573,2755.098L613.376,2883.055
					l761.374,135.605c8.719,1.553,17.561,1.965,26.359,1.229l1810.47-151.558l-824.229-112.364
					C2378.133,2754.711,2368.836,2754.419,2359.573,2755.098z"/>
				<polygon style="fill:#D8DEE8;" points="868.173,2884.156 2321.935,2776.04 2771.861,2836.883 1330.623,2952.454 				"/>
			</g>
		</g>
		<g>
			<path style="fill:#D8DEE8;" d="M906.703,2169.881c-33.152,38.709-28.118,77.082-28.118,77.082
				c3.319,25.303,18.374,44.043,25.354,52.533c211.767,257.53,301.23,308.489,301.23,308.489
				c60.869,34.869,255.47,136.756,469.086,86.257c56.81-13.43,125.788-36.921,161.958-61.606
				c287.162-195.989,274.372-368.424,280.656-420.074l-284.424,274.311C1832.445,2486.872,977.224,2087.538,906.703,2169.881z"/>
			<g>
				<path style="fill:#321840;" d="M1508.793,2012.717c87.745-2.264,155.724,72.785,151.724,166.89
					c-3.966,93.301-77.295,169.929-163.678,171.894c-86.266,1.962-154-71.245-151.388-164.25
					C1348.085,2093.446,1421.169,2014.977,1508.793,2012.717z"/>
			</g>
			<g>
				
					<linearGradient id="SVGID_00000002365815401185815470000016675384202659678388_" gradientUnits="userSpaceOnUse" x1="1195.541" y1="2178.385" x2="1812.0504" y2="2178.385">
					<stop  offset="0" style="stop-color:#AA80F9"/>
					<stop  offset="0.9964" style="stop-color:#6165D7"/>
				</linearGradient>
				<path style="fill:url(#SVGID_00000002365815401185815470000016675384202659678388_);" d="M1514.632,1847.186
					c172.992-4.721,306.118,143.73,296.974,328.754c-8.991,181.919-152.571,330.109-320.348,333.687
					c-167.289,3.567-299.472-137.945-295.635-318.742C1199.524,2007.021,1342.161,1851.893,1514.632,1847.186z M1496.837,2351.5
					c86.384-1.965,159.713-78.594,163.679-171.894c4-94.105-63.979-169.153-151.724-166.889
					c-87.624,2.261-160.707,80.729-163.341,174.533C1342.839,2280.255,1410.572,2353.462,1496.837,2351.5L1496.837,2351.5z"/>
			</g>
			<g>
				<path style="fill:#C7CCD3;" d="M1845.469,1810.617c-272.494-187.205-586.992-95.961-798.274,89.428
					c-66.633,58.467-125.951,124.268-181.133,192.39c-20.486,25.29-58.659,56.554-47.073,96.838
					c5.398,18.768,21.326,35.631,32.545,51.079c30.997,42.683,63.837,84.015,99.383,122.73
					c56.702,61.758,119.302,112.085,188.215,157.569c-66.962-44.196-126.327-100.383-179.318-161.531
					c-34.639-39.97-66.502-100.245-83.192-150.537c-13.73-41.373-3.583-52.945,18.002-79.567
					c116.821-144.082,256.531-299.96,440.093-365.623c174.021-62.25,377.091-44.601,541.322,68.222
					C1865.854,1824.621,1855.664,1817.621,1845.469,1810.617z"/>
				<g>
					<path style="fill:#FFFFFF;" d="M2157.015,2121.361c13.68,17.998,13.085,44.861-1.402,64.858
						c-189.685,261.82-394.912,426.863-664.844,434.317c-1.684,0.048-3.39,0.09-5.067,0.124
						c-266.872,5.425-457.596-147.254-629.11-396.012c-13.071-18.95-12.054-45.567,2.409-64.261
						c186.451-241.109,391.607-424.802,663.933-432.525c5.161-0.146,10.345-0.229,15.552-0.247
						C1805.54,1726.691,1973.643,1879.874,2157.015,2121.361z M1491.258,2509.626c167.776-3.578,311.356-151.766,320.347-333.688
						c9.144-185.023-123.982-333.474-296.972-328.753c-172.473,4.707-315.111,159.834-319.012,343.699
						C1191.784,2371.682,1323.968,2513.193,1491.258,2509.626L1491.258,2509.626z"/>
				</g>
				<path style="fill:#C7CCD3;" d="M1750.826,1765.056l-30.718-21.089c36.095,13.855,70.438,31.373,103.534,52.265l30.599,21.02
					C1821.189,1796.389,1786.885,1778.895,1750.826,1765.056L1750.826,1765.056z"/>
				<path style="fill:#9E9E9E;" d="M1854.24,1817.252l-30.599-21.02c7.336,4.631,14.61,9.427,21.828,14.385l30.569,21
					C1868.831,1826.666,1861.567,1821.876,1854.24,1817.252L1854.24,1817.252z"/>
			</g>
		</g>
		<g>
			<g>
				<g>
					
						<linearGradient id="SVGID_00000078036433802577847280000010934775038578661280_" gradientUnits="userSpaceOnUse" x1="2451.6155" y1="1984.991" x2="3199.6316" y2="1996.588">
						<stop  offset="0" style="stop-color:#AA80F9"/>
						<stop  offset="0.9964" style="stop-color:#6165D7"/>
					</linearGradient>
					<path style="fill:url(#SVGID_00000078036433802577847280000010934775038578661280_);" d="M3030.431,2224.018l-132.908-2.624
						v-203.708c0-73.667-52.798-127.512-114.716-120.375c-58.86,6.785-104.644,66.733-104.644,133.931v185.821l-100.381-1.981
						v-177.636c0-63.778,19.668-126.072,56.303-176.68c37.877-52.324,90.272-87.215,148.721-97.233
						c61.463-10.535,122.21,7.62,169.926,52.845c49.569,46.981,77.698,116.064,77.698,193.094V2224.018z"/>
				</g>
				
					<linearGradient id="SVGID_00000137818273496560962050000011714678277140623505_" gradientUnits="userSpaceOnUse" x1="2461.3762" y1="2340.2324" x2="3216.5925" y2="2351.9412">
					<stop  offset="0" style="stop-color:#AA80F9"/>
					<stop  offset="0.9964" style="stop-color:#6165D7"/>
				</linearGradient>
				<path style="fill:url(#SVGID_00000137818273496560962050000011714678277140623505_);" d="M3058.425,2074.853l-493.385,22.622
					c-30.456,1.397-54.644,32.312-54.644,69.062v321.667c0,36.534,24.096,69.2,54.439,73.061l491.145,62.487
					c43.56,5.543,79.949-26.481,80.182-71.698l2.033-398.387C3138.427,2108.123,3102.218,2072.845,3058.425,2074.853z"/>
				
					<linearGradient id="SVGID_00000109734882673547827380000007699658747834208422_" gradientUnits="userSpaceOnUse" x1="2728.4573" y1="2361.7019" x2="2855.2332" y2="2361.7019">
					<stop  offset="0" style="stop-color:#AA80F9"/>
					<stop  offset="0.9964" style="stop-color:#6165D7"/>
				</linearGradient>
				<path style="fill:url(#SVGID_00000109734882673547827380000007699658747834208422_);" d="M2855.233,2296.867
					c0.115-41.325-30.876-74.638-67.673-72.736c-31.66,1.634-57.292,30.444-59.006,65.632
					c-1.327,27.258,11.133,51.834,30.361,65.406c8.27,5.838,12.381,17.077,10.739,27.701l-13.831,89.475
					c-1.748,11.314,6.034,22.529,16.376,23.515l35.822,3.417c10.678,1.021,18.865-8.934,17.083-20.849l-14.017-93.721
					c-1.663-11.119,3.256-21.607,11.952-26.929C2842.157,2346.071,2855.157,2323.431,2855.233,2296.867z"/>
			</g>
			<g>
				<g>
					
						<linearGradient id="SVGID_00000138548944572426021210000006632997406530574775_" gradientUnits="userSpaceOnUse" x1="2631.4697" y1="1166.2009" x2="2782.1804" y2="2371.8892">
						<stop  offset="0.0036" style="stop-color:#E38DDD"/>
						<stop  offset="1" style="stop-color:#9571F6"/>
					</linearGradient>
					<path style="fill:url(#SVGID_00000138548944572426021210000006632997406530574775_);" d="M2974.848,2224.018l-132.908-2.624
						v-203.708c0-73.667-52.798-127.512-114.716-120.375c-58.86,6.785-104.644,66.733-104.644,133.931v185.821l-100.381-1.981
						v-177.636c0-63.778,19.668-126.072,56.303-176.68c37.877-52.324,90.272-87.215,148.721-97.233
						c61.463-10.535,122.21,7.62,169.926,52.845c49.569,46.981,77.698,116.064,77.698,193.094V2224.018z"/>
				</g>
				
					<linearGradient id="SVGID_00000127738186233765263330000001411361151819802814_" gradientUnits="userSpaceOnUse" x1="2624.5095" y1="1167.0703" x2="2775.2202" y2="2372.7583">
					<stop  offset="0.0036" style="stop-color:#E38DDD"/>
					<stop  offset="1" style="stop-color:#9571F6"/>
				</linearGradient>
				<path style="fill:url(#SVGID_00000127738186233765263330000001411361151819802814_);" d="M3002.841,2074.853l-493.385,22.622
					c-30.457,1.397-54.644,32.312-54.644,69.062v321.667c0,36.534,24.096,69.2,54.439,73.061l491.145,62.487
					c43.56,5.543,79.949-26.481,80.182-71.698l2.033-398.387C3082.844,2108.123,3046.635,2072.845,3002.841,2074.853z"/>
				<path style="fill:#F4F7FA;" d="M2799.649,2296.867c0.115-41.325-30.876-74.638-67.673-72.736
					c-31.66,1.634-57.292,30.444-59.006,65.632c-1.327,27.258,11.133,51.834,30.361,65.406c8.27,5.838,12.381,17.077,10.739,27.701
					l-13.831,89.475c-1.748,11.314,6.034,22.529,16.376,23.515l35.822,3.417c10.678,1.021,18.865-8.934,17.083-20.849
					l-14.017-93.721c-1.663-11.119,3.256-21.607,11.952-26.929C2786.574,2346.071,2799.574,2323.431,2799.649,2296.867z"/>
			</g>
		</g>
		<g>
			<g>
				<g>
					
						<linearGradient id="SVGID_00000134248149029642442070000014841276041302754961_" gradientUnits="userSpaceOnUse" x1="1189.9155" y1="1862.8832" x2="1048.7533" y2="1671.4441">
						<stop  offset="0" style="stop-color:#AA80F9"/>
						<stop  offset="0.9964" style="stop-color:#6165D7"/>
					</linearGradient>
					<path style="fill:url(#SVGID_00000134248149029642442070000014841276041302754961_);" d="M1055.529,1957.531
						c-10.125,0.173-19.076-7.907-19.076-18.047v-249.69c0-10.14,8.215-18.359,18.339-18.359H1253.9
						c9.873,0,17.865,8.104,17.865,18.101s-7.253,18.119-17.126,18.141l-180.074,0.398V1938.9
						C1074.565,1949.018,1065.641,1957.358,1055.529,1957.531z"/>
				</g>
				<g>
					
						<linearGradient id="SVGID_00000139974445177893376050000018328745391417284526_" gradientUnits="userSpaceOnUse" x1="1187.3958" y1="-10870.1143" x2="1045.5762" y2="-11062.4453" gradientTransform="matrix(1 0 0 -1 0 -8362)">
						<stop  offset="0" style="stop-color:#AA80F9"/>
						<stop  offset="0.9964" style="stop-color:#6165D7"/>
					</linearGradient>
					<path style="fill:url(#SVGID_00000139974445177893376050000018328745391417284526_);" d="M1253.9,2689.813l-199.108,12.296
						c-10.125,0.625-18.339-7.087-18.339-17.227v-249.69c0-10.14,8.951-18.721,19.076-19.172
						c10.113-0.451,19.037,7.391,19.037,17.509v230.826l180.074-10.775c9.873-0.588,17.496,7.036,17.496,17.033
						S1263.773,2689.204,1253.9,2689.813z"/>
				</g>
			</g>
			<g>
				<g>
					
						<linearGradient id="SVGID_00000083771545633142053020000001529271415859129527_" gradientUnits="userSpaceOnUse" x1="3781.6108" y1="1852.8943" x2="3649.0525" y2="1673.1237" gradientTransform="matrix(-1 0 0 1 5619 0)">
						<stop  offset="0" style="stop-color:#AA80F9"/>
						<stop  offset="0.9964" style="stop-color:#6165D7"/>
					</linearGradient>
					<path style="fill:url(#SVGID_00000083771545633142053020000001529271415859129527_);" d="M1963.304,1941.972
						c-9.053,0.155-15.609-7.488-15.609-17.076v-218.741l-166.665,0.364c-9.264,0.02-17.172-7.825-17.172-17.524
						c0-9.699,7.123-17.561,16.386-17.561h182.27c9.043,0,16.364,7.756,16.364,17.324v235.606
						C1978.878,1933.933,1972.347,1941.817,1963.304,1941.972z"/>
				</g>
				<g>
					
						<linearGradient id="SVGID_00000068669875355819249440000004881523274993132705_" gradientUnits="userSpaceOnUse" x1="3784.1216" y1="-10829.0078" x2="3652.0999" y2="-11008.0508" gradientTransform="matrix(-1 0 0 -1 5619 -8362)">
						<stop  offset="0" style="stop-color:#AA80F9"/>
						<stop  offset="0.9964" style="stop-color:#6165D7"/>
					</linearGradient>
					<path style="fill:url(#SVGID_00000068669875355819249440000004881523274993132705_);" d="M1962.515,2646.054l-182.27,11.256
						c-9.263,0.572-16.779-6.826-16.779-16.525s8.301-17.998,17.565-18.55l166.665-9.869v-218.741
						c0-9.588,6.556-17.696,15.609-18.099c9.043-0.404,15.574,7.019,15.574,16.586v235.606
						C1978.878,2637.287,1971.557,2645.495,1962.515,2646.054z"/>
				</g>
			</g>
		</g>
		<path style="opacity:0.8;fill:#FFFFFF;" d="M1549.918,2124.857c-25.318-2.132-49.192,12.004-59.47,35.239
			c-25.49,57.616,23.958,72.653,23.958,72.653l1199.065,263.111l15.36-271.729L1549.918,2124.857z"/>
		<g>
			
				<linearGradient id="SVGID_00000090271778841766270190000010279545555915268287_" gradientUnits="userSpaceOnUse" x1="216.284" y1="581.3364" x2="2071.2715" y2="1536.5415">
				<stop  offset="0" style="stop-color:#444B8C"/>
				<stop  offset="0.9964" style="stop-color:#3E4177"/>
			</linearGradient>
			<path style="fill:url(#SVGID_00000090271778841766270190000010279545555915268287_);" d="M1303.833,1220.1
				c30.077,15.271,67.865,1.249,84.399-31.318c16.535-32.567,5.557-71.348-24.52-86.619c-1.558-0.792-3.148-1.456-4.743-2.093
				c5.588-18.021,9.801-36.182,12.627-54.351c1.724-0.005,3.453-0.034,5.212-0.191c34.315-3.059,61.549-34.591,60.832-70.432
				c-0.719-35.84-29.12-62.415-63.435-59.356c-1.794,0.161-3.555,0.444-5.307,0.755c-3.584-17.761-8.496-35.111-14.692-51.903
				c1.578-0.923,3.149-1.878,4.684-2.953c29.358-20.568,38.744-61.164,20.965-90.672c-17.78-29.509-55.994-36.755-85.352-16.188
				c-1.505,1.055-2.919,2.193-4.318,3.348c-11.596-12.819-24.313-24.698-38.074-35.54c0.968-1.586,1.914-3.193,2.771-4.88
				c16.535-32.568,38.143-68.143,7.83-82.94c-70.123-34.232-100.214-4.928-116.75,27.639c-0.856,1.687-1.595,3.4-2.305,5.117
				c-16.873-4.711-33.967-7.969-51.16-9.766c0.108-1.81,0.191-3.625,0.155-5.462c-0.719-35.839,9.915-55.234-24.53-55.904
				c-75.113-1.461-100.455,31.142-99.737,66.98c0.038,1.873,0.194,3.705,0.38,5.524c-17.213,4.906-34.118,11.179-50.572,18.767
				c-0.783-1.599-1.594-3.187-2.523-4.731c-17.78-29.509-55.993-36.755-85.352-16.185c-29.359,20.569-38.745,61.164-20.965,90.672
				c0.91,1.512,1.909,2.926,2.922,4.32c-13.001,13.003-25.177,27.122-36.427,42.267c-1.456-0.913-2.932-1.805-4.49-2.596
				c-30.077-15.271-67.864-1.249-84.398,31.318c-16.536,32.567-5.558,71.348,24.519,86.619c1.558,0.792,3.149,1.456,4.744,2.092
				c-5.587,18.021-9.802,36.182-12.627,54.351c-1.724,0.005-3.454,0.034-5.209,0.189c-34.317,3.061-61.552,34.593-60.834,70.433
				c0.719,35.84,29.12,62.413,63.436,59.354c1.792-0.16,3.554-0.442,5.305-0.754c3.584,17.761,8.495,35.111,14.691,51.903
				c-1.578,0.924-3.149,1.878-4.683,2.953c-29.358,20.568-38.744,61.164-20.964,90.673c17.779,29.509,76.643,43.218,106,22.65
				c1.505-1.054-17.73-8.655-16.331-9.81c11.596,12.819,24.314,24.698,38.073,35.54c-0.966,1.587-1.914,3.193-2.77,4.88
				c-16.535,32.568-5.558,71.349,24.519,86.619c30.077,15.271,67.864,1.249,84.4-31.318c0.856-1.687,1.594-3.4,2.305-5.117
				c16.872,4.711,33.967,7.969,51.159,9.766c-0.107,1.811-0.191,3.625-0.154,5.462c0.719,35.839,29.12,62.414,63.435,59.355
				c34.315-3.059,61.551-34.593,60.832-70.432c-0.038-1.873-0.194-3.704-0.38-5.524c17.214-4.907,34.119-11.18,50.573-18.767
				c0.782,1.599,1.594,3.187,2.523,4.729c17.78,29.508,55.993,36.757,85.352,16.187c29.36-20.569,38.746-61.164,20.966-90.674
				c-0.911-1.51-1.909-2.923-2.922-4.318c13.001-13.003,25.177-27.121,36.427-42.267
				C1300.799,1218.417,1302.275,1219.31,1303.833,1220.1z M928.892,1224.858c-109.205-55.445-149.063-196.248-89.027-314.493
				c60.035-118.246,197.23-169.155,306.434-113.71c109.204,55.445,149.062,196.248,89.027,314.494
				C1175.291,1229.394,1038.095,1280.303,928.892,1224.858z"/>
			
				<linearGradient id="SVGID_00000008116497920346701890000004576684992661201323_" gradientUnits="userSpaceOnUse" x1="220.9371" y1="572.2983" x2="2075.9241" y2="1527.5032">
				<stop  offset="0" style="stop-color:#444B8C"/>
				<stop  offset="0.9964" style="stop-color:#3E4177"/>
			</linearGradient>
			<path style="fill:url(#SVGID_00000008116497920346701890000004576684992661201323_);" d="M1376.807,1045.53
				c34.315-3.06,61.549-34.593,60.832-70.433c-0.719-35.839-29.12-62.415-63.435-59.355c-1.794,0.159-3.555,0.443-5.307,0.754
				c-3.583-17.762-8.496-35.11-14.692-51.903c1.578-0.922,3.149-1.878,4.684-2.953c29.358-20.568,65.679-70.267,44.967-97.795
				c-39.312-52.247-79.996-29.632-109.354-9.065c-1.505,1.055-2.919,2.192-4.317,3.347c-11.597-12.819-24.315-24.697-38.075-35.539
				c0.968-1.586,1.914-3.192,2.771-4.879c9-17.725,9.794-37.267,3.85-53.88c-28.357,49.909-56.332,100.028-83.804,150.42
				c87.119,63.839,114.854,189.645,60.399,296.901c-46.145,90.889-137.875,141.923-227.442,135.528
				c-3.995,10.362-7.918,20.78-12.197,31.041c-11.61,27.848-24.8,55.122-38.007,82.361c8.306,1.566,16.648,2.799,25.014,3.674
				c-0.107,1.812-0.191,3.626-0.154,5.462c0.719,35.84,22.478,66.29,84.67,62.991c34.402-1.824,40.315-38.228,39.597-74.068
				c-0.038-1.872-0.194-3.704-0.38-5.523c17.214-4.907,34.119-11.18,50.572-18.768c0.782,1.599,1.594,3.188,2.523,4.729
				c17.78,29.51,79.46,42.047,108.819,21.478c29.359-20.57,15.278-66.454-2.502-95.964c-0.911-1.512-1.909-2.925-2.922-4.321
				c13.001-13.002,25.177-27.121,36.427-42.266c1.455,0.914,2.931,1.805,4.489,2.594c30.077,15.272,67.865,1.249,84.4-31.318
				c16.534-32.566,5.557-71.349-24.521-86.619c-1.558-0.791-3.149-1.456-4.744-2.092c5.588-18.021,9.801-36.183,12.627-54.35
				C1373.319,1045.715,1375.049,1045.686,1376.807,1045.53z"/>
			
				<linearGradient id="SVGID_00000082354208969672193400000001559493362909059743_" gradientUnits="userSpaceOnUse" x1="1419.053" y1="520.7629" x2="-335.6456" y2="3002.0784">
				<stop  offset="0" style="stop-color:#AA80F9"/>
				<stop  offset="0.9964" style="stop-color:#6165D7"/>
			</linearGradient>
			<path style="fill:url(#SVGID_00000082354208969672193400000001559493362909059743_);" d="M1336.182,1223.779
				c30.077,15.271,67.865,1.249,84.4-31.319c16.535-32.567,5.557-71.347-24.521-86.619c-1.557-0.791-3.149-1.456-4.743-2.092
				c5.588-18.021,9.801-36.182,12.626-54.352c1.724-0.004,3.454-0.033,5.211-0.19c34.315-3.059,61.55-34.591,60.832-70.432
				c-0.719-35.841-29.12-62.415-63.435-59.356c-1.794,0.161-3.555,0.444-5.307,0.755c-3.584-17.762-8.496-35.111-14.692-51.903
				c1.579-0.924,3.149-1.878,4.684-2.953c29.358-20.568,38.745-61.164,20.965-90.673c-17.78-29.508-55.993-36.755-85.352-16.187
				c-1.505,1.055-2.92,2.193-4.319,3.348c-11.595-12.819-24.313-24.698-38.073-35.539c0.967-1.586,1.915-3.194,2.772-4.88
				c16.534-32.568,5.557-71.348-24.52-86.619c-30.078-15.271-67.864-1.249-84.4,31.318c-0.856,1.687-1.595,3.4-2.305,5.117
				c-16.873-4.711-33.968-7.969-51.159-9.766c0.107-1.811,0.19-3.625,0.154-5.462c-0.719-35.839-29.12-62.413-63.435-59.354
				c-34.315,3.058-61.55,34.593-60.831,70.431c0.038,1.874,0.195,3.704,0.38,5.524c-17.213,4.907-34.118,11.18-50.573,18.767
				c-0.782-1.599-1.593-3.188-2.522-4.731c-17.779-29.508-55.993-36.755-85.352-16.186c-29.359,20.57-38.744,61.165-20.965,90.673
				c0.911,1.512,1.909,2.926,2.922,4.32c-13.001,13.003-25.178,27.121-36.429,42.267c-1.455-0.913-2.93-1.805-4.489-2.596
				c-30.077-15.271-67.863-1.249-84.399,31.318c-16.536,32.567-5.557,71.348,24.52,86.619c1.559,0.792,3.149,1.456,4.744,2.092
				c-5.588,18.021-9.802,36.182-12.627,54.351c-1.724,0.005-3.454,0.034-5.211,0.189c-34.315,3.061-61.551,34.593-60.832,70.433
				c0.718,35.84,29.12,62.413,63.434,59.354c1.793-0.16,3.555-0.442,5.306-0.754c3.584,17.761,8.496,35.111,14.692,51.904
				c-1.578,0.923-3.149,1.877-4.683,2.953c-29.358,20.568-38.744,61.164-20.965,90.672c17.78,29.509,55.993,36.756,85.351,16.188
				c1.505-1.055,2.92-2.193,4.318-3.348c11.597,12.819,24.314,24.698,38.074,35.54c-0.967,1.586-1.914,3.193-2.77,4.88
				c-16.536,32.567-5.558,71.347,24.52,86.619c30.077,15.27,67.864,1.249,84.399-31.319c0.857-1.687,1.595-3.4,2.305-5.116
				c16.873,4.711,33.969,7.968,51.16,9.766c-0.106,1.811-0.19,3.625-0.154,5.462c0.719,35.838,29.12,62.414,63.435,59.354
				c34.315-3.059,61.551-34.593,60.831-70.432c-0.037-1.873-0.193-3.704-0.38-5.523c17.214-4.907,34.119-11.18,50.573-18.767
				c0.782,1.598,1.595,3.187,2.524,4.728c17.78,29.509,55.992,36.758,85.351,16.188c29.359-20.57,38.745-61.164,20.966-90.675
				c-0.911-1.51-1.909-2.924-2.922-4.319c13-13.002,25.177-27.121,36.428-42.266
				C1333.149,1222.096,1334.624,1222.987,1336.182,1223.779z M961.242,1228.536c-109.204-55.445-149.063-196.248-89.027-314.494
				c60.037-118.245,197.231-169.154,306.434-113.709c109.204,55.445,149.062,196.248,89.028,314.493
				C1207.64,1233.073,1070.446,1283.981,961.242,1228.536z"/>
		</g>
		<g>
			
				<linearGradient id="SVGID_00000062882011754196030450000008649951307701611148_" gradientUnits="userSpaceOnUse" x1="1202.8455" y1="962.1758" x2="2377.5964" y2="1567.1007">
				<stop  offset="0" style="stop-color:#444B8C"/>
				<stop  offset="0.9964" style="stop-color:#3E4177"/>
			</linearGradient>
			<path style="fill:url(#SVGID_00000062882011754196030450000008649951307701611148_);" d="M1891.583,1366.701
				c19.048,9.671,42.979,0.791,53.449-19.833c10.472-20.625,3.519-45.184-15.528-54.855c-0.986-0.501-1.994-0.922-3.004-1.325
				c3.539-11.412,6.207-22.914,7.996-34.42c1.091-0.003,2.187-0.021,3.3-0.121c21.731-1.937,38.979-21.906,38.524-44.604
				c-0.455-22.697-18.441-39.527-40.173-37.59c-1.136,0.102-2.252,0.281-3.361,0.478c-2.27-11.248-5.38-22.236-9.304-32.87
				c1-0.585,1.994-1.189,2.966-1.87c18.592-13.025,24.537-38.735,13.277-57.422c-11.26-18.688-35.461-23.277-54.053-10.252
				c-0.953,0.668-1.849,1.389-2.735,2.12c-7.344-8.118-15.397-15.641-24.112-22.507c0.613-1.005,1.212-2.022,1.755-3.09
				c10.472-20.625,24.156-43.154,4.959-52.526c-44.408-21.679-63.464-3.121-73.937,17.504c-0.542,1.068-1.01,2.153-1.459,3.24
				c-10.685-2.983-21.511-5.046-32.399-6.185c0.068-1.147,0.121-2.296,0.098-3.459c-0.456-22.696,6.279-34.979-15.535-35.403
				c-47.568-0.925-63.618,19.722-63.163,42.418c0.024,1.186,0.123,2.346,0.241,3.499c-10.901,3.107-21.607,7.08-32.027,11.885
				c-0.496-1.012-1.01-2.018-1.598-2.996c-11.26-18.688-35.46-23.277-54.053-10.25c-18.593,13.026-24.537,38.735-13.277,57.422
				c0.577,0.958,1.209,1.853,1.85,2.736c-8.234,8.234-15.945,17.176-23.069,26.768c-0.922-0.578-1.857-1.143-2.843-1.644
				c-19.048-9.671-42.978-0.791-53.449,19.834c-10.472,20.625-3.52,45.184,15.528,54.855c0.987,0.501,1.994,0.922,3.005,1.325
				c-3.539,11.412-6.208,22.914-7.997,34.42c-1.092,0.003-2.187,0.022-3.299,0.12c-21.733,1.938-38.98,21.907-38.526,44.605
				c0.455,22.697,18.442,39.526,40.173,37.589c1.135-0.101,2.251-0.28,3.36-0.477c2.27,11.248,5.38,22.235,9.304,32.87
				c-0.999,0.585-1.994,1.19-2.965,1.87c-18.592,13.025-24.536,38.735-13.276,57.422c11.26,18.688,48.537,27.37,67.129,14.344
				c0.953-0.668-11.228-5.481-10.342-6.213c7.343,8.118,15.398,15.641,24.111,22.507c-0.612,1.005-1.212,2.022-1.754,3.091
				c-10.472,20.625-3.52,45.184,15.528,54.855c19.048,9.671,42.978,0.791,53.45-19.833c0.542-1.068,1.009-2.153,1.459-3.241
				c10.685,2.984,21.511,5.047,32.399,6.185c-0.068,1.147-0.121,2.295-0.098,3.459c0.455,22.697,18.441,39.526,40.173,37.589
				c21.731-1.937,38.98-21.907,38.525-44.604c-0.024-1.186-0.123-2.346-0.241-3.498c10.901-3.107,21.607-7.08,32.027-11.885
				c0.495,1.012,1.009,2.018,1.598,2.995c11.26,18.687,35.46,23.278,54.052,10.251c18.594-13.026,24.537-38.735,13.277-57.423
				c-0.577-0.957-1.209-1.851-1.85-2.735c8.234-8.234,15.944-17.176,23.069-26.767
				C1889.662,1365.635,1890.596,1366.2,1891.583,1366.701z M1654.135,1369.714c-69.159-35.113-94.401-124.283-56.38-199.167
				c38.02-74.884,124.905-107.125,194.063-72.012c69.158,35.113,94.4,124.283,56.38,199.167
				C1810.178,1372.586,1723.293,1404.827,1654.135,1369.714z"/>
			
				<linearGradient id="SVGID_00000125563563243056270180000006161904667570394015_" gradientUnits="userSpaceOnUse" x1="1205.7922" y1="956.452" x2="2380.5427" y2="1561.3768">
				<stop  offset="0" style="stop-color:#444B8C"/>
				<stop  offset="0.9964" style="stop-color:#3E4177"/>
			</linearGradient>
			<path style="fill:url(#SVGID_00000125563563243056270180000006161904667570394015_);" d="M1937.797,1256.146
				c21.731-1.938,38.979-21.907,38.524-44.605c-0.455-22.697-18.441-39.527-40.173-37.589c-1.136,0.101-2.252,0.281-3.361,0.478
				c-2.269-11.249-5.38-22.235-9.304-32.87c1-0.584,1.994-1.189,2.966-1.87c18.592-13.025,41.594-44.5,28.477-61.933
				c-24.896-33.088-50.661-18.766-69.253-5.741c-0.953,0.668-1.849,1.389-2.734,2.12c-7.344-8.118-15.398-15.64-24.113-22.507
				c0.613-1.005,1.212-2.022,1.755-3.09c5.699-11.225,6.202-23.601,2.438-34.122c-17.958,31.607-35.675,63.347-53.073,95.26
				c55.172,40.429,72.737,120.101,38.251,188.025c-29.223,57.559-87.315,89.879-144.037,85.829
				c-2.53,6.562-5.015,13.16-7.724,19.658c-7.352,17.636-15.706,34.908-24.069,52.158c5.26,0.992,10.543,1.772,15.841,2.327
				c-0.068,1.147-0.121,2.296-0.098,3.459c0.455,22.697,14.235,41.981,53.621,39.892c21.787-1.155,25.531-24.21,25.076-46.907
				c-0.024-1.186-0.123-2.346-0.241-3.498c10.901-3.107,21.607-7.08,32.027-11.885c0.495,1.013,1.009,2.019,1.598,2.995
				c11.26,18.688,50.321,26.628,68.914,13.602c18.593-13.027,9.675-42.085-1.585-60.773c-0.577-0.957-1.209-1.852-1.85-2.736
				c8.234-8.234,15.945-17.175,23.069-26.767c0.922,0.579,1.856,1.143,2.843,1.643c19.048,9.672,42.979,0.791,53.45-19.833
				c10.471-20.624,3.519-45.185-15.529-54.855c-0.987-0.501-1.994-0.922-3.004-1.324c3.539-11.412,6.207-22.915,7.996-34.42
				C1935.588,1256.263,1936.683,1256.245,1937.797,1256.146z"/>
			
				<linearGradient id="SVGID_00000115505809263603738300000014392024892506652346_" gradientUnits="userSpaceOnUse" x1="1964.5509" y1="923.8151" x2="853.3122" y2="2495.2153">
				<stop  offset="0" style="stop-color:#AA80F9"/>
				<stop  offset="0.9964" style="stop-color:#6165D7"/>
			</linearGradient>
			<path style="fill:url(#SVGID_00000115505809263603738300000014392024892506652346_);" d="M1912.069,1369.03
				c19.048,9.671,42.978,0.791,53.45-19.834c10.471-20.625,3.519-45.184-15.529-54.855c-0.986-0.501-1.994-0.922-3.004-1.325
				c3.539-11.412,6.207-22.914,7.996-34.421c1.091-0.003,2.187-0.021,3.3-0.12c21.732-1.937,38.979-21.906,38.525-44.604
				c-0.455-22.698-18.441-39.527-40.173-37.59c-1.136,0.102-2.251,0.281-3.361,0.478c-2.27-11.248-5.38-22.236-9.304-32.87
				c1-0.585,1.994-1.189,2.966-1.87c18.592-13.025,24.537-38.735,13.277-57.423c-11.26-18.687-35.46-23.277-54.052-10.251
				c-0.953,0.668-1.849,1.389-2.735,2.12c-7.343-8.118-15.397-15.641-24.112-22.507c0.612-1.005,1.212-2.022,1.755-3.09
				c10.471-20.625,3.519-45.184-15.528-54.855c-19.048-9.671-42.978-0.791-53.45,19.834c-0.542,1.068-1.01,2.153-1.46,3.241
				c-10.686-2.984-21.512-5.047-32.399-6.185c0.068-1.147,0.12-2.296,0.098-3.459c-0.456-22.696-18.441-39.526-40.173-37.589
				c-21.731,1.937-38.979,21.907-38.524,44.603c0.024,1.187,0.123,2.346,0.24,3.498c-10.901,3.107-21.607,7.08-32.027,11.885
				c-0.495-1.012-1.009-2.019-1.597-2.996c-11.259-18.687-35.46-23.277-54.053-10.25c-18.593,13.027-24.536,38.735-13.277,57.423
				c0.577,0.957,1.209,1.853,1.851,2.736c-8.234,8.234-15.945,17.176-23.07,26.767c-0.922-0.578-1.856-1.143-2.843-1.644
				c-19.048-9.671-42.977-0.791-53.449,19.834c-10.472,20.625-3.519,45.184,15.528,54.855c0.987,0.501,1.994,0.922,3.004,1.325
				c-3.539,11.412-6.207,22.914-7.996,34.42c-1.092,0.003-2.188,0.021-3.3,0.12c-21.731,1.938-38.98,21.907-38.525,44.605
				c0.455,22.697,18.441,39.526,40.172,37.589c1.135-0.101,2.251-0.28,3.36-0.477c2.27,11.248,5.38,22.236,9.304,32.87
				c-1,0.585-1.994,1.189-2.966,1.87c-18.592,13.025-24.536,38.735-13.277,57.422c11.26,18.688,35.46,23.277,54.052,10.252
				c0.953-0.668,1.849-1.389,2.735-2.12c7.344,8.118,15.398,15.641,24.112,22.507c-0.612,1.005-1.212,2.022-1.754,3.091
				c-10.472,20.625-3.52,45.184,15.528,54.855c19.048,9.671,42.978,0.791,53.449-19.834c0.542-1.068,1.01-2.153,1.46-3.24
				c10.685,2.984,21.512,5.046,32.399,6.185c-0.067,1.147-0.121,2.296-0.098,3.459c0.456,22.696,18.441,39.526,40.173,37.589
				c21.731-1.937,38.979-21.907,38.524-44.604c-0.023-1.186-0.122-2.346-0.24-3.498c10.901-3.107,21.607-7.08,32.027-11.885
				c0.495,1.012,1.01,2.018,1.598,2.994c11.26,18.688,35.46,23.278,54.052,10.252c18.593-13.027,24.537-38.735,13.278-57.424
				c-0.577-0.957-1.209-1.852-1.851-2.735c8.233-8.234,15.944-17.175,23.07-26.767
				C1910.148,1367.964,1911.083,1368.529,1912.069,1369.03z M1674.622,1372.043c-69.158-35.113-94.401-124.282-56.38-199.167
				c38.021-74.884,124.905-107.124,194.063-72.011c69.158,35.113,94.4,124.283,56.38,199.166
				C1830.664,1374.916,1743.781,1407.156,1674.622,1372.043z"/>
		</g>
		<g>
			<g>
				
					<linearGradient id="SVGID_00000009555961101030751310000003478628493837624492_" gradientUnits="userSpaceOnUse" x1="-413.4336" y1="1855.1235" x2="-735.6984" y2="4350.0605" gradientTransform="matrix(-0.996 -0.0892 -0.0892 0.996 509.2159 18.7124)">
					<stop  offset="0" style="stop-color:#FFC444"/>
					<stop  offset="0.9964" style="stop-color:#F36F56"/>
				</linearGradient>
				<path style="fill:url(#SVGID_00000009555961101030751310000003478628493837624492_);" d="M846.849,2963.584
					c41.127,0.418,94.389-6.251,147.472-34.545c57.432-30.611,134.626-97.178,120.295-144.763
					c-5.35-17.765-23.861-34.225-41.414-34.386c-25.932-0.239-32.132,35.256-80.326,70.151c-8.906,6.449-54.955,39.792-75.07,25.365
					c-10-7.172-11.578-24.705-8.681-37.669c8.47-37.905,55.827-39.6,104.565-77.09c49.413-38.01,94.038-108.037,76.736-159.632
					c-9.943-29.65-40.984-55.143-63.282-50.756c-9.529,1.875-16.097,8.938-49.75,67.329c-27.621,47.926-34.074,62.04-49.42,65.444
					c-15.795,3.504-39.125-4.757-46.846-20.701c-20.107-41.525,87.261-90.56,106.415-200.015
					c8.584-49.05,1.773-123.498-41.577-143.207c-29.305-13.324-73.862-0.973-91.93,25.388c-16.288,23.764-0.91,44.119-16.66,99.371
					c-4.779,16.767-14.615,51.269-28.903,51.846c-16.774,0.677-31.315-45.742-34.626-57.026
					c-24.928-84.953,15.862-123.837-11.005-166.399c-20.951-33.189-71.474-50.291-113.788-38.264
					c-37.027,10.524-68.863,43.663-74.09,80.494c-5.318,37.473,22.989,77.786,79.604,158.413
					c26.848,38.234,48.591,64.39,44.068,99.598c-2.205,17.164-11.204,40.778-23.738,41.885
					c-27.664,2.445-31.246-108.39-94.258-131.1c-32.253-11.625-74.821,1.732-95.523,29.889
					c-25.364,34.499-15.19,87.527,10.137,117.2c33.044,38.716,72.605,15.085,137.347,59.291
					c28.721,19.61,73.017,59.821,63.396,88.931c-4.188,12.675-18.892,24.137-33.936,24.493
					c-33.719,0.799-39.844-54.892-91.355-83.746c-37.112-20.788-90.742-23.702-105.395-3.035
					c-20.685,29.177,36.732,104.767,67.82,138.679C570.714,2866.013,660.892,2945.449,846.849,2963.584z"/>
				<g style="opacity:0.5;">
					<path style="fill:#FFFFFF;" d="M832.115,2944.711c13.641-91.342-30.359-283.652-66.643-375.913
						c-35.355-89.902-64.38-229.82-64.669-231.223l-6.787,1.399c0.29,1.408,29.432,141.9,65.007,232.36
						c36.007,91.559,79.711,282.131,66.238,372.354L832.115,2944.711z"/>
				</g>
			</g>
			
				<linearGradient id="SVGID_00000026131433912531652720000006779508698750731148_" gradientUnits="userSpaceOnUse" x1="-455.4189" y1="2541.178" x2="-858.9854" y2="3024.9712" gradientTransform="matrix(-0.996 -0.0892 -0.0892 0.996 509.2159 18.7124)">
				<stop  offset="0.0036" style="stop-color:#E38DDD"/>
				<stop  offset="1" style="stop-color:#9571F6"/>
			</linearGradient>
			<path style="fill:url(#SVGID_00000026131433912531652720000006779508698750731148_);" d="M942.036,2984.135
				c34.574-39.938,86.58-112.929,103.898-215.262c7.136-42.167,21.074-124.524-23.258-200.613
				c-22.096-37.924-71.003-95.465-108.603-83.498c-24.193,7.701-42.003,43.638-37.958,72.541
				c4.078,29.143,27.97,33.949,49.907,84.75c8.118,18.798,17.341,40.837,7.743,51.961c-8.016,9.29-27.758,9.344-41.904,2.074
				c-29.223-15.016-16.366-51.921-46.724-81.937c-21.587-21.344-59.635-33.875-77.817-19.605
				c-15.787,12.39-16.116,44.608-5.159,67.085c17.544,35.992,55.383,29.283,76.123,68.771c9.201,17.519,14.557,43.214,4.32,52.267
				c-11.665,10.315-42.15-2.239-61.132-16.497c-25.061-18.824-24.474-36.414-41.752-40.173
				c-19.272-4.193-45.303,12.188-50.954,32.382c-7.913,28.284,24.596,62.465,51.331,78.445
				c34.227,20.457,61.715,12.711,77.074,37.849c5.637,9.226,10.247,23.872,4.221,31.97c-8.597,11.553-35.349,5.089-53.112,0.797
				c-43.23-10.446-53.87-27.415-70.261-21.102c-16.595,6.393-27.158,32.058-21.943,51.193c2.898,10.635,12.947,27.604,68.921,42.679
				C784.178,2990.765,850.613,3001.669,942.036,2984.135z"/>
		</g>
	</g>
</g>
</svg>
