<?xml version="1.0" encoding="utf-8"?>
<!-- Generator: Adobe Illustrator 27.5.0, SVG Export Plug-In . SVG Version: 6.00 Build 0)  -->
<svg version="1.1" xmlns="http://www.w3.org/2000/svg" xmlns:xlink="http://www.w3.org/1999/xlink" x="0px" y="0px"
	 viewBox="0 0 3710 3710" style="enable-background:new 0 0 3710 3710;" xml:space="preserve">
<g id="Background">
	<g>
		<g>
			<rect style="fill:#FFFFFF;" width="3710" height="3710"/>
		</g>
	</g>
</g>
<g id="Illustration">
	<g>
		<linearGradient id="SVGID_1_" gradientUnits="userSpaceOnUse" x1="3265.0227" y1="3475.7664" x2="748.9115" y2="609.306">
			<stop  offset="0" style="stop-color:#DAE3FE"/>
			<stop  offset="1" style="stop-color:#E9EFFD"/>
		</linearGradient>
		<path style="fill:url(#SVGID_1_);" d="M2919.836,2842.342c-506.744,534.76-1285.133,376.561-1400.19,351.138
			c-144.951-32.029-489.813-108.229-747.164-409.088c-394.002-460.614-354.214-1180.487-49.929-1665.819
			c88.538-141.218,386.499-560.889,946.046-652.137c32.702-5.333,616.995-91.001,1087.117,303.455
			c63.39,53.187,165.7,149.502,255.373,289.75C3289.257,1494.699,3420.903,2313.573,2919.836,2842.342z"/>
		<g>
			
				<linearGradient id="SVGID_00000136399232867007727460000015788496294632814004_" gradientUnits="userSpaceOnUse" x1="2581.4363" y1="3253.7524" x2="2636.2019" y2="570.1442">
				<stop  offset="0" style="stop-color:#FF928E"/>
				<stop  offset="1" style="stop-color:#FE7062"/>
			</linearGradient>
			<path style="fill:url(#SVGID_00000136399232867007727460000015788496294632814004_);" d="M3114.417,3251.585H2071.405V1282.592
				c0-26.874,21.785-48.659,48.659-48.659h963.383c26.874,0,48.659,21.785,48.659,48.659v1951.304
				C3132.106,3243.665,3124.187,3251.585,3114.417,3251.585z"/>
			
				<linearGradient id="SVGID_00000178181407253323483930000012957355026327571646_" gradientUnits="userSpaceOnUse" x1="2551.7271" y1="3253.1531" x2="2606.4287" y2="572.6799">
				<stop  offset="0" style="stop-color:#FF928E"/>
				<stop  offset="1" style="stop-color:#FE7062"/>
			</linearGradient>
			<path style="fill:url(#SVGID_00000178181407253323483930000012957355026327571646_);" d="M1920.459,1305.318l712.485-730.105
				c10.604-10.867,28.333-9.981,37.802,1.888l592.447,742.599c13.262,16.623,1.288,41.192-19.976,40.988l-1304.932-12.494
				C1916.06,1347.981,1904.936,1321.225,1920.459,1305.318z"/>
		</g>
		<path style="fill:#91B3FA;" d="M2602.626,3255H1559.613V1654.375c0-26.874,21.785-48.659,48.659-48.659h963.383
			c26.874,0,48.659,21.785,48.659,48.659v1582.936C2620.315,3247.081,2612.395,3255,2602.626,3255z"/>
		
			<linearGradient id="SVGID_00000126324401191647829980000003199051400658049689_" gradientUnits="userSpaceOnUse" x1="1409.6909" y1="3853.1394" x2="1553.9606" y2="761.6879">
			<stop  offset="0" style="stop-color:#FF928E"/>
			<stop  offset="1" style="stop-color:#FE7062"/>
		</linearGradient>
		<path style="fill:url(#SVGID_00000126324401191647829980000003199051400658049689_);" d="M1925.262,3255h-924.445V2166.11
			c0-26.874,21.785-48.659,48.659-48.659h827.127c26.874,0,48.659,21.785,48.659,48.659V3255z"/>
		<path style="fill:#91B3FA;" d="M1237.821,3255H458.935c-9.769,0-17.688-7.919-17.688-17.688v-737.108
			c0-26.874,21.785-48.659,48.659-48.659h699.256c26.874,0,48.659,21.785,48.659,48.659V3255z"/>
		<g>
			<g>
				<g style="opacity:0.3;">
					<path style="fill:#91B3FA;" d="M851.648,1002.509c-5.061,0.658-9.906-2.603-11.112-7.677
						c-2.641-11.097-4.837-22.474-6.531-33.813c-0.824-5.517,2.979-10.657,8.495-11.481c0.066-0.009,0.131-0.017,0.195-0.025
						c5.441-0.707,10.471,3.071,11.284,8.522c1.608,10.773,3.696,21.58,6.203,32.122c1.292,5.425-2.06,10.872-7.487,12.162
						C852.347,1002.402,851.997,1002.464,851.648,1002.509z M840.961,915.187c-0.391,0.051-0.791,0.079-1.196,0.084
						c-5.576,0.064-10.151-4.405-10.215-9.982c-0.13-11.455,0.229-23.029,1.067-34.398c0.409-5.563,5.228-9.725,10.812-9.332
						c5.562,0.411,9.738,5.254,9.328,10.813c-0.796,10.808-1.135,21.802-1.01,32.689
						C849.807,910.232,845.966,914.537,840.961,915.187z M849.767,827.684c-1.115,0.145-2.273,0.104-3.435-0.146
						c-5.45-1.182-8.914-6.555-7.735-12.006c2.415-11.173,5.348-22.381,8.718-33.312c1.647-5.329,7.299-8.311,12.625-6.676
						c5.328,1.643,8.318,7.297,6.676,12.625c-3.2,10.38-5.984,21.02-8.279,31.632C857.409,824.09,853.883,827.149,849.767,827.684z
						 M877.925,744.33c-1.843,0.239-3.772-0.027-5.579-0.874c-5.049-2.367-7.222-8.382-4.855-13.43
						c4.86-10.357,10.224-20.628,15.945-30.528c2.793-4.822,8.966-6.475,13.797-3.689c4.827,2.79,6.479,8.967,3.69,13.797
						c-5.433,9.401-10.531,19.156-15.145,29C884.255,741.845,881.232,743.9,877.925,744.33z M923.962,669.349
						c-2.584,0.336-5.295-0.323-7.51-2.052c-4.399-3.43-5.184-9.776-1.753-14.172c7.017-8.998,14.52-17.824,22.299-26.226
						c3.786-4.096,10.175-4.345,14.27-0.553c4.092,3.788,4.339,10.176,0.551,14.272c-7.395,7.985-14.526,16.374-21.195,24.925
						C928.922,667.726,926.504,669.019,923.962,669.349z M985.435,606.424c-3.347,0.435-6.834-0.815-9.128-3.619
						c-3.53-4.319-2.893-10.678,1.424-14.21c8.847-7.235,18.118-14.183,27.551-20.643c4.604-3.152,10.887-1.975,14.039,2.628
						c3.151,4.598,1.975,10.885-2.626,14.036c-8.964,6.14-17.77,12.738-26.177,19.613
						C989.003,605.467,987.24,606.189,985.435,606.424z M1349.287,534.914c-1.387,0.18-2.83,0.073-4.253-0.362
						c-10.373-3.179-21.025-5.948-31.659-8.226c-5.452-1.169-8.926-6.537-7.756-11.987c1.167-5.454,6.535-8.928,11.989-7.759
						c11.199,2.4,22.418,5.314,33.342,8.66c5.333,1.634,8.331,7.283,6.696,12.614
						C1356.449,531.765,1353.093,534.42,1349.287,534.914z M1059.276,558.718c-4.154,0.54-8.375-1.561-10.343-5.522
						c-2.483-4.996-0.446-11.056,4.548-13.538c10.236-5.088,20.818-9.792,31.453-13.982c5.197-2.02,11.053,0.501,13.098,5.693
						c2.044,5.188-0.506,11.052-5.695,13.098c-10.1,3.977-20.148,8.445-29.868,13.276
						C1061.436,558.254,1060.358,558.577,1059.276,558.718z M1262.81,518.789c-0.661,0.086-1.34,0.111-2.031,0.061
						c-10.828-0.777-21.834-1.094-32.71-0.95c-5.577,0.072-10.158-4.388-10.232-9.963c-0.072-5.575,4.381-10.183,9.964-10.232
						c11.444-0.15,23.025,0.183,34.419,0.998c5.563,0.399,9.751,5.233,9.352,10.794
						C1271.223,514.367,1267.473,518.184,1262.81,518.789z M1141.923,528.702c-5.054,0.656-9.893-2.593-11.108-7.658
						c-1.301-5.424,2.04-10.873,7.463-12.179c11.104-2.664,22.472-4.884,33.789-6.593c0.069-0.013,0.142-0.023,0.212-0.032
						c5.433-0.706,10.457,3.061,11.281,8.503c0.834,5.516-2.958,10.663-8.475,11.495c-10.75,1.627-21.547,3.738-32.097,6.27
						C1142.634,528.589,1142.277,528.656,1141.923,528.702z"/>
					<path style="fill:#91B3FA;" d="M1414.927,561.737c-1.972,0.256-4.04-0.064-5.94-1.05c-4.621-2.399-9.37-4.737-14.114-6.961
						c-5.05-2.363-7.23-8.377-4.864-13.425c2.363-5.052,8.378-7.238,13.427-4.863c4.991,2.335,9.984,4.797,14.849,7.319
						c4.95,2.567,6.883,8.664,4.316,13.612C1421.018,559.423,1418.095,561.326,1414.927,561.737z"/>
				</g>
				<g style="opacity:0.3;">
					<path style="fill:#91B3FA;" d="M1611.169,798.955c-4.833,0.628-9.542-2.324-10.972-7.147
						c-1.478-4.991-3.086-10.036-4.78-14.991c-1.803-5.279,1.013-11.019,6.29-12.822c5.3-1.81,11.019,1.015,12.822,6.29
						c1.781,5.218,3.476,10.53,5.034,15.786c1.584,5.347-1.467,10.966-6.814,12.551
						C1612.224,798.778,1611.695,798.886,1611.169,798.955z"/>
					<path style="fill:#91B3FA;" d="M1285.221,1300.936c-4.608,0.599-9.243,1.121-13.905,1.568
						c-5.552,0.53-10.484-3.538-11.016-9.09c-0.532-5.551,3.562-10.507,9.088-11.018c10.759-1.031,21.451-2.496,31.901-4.379
						c5.495-0.98,10.739,2.658,11.729,8.146c0.99,5.492-2.66,10.743-8.148,11.731
						C1298.406,1299.06,1291.795,1300.082,1285.221,1300.936z M1218.022,1303.95c-0.559,0.073-1.135,0.099-1.718,0.076
						c-11.258-0.451-22.622-1.385-33.775-2.776c-5.533-0.689-9.46-5.736-8.771-11.267c0.691-5.535,5.746-9.477,11.271-8.771
						c10.593,1.321,21.388,2.206,32.087,2.638c5.572,0.223,9.907,4.922,9.684,10.492
						C1226.598,1299.331,1222.812,1303.328,1218.022,1303.95z M1356.389,1284.87c-4.721,0.613-9.36-2.193-10.89-6.883
						c-1.729-5.305,1.168-11.003,6.47-12.734c10.143-3.306,20.282-7.094,30.138-11.262c5.141-2.163,11.063,0.234,13.233,5.37
						c2.171,5.139-0.234,11.064-5.371,13.235c-10.379,4.387-21.058,8.376-31.739,11.859
						C1357.62,1284.654,1357.003,1284.79,1356.389,1284.87z M1132.408,1290.97c-1.271,0.165-2.594,0.086-3.908-0.264
						c-10.873-2.911-21.754-6.323-32.337-10.139c-5.245-1.892-7.964-7.677-6.072-12.922c1.892-5.25,7.674-7.97,12.924-6.074
						c10.049,3.623,20.38,6.863,30.707,9.627c5.388,1.44,8.585,6.979,7.143,12.365
						C1139.776,1287.635,1136.346,1290.459,1132.408,1290.97z M1435.166,1249.099c-3.873,0.503-7.855-1.278-9.981-4.849
						c-2.854-4.792-1.283-10.991,3.51-13.845c9.162-5.454,18.219-11.38,26.923-17.61c4.534-3.246,10.843-2.204,14.09,2.334
						c3.244,4.535,2.2,10.84-2.335,14.086c-9.162,6.56-18.698,12.799-28.345,18.543
						C1437.807,1248.486,1436.492,1248.927,1435.166,1249.099z M1504.188,1196.908c-3.096,0.402-6.335-0.633-8.645-3.073
						c-3.832-4.053-3.654-10.444,0.399-14.276c7.77-7.35,15.322-15.113,22.444-23.071c3.713-4.162,10.095-4.517,14.258-0.794
						c4.156,3.72,4.51,10.102,0.792,14.261c-7.496,8.376-15.442,16.544-23.62,24.277
						C1508.209,1195.754,1506.231,1196.643,1504.188,1196.908z M1560.191,1130.911c-2.355,0.306-4.824-0.212-6.948-1.647
						c-4.622-3.119-5.839-9.397-2.718-14.019c5.991-8.873,11.673-18.091,16.887-27.408c2.723-4.864,8.871-6.606,13.744-3.878
						c4.865,2.726,6.603,8.876,3.878,13.745c-5.489,9.802-11.467,19.508-17.77,28.843
						C1565.575,1129.046,1562.964,1130.55,1560.191,1130.911z M1600.464,1054.276c-1.631,0.212-3.336,0.028-4.977-0.615
						c-5.193-2.034-7.751-7.891-5.717-13.084c3.904-9.962,7.426-20.201,10.467-30.437c1.589-5.346,7.218-8.392,12.554-6.806
						c5.347,1.588,8.393,7.211,6.804,12.557c-3.203,10.782-6.912,21.566-11.021,32.052
						C1607.181,1051.498,1603.998,1053.817,1600.464,1054.276z M1622.94,970.638c-0.917,0.119-1.867,0.111-2.827-0.035
						c-5.512-0.839-9.302-5.991-8.461-11.502c1.607-10.551,2.785-21.308,3.499-31.981c0.373-5.566,5.203-9.769,10.75-9.4
						c5.565,0.371,9.774,5.186,9.402,10.752c-0.752,11.235-1.992,22.562-3.685,33.668
						C1630.924,966.693,1627.29,970.072,1622.94,970.638z M1626.49,884.163c-0.205,0.027-0.414,0.046-0.622,0.061
						c-5.563,0.38-10.383-3.822-10.762-9.385c-0.537-7.854-1.322-15.783-2.335-23.575c-0.366-2.82-0.765-5.632-1.19-8.429
						c-0.838-5.515,2.952-10.666,8.466-11.501c5.566-0.958,10.662,2.951,11.501,8.462c0.448,2.945,0.865,5.898,1.251,8.867
						c1.064,8.195,1.89,16.54,2.454,24.8C1635.62,878.816,1631.741,883.481,1626.49,884.163z"/>
					<path style="fill:#91B3FA;" d="M1051.545,1259.339c-1.991,0.259-4.076-0.071-5.987-1.072
						c-4.841-2.541-9.719-5.233-14.499-8.001c-4.828-2.794-6.476-8.972-3.682-13.798c2.796-4.826,8.967-6.479,13.798-3.682
						c4.542,2.628,9.176,5.184,13.771,7.599c4.937,2.589,6.839,8.694,4.247,13.632
						C1057.603,1257.045,1054.693,1258.93,1051.545,1259.339z"/>
				</g>
				<g>
					<path style="fill:#91B3FA;" d="M1049.969,1141.433c1.463,1.383,3.643,1.685,5.427,0.753l50.91-26.606
						c23.185,13.494,48.688,23.389,75.734,28.924l20.238,53.72c0.71,1.885,2.537,3.111,4.55,3.054l68.875-1.944
						c2.013-0.057,3.768-1.385,4.37-3.305l17.175-54.777c26.691-7.053,51.596-18.37,73.982-33.151l52.33,23.691
						c1.834,0.83,3.993,0.405,5.376-1.058l47.327-50.077c1.384-1.464,1.686-3.644,0.753-5.428l-26.605-50.909
						c13.494-23.185,23.388-48.689,28.923-75.735l53.721-20.238c1.884-0.71,3.11-2.536,3.054-4.549l-1.944-68.875
						c-0.057-2.013-1.384-3.768-3.306-4.37l-54.777-17.175c-7.052-26.691-18.369-51.596-33.151-73.981l23.692-52.331
						c0.829-1.833,0.405-3.993-1.058-5.376l-50.077-47.326c-1.463-1.384-3.643-1.685-5.427-0.753l-50.91,26.606
						c-23.184-13.495-48.688-23.389-75.734-28.924l-20.238-53.721c-0.71-1.884-2.536-3.11-4.549-3.054l-68.875,1.945
						c-2.013,0.056-3.768,1.384-4.37,3.306l-17.175,54.777c-26.691,7.052-51.596,18.37-73.982,33.151l-52.33-23.691
						c-1.834-0.831-3.994-0.406-5.377,1.057l-47.326,50.077c-1.383,1.463-1.685,3.643-0.753,5.427l26.605,50.909
						c-13.495,23.185-23.388,48.689-28.924,75.735l-53.721,20.238c-1.883,0.709-3.111,2.537-3.053,4.55l1.944,68.874
						c0.057,2.013,1.384,3.768,3.305,4.371l54.776,17.175c7.053,26.69,18.37,51.595,33.151,73.981l-23.69,52.33
						c-0.831,1.834-0.406,3.993,1.057,5.377L1049.969,1141.433z"/>
					<g>
						<path style="fill:#BDD0FB;" d="M1241.605,966.59c-33.48,4.349-66.071-16.417-75.524-49.851
							c-10.389-36.752,11.057-75.099,47.806-85.489c17.804-5.038,36.501-2.832,52.644,6.196
							c16.147,9.028,27.812,23.805,32.843,41.608c10.389,36.753-11.057,75.099-47.806,85.489
							C1248.255,965.48,1244.925,966.159,1241.605,966.59z M1225.998,845.214c-2.586,0.336-5.16,0.861-7.716,1.583
							c-28.176,7.964-44.618,37.371-36.654,65.544c7.966,28.177,37.365,44.633,65.546,36.656
							c28.176-7.964,44.618-37.37,36.654-65.544c-3.86-13.652-12.801-24.98-25.182-31.904
							C1248.584,845.924,1237.226,843.756,1225.998,845.214z"/>
					</g>
					<path style="fill:#BDD0FB;" d="M1255.896,1065.608c-5.75,0.747-11.571,1.209-17.446,1.376l0,0
						c-1.849,0.053-3.7,0.075-5.55,0.068c-9.124-0.036-18.23-0.798-27.178-2.273c-0.122-0.02-0.244-0.04-0.366-0.06
						c-0.346-0.058-0.691-0.117-1.038-0.18c-0.673-0.115-1.345-0.239-2.016-0.363c-1.765-0.328-3.046-1.756-3.268-3.446
						c-0.053-0.411-0.043-0.838,0.036-1.266c0.408-2.193,2.519-3.633,4.71-3.229c11.285,2.102,22.872,3,34.439,2.67
						c57.461-1.613,107.181-33.083,134.714-79.094c15.317-25.59,23.767-55.68,22.863-87.639c-0.157-5.604-0.596-11.16-1.311-16.644
						c-4.799-36.91-22.003-70.765-49.419-96.674c-31.491-29.763-72.689-45.481-116-44.258
						c-89.451,2.535-160.102,77.324-157.577,166.732c0.155,5.513,0.59,10.997,1.297,16.43c3.063,23.544,11.242,46.157,24.033,66.185
						c0.33,0.518,0.528,1.081,0.601,1.652c0.195,1.502-0.468,3.056-1.831,3.925c-1.885,1.195-4.378,0.656-5.579-1.232
						c-13.428-21.028-22.019-44.769-25.233-69.486c-0.743-5.703-1.198-11.459-1.363-17.245
						c-2.651-93.871,71.587-172.388,165.424-175.039c45.471-1.285,88.718,15.218,121.778,46.463
						c28.784,27.199,46.843,62.741,51.883,101.489c0.748,5.758,1.209,11.589,1.377,17.47c1.283,45.473-15.217,88.722-46.461,121.782
						C1330.207,1042.514,1294.653,1060.573,1255.896,1065.608z"/>
				</g>
			</g>
			<g>
				<g style="opacity:0.3;">
					<path style="fill:#91B3FA;" d="M544.2,1310.797c-2.676,0.348-5.367-1.078-6.509-3.675c-2.134-4.845-4.15-9.823-5.991-14.792
						c-1.196-3.229,0.451-6.815,3.682-8.015c3.23-1.211,6.818,0.453,8.015,3.682c1.754,4.735,3.675,9.479,5.711,14.104
						c1.388,3.149-0.044,6.829-3.195,8.221C545.352,1310.568,544.777,1310.722,544.2,1310.797z"/>
					<path style="fill:#91B3FA;" d="M528.981,1265.297c-3.135,0.407-6.131-1.617-6.867-4.758c-2.087-8.875-3.74-17.959-4.914-26.995
						c-0.247-1.902-0.473-3.814-0.683-5.734c-0.369-3.428,2.304-6.398,5.528-6.878c3.425-0.371,6.501,2.104,6.875,5.525
						c0.199,1.835,0.414,3.663,0.65,5.48c1.12,8.619,2.697,17.283,4.683,25.746c0.789,3.355-1.29,6.709-4.642,7.5
						C529.399,1265.23,529.189,1265.27,528.981,1265.297z M521.999,1200.915c-0.292,0.038-0.594,0.059-0.895,0.055
						c-3.446-0.05-6.2-2.88-6.153-6.325c0.149-11.051,0.987-22.191,2.49-33.104c0.468-3.414,3.633-5.791,7.029-5.329
						c3.415,0.471,5.797,3.614,5.329,7.028c-1.433,10.413-2.23,21.038-2.375,31.577
						C527.379,1197.957,525.026,1200.522,521.999,1200.915z M530.839,1136.764c-0.785,0.102-1.602,0.054-2.413-0.159
						c-3.327-0.889-5.302-4.311-4.413-7.639c2.853-10.659,6.402-21.26,10.557-31.497c1.295-3.197,4.923-4.73,8.125-3.433
						c3.19,1.293,4.728,4.932,3.435,8.122c-3.961,9.764-7.348,19.866-10.065,30.033
						C535.39,1134.704,533.27,1136.448,530.839,1136.764z M555.18,1076.745c-1.281,0.167-2.622-0.064-3.836-0.736
						c-3.007-1.679-4.088-5.482-2.408-8.488c5.389-9.655,11.421-19.055,17.937-27.948c2.038-2.777,5.944-3.37,8.716-1.341
						c2.779,2.034,3.381,5.936,1.345,8.719c-6.211,8.472-11.968,17.444-17.104,26.648
						C558.828,1075.394,557.074,1076.499,555.18,1076.745z M593.441,1024.495c-1.788,0.232-3.664-0.31-5.081-1.643
						c-2.508-2.358-2.627-6.304-0.27-8.815c7.567-8.04,15.699-15.693,24.175-22.739c2.649-2.211,6.581-1.844,8.783,0.806
						c2.202,2.65,1.841,6.584-0.806,8.783c-8.087,6.726-15.846,14.023-23.063,21.699
						C596.15,1023.676,594.821,1024.315,593.441,1024.495z M643.217,983.118c-2.316,0.301-4.709-0.722-6.057-2.819
						c-1.859-2.897-1.015-6.753,1.882-8.616c9.292-5.961,19.046-11.399,28.986-16.154c3.121-1.48,6.832-0.169,8.32,2.936
						c1.487,3.105,0.172,6.832-2.933,8.316c-9.481,4.536-18.776,9.717-27.634,15.401
						C644.978,982.699,644.102,983.003,643.217,983.118z M701.584,955.175c-2.899,0.377-5.753-1.334-6.713-4.207
						c-1.091-3.267,0.673-6.801,3.94-7.894c10.437-3.487,21.23-6.363,32.08-8.553c3.395-0.625,6.67,1.511,7.347,4.886
						c0.681,3.376-1.505,6.663-4.88,7.347c-10.352,2.082-20.646,4.826-30.597,8.151
						C702.371,955.036,701.977,955.124,701.584,955.175z M797.509,941.916c-0.356,0.046-0.726,0.064-1.1,0.045
						c-9.083-0.423-18.349-0.356-27.542,0.2c-1.393,0.076-2.76,0.168-4.122,0.277c-3.436,0.262-6.435-2.302-6.7-5.738
						c-0.272-3.442,2.311-6.541,5.735-6.703c1.454-0.109,2.905-0.211,4.366-0.291c9.605-0.578,19.318-0.648,28.844-0.203
						c3.442,0.161,6.1,3.078,5.939,6.519C802.786,939.087,800.454,941.534,797.509,941.916z"/>
				</g>
				<g style="opacity:0.3;">
					<path style="fill:#91B3FA;" d="M822.64,1465.23c-3.376,0.439-6.49-1.921-6.975-5.303c-0.488-3.407,1.88-6.571,5.29-7.056
						c10.266-1.469,20.529-3.576,30.504-6.266c3.313-0.86,6.751,1.07,7.647,4.399c0.897,3.329-1.076,6.749-4.399,7.647
						c-10.463,2.814-21.221,5.029-31.981,6.568C822.697,1465.223,822.667,1465.227,822.64,1465.23z M790.839,1467.844
						c-0.224,0.029-0.446,0.045-0.675,0.051c-10.855,0.244-21.836-0.173-32.636-1.233c-3.428-0.341-5.934-3.387-5.596-6.815
						c0.334-3.434,3.406-5.927,6.814-5.602c10.306,1.013,20.783,1.409,31.142,1.181c3.442-0.079,6.296,2.653,6.372,6.094
						C796.332,1464.741,793.955,1467.439,790.839,1467.844z M884.125,1448.645c-2.742,0.356-5.487-1.155-6.579-3.838
						c-1.296-3.185,0.237-6.824,3.429-8.123c9.61-3.914,19.062-8.44,28.094-13.465c3.023-1.664,6.808-0.589,8.48,2.424
						c1.674,3.007,0.59,6.808-2.42,8.483c-9.469,5.265-19.38,10.01-29.454,14.108
						C885.164,1448.442,884.644,1448.577,884.125,1448.645z M727.428,1461.574c-0.703,0.091-1.435,0.064-2.168-0.099
						c-10.602-2.376-21.165-5.432-31.39-9.085c-3.245-1.157-4.935-4.727-3.778-7.973c1.159-3.234,4.728-4.926,7.97-3.774
						c9.751,3.481,19.819,6.392,29.928,8.66c3.36,0.755,5.475,4.091,4.721,7.451C732.121,1459.38,729.953,1461.246,727.428,1461.574
						z M939.773,1417.689c-2.189,0.284-4.464-0.605-5.851-2.514c-2.03-2.788-1.413-6.689,1.37-8.715
						c8.37-6.087,16.453-12.75,24.027-19.815c2.522-2.355,6.469-2.21,8.817,0.311c2.348,2.52,2.21,6.469-0.31,8.817
						c-7.944,7.401-16.418,14.392-25.192,20.777C941.759,1417.186,940.772,1417.559,939.773,1417.689z M986.372,1374.287
						c-1.676,0.218-3.432-0.242-4.824-1.413c-2.635-2.219-2.974-6.155-0.755-8.789c6.683-7.938,12.942-16.349,18.603-24.995
						c1.889-2.886,5.758-3.69,8.635-1.803c2.883,1.886,3.688,5.749,1.803,8.629c-5.935,9.068-12.494,17.887-19.497,26.204
						C989.292,1373.361,987.864,1374.093,986.372,1374.287z M1021.235,1320.966c-1.178,0.153-2.411-0.025-3.556-0.594
						c-3.091-1.521-4.36-5.263-2.836-8.353c4.593-9.3,8.65-18.967,12.06-28.727c1.138-3.243,4.695-4.965,7.945-3.826
						c3.252,1.137,4.967,4.692,3.83,7.947c-3.579,10.231-7.832,20.371-12.645,30.129
						C1025.072,1319.486,1023.234,1320.707,1021.235,1320.966z"/>
					<path style="fill:#91B3FA;" d="M667.155,1440.039c-1.193,0.155-2.443-0.033-3.599-0.614c-4.77-2.396-9.49-4.946-14.032-7.574
						c-2.979-1.726-4-5.543-2.275-8.525c1.731-2.97,5.54-3.993,8.525-2.274c4.33,2.508,8.835,4.939,13.386,7.228
						c3.078,1.547,4.318,5.298,2.771,8.373C670.963,1438.574,669.139,1439.781,667.155,1440.039z"/>
				</g>
				<g>
					<path style="fill:#91B3FA;" d="M661.917,1359.471c0.979,0.925,2.438,1.128,3.632,0.504l34.067-17.803
						c15.514,9.029,32.58,15.651,50.678,19.355l13.543,35.947c0.474,1.261,1.697,2.081,3.044,2.044l46.088-1.301
						c1.347-0.039,2.521-0.927,2.925-2.212l11.492-36.654c17.861-4.719,34.526-12.292,49.506-22.183l35.017,15.853
						c1.228,0.555,2.672,0.271,3.598-0.708l31.669-33.509c0.926-0.98,1.128-2.438,0.504-3.632l-17.803-34.066
						c9.03-15.514,15.651-32.58,19.355-50.679l35.947-13.542c1.261-0.475,2.081-1.697,2.044-3.044l-1.301-46.088
						c-0.038-1.347-0.926-2.522-2.212-2.924l-36.654-11.493c-4.719-17.861-12.292-34.525-22.183-49.505l15.853-35.018
						c0.555-1.227,0.271-2.672-0.708-3.597l-33.51-31.669c-0.979-0.926-2.438-1.127-3.632-0.504l-34.067,17.804
						c-15.513-9.031-32.58-15.651-50.678-19.355l-13.543-35.948c-0.475-1.26-1.697-2.082-3.044-2.044l-46.088,1.302
						c-1.347,0.038-2.521,0.926-2.924,2.212l-11.492,36.654c-17.861,4.719-34.526,12.292-49.506,22.183l-35.016-15.853
						c-1.228-0.556-2.673-0.272-3.598,0.708l-31.669,33.509c-0.925,0.979-1.128,2.438-0.504,3.632l17.803,34.066
						c-9.03,15.514-15.65,32.58-19.354,50.678l-35.948,13.542c-1.26,0.474-2.081,1.697-2.042,3.044l1.301,46.087
						c0.039,1.347,0.926,2.521,2.212,2.925l36.654,11.493c4.719,17.86,12.292,34.525,22.182,49.505l-15.853,35.017
						c-0.556,1.228-0.271,2.672,0.708,3.598L661.917,1359.471z"/>
					<g>
						<path style="fill:#BDD0FB;" d="M790.191,1243.312c-9.978,1.296-20.067-0.63-29.008-5.629
							c-10.998-6.151-18.942-16.217-22.369-28.345c-7.077-25.024,7.529-51.146,32.561-58.229
							c25.079-7.041,51.159,7.536,58.234,32.566c3.43,12.128,1.93,24.864-4.221,35.859c-6.15,11.001-16.216,18.948-28.347,22.372
							C794.775,1242.545,792.484,1243.014,790.191,1243.312z M779.76,1162.088c-1.664,0.216-3.33,0.556-4.993,1.023
							c-18.412,5.211-29.155,24.424-23.95,42.837c2.522,8.916,8.364,16.326,16.453,20.846c8.094,4.525,17.458,5.619,26.381,3.108
							l0,0c8.919-2.522,16.326-8.367,20.849-16.454c4.525-8.094,5.627-17.461,3.105-26.384
							C812.871,1170.317,796.536,1159.909,779.76,1162.088z"/>
					</g>
					<path style="fill:#BDD0FB;" d="M800.049,1312.246c-3.914,0.508-7.884,0.821-11.91,0.939
						c-7.995,0.228-16.021-0.357-23.876-1.745c-0.353-0.065-0.705-0.13-1.057-0.195c-2.725-0.506-4.704-2.712-5.046-5.321
						c-0.082-0.634-0.067-1.293,0.056-1.954c0.629-3.386,3.891-5.604,7.272-4.986c7.321,1.365,14.821,1.944,22.293,1.729l0.003,0
						c0.41-0.01,0.822-0.028,1.229-0.043c17.679-0.669,34.521-5.719,49.337-14.522c8.042-4.779,15.489-10.672,22.142-17.587
						c0.054-0.056,0.108-0.112,0.163-0.168c0.165-0.176,0.33-0.344,0.492-0.519c19.266-20.388,29.443-47.058,28.65-75.097
						c-0.1-3.629-0.385-7.222-0.847-10.774c-3.107-23.894-14.246-45.811-31.995-62.588c-20.388-19.266-47.057-29.437-75.094-28.645
						c-28.02,0.802-54.092,12.456-73.362,32.839c-19.266,20.388-29.443,47.057-28.65,75.097c0.098,3.568,0.381,7.118,0.838,10.633
						c1.984,15.245,7.278,29.881,15.558,42.846c0.51,0.8,0.816,1.669,0.928,2.551c0.301,2.319-0.723,4.719-2.827,6.061
						c-2.908,1.846-6.758,1.007-8.616-1.903c-9.264-14.507-15.19-30.886-17.411-47.936c-0.512-3.938-0.828-7.908-0.941-11.898
						c-0.885-31.375,10.499-61.211,32.057-84.021c21.556-22.805,50.685-35.875,82.071-36.74
						c31.371-0.888,61.207,10.493,84.015,32.055c19.859,18.764,32.318,43.285,35.794,70.018c0.515,3.968,0.836,7.993,0.951,12.049
						C903.978,1253.16,859.054,1304.581,800.049,1312.246z"/>
				</g>
			</g>
		</g>
		<g>
			
				<linearGradient id="SVGID_00000111174529251362780530000014349034115612064128_" gradientUnits="userSpaceOnUse" x1="713.0809" y1="2166.4121" x2="1246.4407" y2="1509.9702">
				<stop  offset="0" style="stop-color:#4F52FF"/>
				<stop  offset="1" style="stop-color:#4042E2"/>
			</linearGradient>
			<path style="fill:url(#SVGID_00000111174529251362780530000014349034115612064128_);" d="M1345.09,1243.817l-76.243,117.294
				c35.468,69.097,74.863,107.242,114.275,125.376c7.038-43.049,32.179-78.782,50.638-100.007
				C1363.453,1346.487,1345.09,1243.817,1345.09,1243.817z"/>
			
				<linearGradient id="SVGID_00000085948597131724866070000013085253642811480991_" gradientUnits="userSpaceOnUse" x1="1664.1062" y1="1344.2004" x2="1091.2983" y2="1621.6852">
				<stop  offset="0" style="stop-color:#FEBBBA"/>
				<stop  offset="1" style="stop-color:#FF928E"/>
			</linearGradient>
			<path style="fill:url(#SVGID_00000085948597131724866070000013085253642811480991_);" d="M1607.042,1365.422
				c-78.058,46.2-133.843,43.49-173.281,21.057c-18.46,21.225-43.601,56.958-50.638,100.007
				c125.29,57.646,250.752-87.448,250.752-87.448L1607.042,1365.422z"/>
			
				<linearGradient id="SVGID_00000003073303706151611050000014345784990297100435_" gradientUnits="userSpaceOnUse" x1="1666.8383" y1="1349.8405" x2="1094.0305" y2="1627.3252">
				<stop  offset="0" style="stop-color:#FEBBBA"/>
				<stop  offset="1" style="stop-color:#FF928E"/>
			</linearGradient>
			<path style="fill:url(#SVGID_00000003073303706151611050000014345784990297100435_);" d="M1611.29,1385.514
				c0,0-21.072-36.738,9.232-64.947c0,0,9.771-11.146,20.5,5.23c0,0,32.601-29.596,41.516-17.675
				c8.915,11.922,32.547,41.441,9.467,75.111C1668.665,1417.285,1621.583,1402.108,1611.29,1385.514z"/>
			<path style="fill:#F79E6D;" d="M1643.33,1365.065c-3.111,0-6.444-0.575-9.396-2.323c-2.877-1.704-6.5-5.26-7.427-12.532
				c-0.266-2.089,1.212-4,3.301-4.266c2.076-0.251,4,1.21,4.266,3.301c0.435,3.424,1.657,5.688,3.733,6.925
				c2.892,1.724,7.191,1.372,10.382,0.685l-7.385-23.42c-0.633-2.009,0.48-4.151,2.489-4.783c2.007-0.637,4.152,0.48,4.784,2.489
				l8.554,27.13c0.603,1.912-0.376,3.963-2.242,4.696C1653.603,1363.276,1648.812,1365.065,1643.33,1365.065z"/>
			
				<linearGradient id="SVGID_00000093164364514934121280000001066990931817333379_" gradientUnits="userSpaceOnUse" x1="493.2401" y1="2251.2385" x2="582.9158" y2="2251.2385">
				<stop  offset="0" style="stop-color:#09005D"/>
				<stop  offset="1" style="stop-color:#1A0F91"/>
			</linearGradient>
			<path style="fill:url(#SVGID_00000093164364514934121280000001066990931817333379_);" d="M502.267,2153.14
				c-6.784,4.083-10.251,12.684-8.634,21.111c6.363,33.164,27.282,120.767,78.094,172.627c3.356,3.424,8.238,3.12,11.188,0.033
				c-12.867-13.405-28.82-36.317-47.47-75.23C506.783,2211.875,501.475,2174.988,502.267,2153.14z"/>
			
				<linearGradient id="SVGID_00000083074340988177842400000010657019201406660994_" gradientUnits="userSpaceOnUse" x1="502.1944" y1="2245.6006" x2="597.6215" y2="2245.6006">
				<stop  offset="0" style="stop-color:#09005D"/>
				<stop  offset="1" style="stop-color:#1A0F91"/>
			</linearGradient>
			<path style="fill:url(#SVGID_00000083074340988177842400000010657019201406660994_);" d="M567.88,2151.9
				c0,0-32.762-17.821-65.384,1.079c-0.082,0.047-0.148,0.112-0.228,0.16c-0.793,21.848,4.515,58.735,33.178,118.541
				c18.649,38.913,34.603,61.825,47.47,75.23c0.934-0.977,1.685-2.218,2.12-3.727C594.58,2310.025,614.733,2217.896,567.88,2151.9z"
				/>
			
				<linearGradient id="SVGID_00000021841717040368719040000011157388184331999625_" gradientUnits="userSpaceOnUse" x1="549.8345" y1="2149.1079" x2="620.008" y2="2149.1079">
				<stop  offset="0" style="stop-color:#FEBBBA"/>
				<stop  offset="1" style="stop-color:#FF928E"/>
			</linearGradient>
			<path style="fill:url(#SVGID_00000021841717040368719040000011157388184331999625_);" d="M615.2,2153.963l-29.689,28.485
				c-5.251,5.038-13.304,5.85-19.367,1.825c-5.289-3.51-11.177-9.268-15.096-18.598c-2.352-5.599-1.223-12.077,2.863-16.571
				l29.64-32.604c7.074-7.782,19.661-6.495,25.014,2.558l9.268,15.675C621.524,2140.978,620.434,2148.942,615.2,2153.963z"/>
			
				<linearGradient id="SVGID_00000150077949962529376830000016266842868601320578_" gradientUnits="userSpaceOnUse" x1="1574.7931" y1="1929.2638" x2="1709.2233" y2="1929.2638">
				<stop  offset="0" style="stop-color:#09005D"/>
				<stop  offset="1" style="stop-color:#1A0F91"/>
			</linearGradient>
			<path style="fill:url(#SVGID_00000150077949962529376830000016266842868601320578_);" d="M1574.793,2011.078
				c6.903,3.88,16.093,2.643,22.62-2.927c25.686-21.923,91.502-83.405,111.472-153.209c1.318-4.609-1.359-8.703-5.501-9.742
				c-5.294,17.81-17.327,43.004-41.938,78.448C1623.621,1978.123,1594.178,2000.969,1574.793,2011.078z"/>
			
				<linearGradient id="SVGID_00000067210556391499526380000009629099045959523477_" gradientUnits="userSpaceOnUse" x1="1541.2874" y1="1928.0073" x2="1703.3837" y2="1928.0073">
				<stop  offset="0" style="stop-color:#09005D"/>
				<stop  offset="1" style="stop-color:#1A0F91"/>
			</linearGradient>
			<path style="fill:url(#SVGID_00000067210556391499526380000009629099045959523477_);" d="M1541.287,1954.651
				c0,0,0.7,37.289,33.254,56.307c0.081,0.048,0.171,0.074,0.252,0.119c19.385-10.109,48.828-32.954,86.653-87.43
				c24.611-35.444,36.644-60.638,41.938-78.448c-1.31-0.329-2.76-0.368-4.287,0
				C1665.553,1853.289,1575.503,1881.303,1541.287,1954.651z"/>
			
				<linearGradient id="SVGID_00000084497820711108285610000001926860829436095637_" gradientUnits="userSpaceOnUse" x1="1498.3152" y1="1923.3126" x2="1575.4126" y2="1923.3126">
				<stop  offset="0" style="stop-color:#FEBBBA"/>
				<stop  offset="1" style="stop-color:#FF928E"/>
			</linearGradient>
			<path style="fill:url(#SVGID_00000084497820711108285610000001926860829436095637_);" d="M1538.99,1892.905l31.023,27.026
				c5.487,4.78,7.015,12.728,3.548,19.127c-3.024,5.581-8.232,11.959-17.175,16.697c-5.367,2.843-11.92,2.297-16.76-1.371
				l-35.122-26.609c-8.383-6.351-8.225-19.002,0.313-25.142l14.785-10.632C1525.492,1887.766,1533.521,1888.141,1538.99,1892.905z"
				/>
			
				<linearGradient id="SVGID_00000062872701000422982580000004085641490223902898_" gradientUnits="userSpaceOnUse" x1="572.5655" y1="1892.4075" x2="1091.9923" y2="1892.4075">
				<stop  offset="0" style="stop-color:#09005D"/>
				<stop  offset="1" style="stop-color:#1A0F91"/>
			</linearGradient>
			<path style="fill:url(#SVGID_00000062872701000422982580000004085641490223902898_);" d="M916.55,1619.37
				c0,0-60.535,206.228-99.672,296.87c0,0-68.415,10.436-110.76,35.178c-42.344,24.742-133.553,161.871-133.553,161.871
				s23.82,45.218,52.559,52.156l259.646-179.905l207.221-240.983l-9.836-111.773L916.55,1619.37z"/>
			
				<linearGradient id="SVGID_00000103225604015170330150000008952884277122328511_" gradientUnits="userSpaceOnUse" x1="1841.0116" y1="1906.0188" x2="1088.8407" y2="1666.6919">
				<stop  offset="0" style="stop-color:#09005D"/>
				<stop  offset="1" style="stop-color:#1A0F91"/>
			</linearGradient>
			<path style="fill:url(#SVGID_00000103225604015170330150000008952884277122328511_);" d="M920.281,1602.547l-17.714,56.474
				c0,0,16.202,148.057,202.857,123.091c186.655-24.967,210.115-55.439,210.115-55.439s-16.203,94.56,187.897,208.253
				c0,0,31.024-23.419,37.852-50.014l-143.029-235.74c-19.895-30.922-38.344-39.067-74.672-33.385
				c-80.325,12.562-230.732,28.936-253.495,25.049L920.281,1602.547z"/>
			
				<linearGradient id="SVGID_00000155861012473146921670000000191813100751551126_" gradientUnits="userSpaceOnUse" x1="533.1627" y1="2020.2297" x2="1066.524" y2="1363.7859">
				<stop  offset="0" style="stop-color:#4F52FF"/>
				<stop  offset="1" style="stop-color:#4042E2"/>
			</linearGradient>
			<path style="fill:url(#SVGID_00000155861012473146921670000000191813100751551126_);" d="M1066.061,1182.605
				c-54.395,2.767-140.378,28.624-195.919,79.756c17.072,18.845,43.34,49.486,62.92,79.754
				c17.496-16.427,42.622-30.108,77.996-38.87c-30.576,114.279-66.717,223.155-110.76,324.36
				c-2.756,6.334,0.383,13.661,6.906,15.934c34.08,11.876,134.581,40.16,215.19-5.391l178.712-255.896
				c19.22-27.52,31.854-59.091,36.927-92.273l7.057-46.162C1345.09,1243.817,1184.586,1176.579,1066.061,1182.605z"/>
			
				<linearGradient id="SVGID_00000129207717380675279530000010617159166178583996_" gradientUnits="userSpaceOnUse" x1="953.238" y1="1531.5098" x2="612.3282" y2="928.9709">
				<stop  offset="0" style="stop-color:#FEBBBA"/>
				<stop  offset="1" style="stop-color:#FF928E"/>
			</linearGradient>
			<path style="fill:url(#SVGID_00000129207717380675279530000010617159166178583996_);" d="M968.595,1569.844
				c-7.767-17.15-34.359-33.175-47.05-40.06c-11.041-22.759-55.112-125.117,11.516-187.669
				c-19.58-30.268-45.848-60.909-62.92-79.754c-64.083,58.997-87.542,151.673,24.834,281.435
				c-6.134,31.961,13.88,69.177,24.702,74.393C924.663,1620.593,978.918,1592.637,968.595,1569.844z"/>
			
				<linearGradient id="SVGID_00000047035741615584450890000002424926871460538010_" gradientUnits="userSpaceOnUse" x1="1168.7456" y1="1273.6475" x2="1204.4224" y2="1171.9031">
				<stop  offset="0" style="stop-color:#FEBBBA"/>
				<stop  offset="1" style="stop-color:#FF928E"/>
			</linearGradient>
			<path style="fill:url(#SVGID_00000047035741615584450890000002424926871460538010_);" d="M1186.776,1114.636l-46.69,91.388
				c-2.848,5.575-2.001,12.313,2.182,16.971c11.306,12.592,38.007,33.045,84.454,18.387c5.121-1.616,8.806-6.118,9.585-11.431
				l12.159-82.997L1186.776,1114.636z"/>
			<g>
				
					<linearGradient id="SVGID_00000011727367698210397730000011798673599317884590_" gradientUnits="userSpaceOnUse" x1="1270.3533" y1="1063.8909" x2="1113.8033" y2="1183.6754">
					<stop  offset="0" style="stop-color:#FEBBBA"/>
					<stop  offset="1" style="stop-color:#FF928E"/>
				</linearGradient>
				<path style="fill:url(#SVGID_00000011727367698210397730000011798673599317884590_);" d="M1264.613,1008.519
					c0,0,27.385,62.908,29.224,95.925c1.839,33.018,8.954,54.443-29.224,61.092c-38.177,6.649-70.339-12.37-87.762-45.259
					c0,0-27.299-50.68-21.175-71.434C1161.799,1028.087,1264.613,1008.519,1264.613,1008.519z"/>
				
					<linearGradient id="SVGID_00000044135927596600919470000015593734147122660787_" gradientUnits="userSpaceOnUse" x1="1160.1493" y1="969.0479" x2="1305.9506" y2="1156.7668">
					<stop  offset="0" style="stop-color:#09005D"/>
					<stop  offset="1" style="stop-color:#1A0F91"/>
				</linearGradient>
				<path style="fill:url(#SVGID_00000044135927596600919470000015593734147122660787_);" d="M1189.897,1096.629l2.173-0.958
					c2.767-1.22,3.95-4.513,2.56-7.199c-5.383-10.402-15.879-34.238-2.321-39.798c17.473-7.166,86.685-21.28,101.619-45.839
					c14.352-23.603,1.635-54.071-17.476-62.737c-1.279-0.58-2.787-0.12-3.443,1.122l-1.593,3.013
					c-1.09,2.063-4.137,1.75-4.786-0.491l0,0c-0.623-2.152-3.485-2.569-4.671-0.67c-4.59,7.348-16.983,19.259-50.123,25.375
					c-47.099,8.693-78.237,27.752-79.012,60.298c-0.049,2.068-2.249,3.217-4.015,2.141c-3.477-2.12-9.042-3.114-16.48,3.14
					c-12.934,10.876-7.642,39.09,20.714,62.297c1.347,1.103,1.336,3.206-0.122,4.155c-5.141,3.346-12.804,11.308,7.052,21.922
					c20.538,10.979,35.875,10.078,41.78,9.103c1.469-0.243,2.416-1.665,2.096-3.119l-6.303-28.605
					c-0.357-1.619,0.876-3.152,2.533-3.152H1189.897z"/>
				
					<linearGradient id="SVGID_00000062906857824385310420000010474021284579164041_" gradientUnits="userSpaceOnUse" x1="1250.9354" y1="1038.5125" x2="1094.3851" y2="1158.2974">
					<stop  offset="0" style="stop-color:#FEBBBA"/>
					<stop  offset="1" style="stop-color:#FF928E"/>
				</linearGradient>
				<path style="fill:url(#SVGID_00000062906857824385310420000010474021284579164041_);" d="M1191.083,1102.665
					c0,0-10.447-40.184-28.464-28.917c-18.016,11.267,9.349,45.025,23.834,46.529L1191.083,1102.665z"/>
			</g>
		</g>
	</g>
</g>
</svg>
